<svg xmlns="http://www.w3.org/2000/svg" width="94" height="29.352" viewBox="0 0 94 29.352">
  <g id="Group_16052" data-name="Group 16052" transform="translate(-410 -67)">
    <g id="Group_16046" data-name="Group 16046" transform="translate(110 39)">
      <g id="Group_2" data-name="Group 2" transform="translate(624.039 324.29)">
        <g id="Group_1" data-name="Group 1" transform="translate(-324.039 -295.724)">
          <g id="logo" transform="translate(0 0)">
            <path id="Union_40" data-name="Union 40" d="M2954,1659.079v-18.217a5.567,5.567,0,1,1,11.135,0v18.217a5.567,5.567,0,1,1-11.134,0Zm15.043-5.563a5.357,5.357,0,0,1,0-7.576l.3-.3a5.357,5.357,0,0,1,7.575,7.577l-.3.3a5.357,5.357,0,0,1-7.576,0Z" transform="translate(-2954 -1635.859)" fill="#3f78e0"/>
          </g>
        </g>
      </g>
      <path id="Path_1725" data-name="Path 1725" d="M8.6.2A7.738,7.738,0,0,1,4.675-.77,6.436,6.436,0,0,1,2.09-3.542a9.334,9.334,0,0,1-.9-4.224,9.265,9.265,0,0,1,.9-4.213A6.449,6.449,0,0,1,4.675-14.74,7.738,7.738,0,0,1,8.6-15.708a8.505,8.505,0,0,1,2.728.429A7.088,7.088,0,0,1,13.6-14.036a1.262,1.262,0,0,1,.4.462,1.432,1.432,0,0,1,.11.594,1.262,1.262,0,0,1-.264.814.793.793,0,0,1-.638.33,1.627,1.627,0,0,1-.9-.308,6.524,6.524,0,0,0-1.76-.979,5.61,5.61,0,0,0-1.8-.275,4.228,4.228,0,0,0-3.465,1.43,6.479,6.479,0,0,0-1.177,4.2A6.519,6.519,0,0,0,5.269-3.542a4.228,4.228,0,0,0,3.465,1.43A5.178,5.178,0,0,0,10.483-2.4,8.39,8.39,0,0,0,12.3-3.366a3.078,3.078,0,0,1,.44-.22,1.232,1.232,0,0,1,.462-.088.793.793,0,0,1,.638.33,1.262,1.262,0,0,1,.264.814,1.45,1.45,0,0,1-.11.583,1.232,1.232,0,0,1-.4.473A7.088,7.088,0,0,1,11.33-.231,8.505,8.505,0,0,1,8.6.2ZM21.01-11.022a4.481,4.481,0,0,1,3.333,1.111,4.651,4.651,0,0,1,1.089,3.377v5.368a1.241,1.241,0,0,1-.352.935,1.333,1.333,0,0,1-.968.341,1.287,1.287,0,0,1-.935-.352,1.229,1.229,0,0,1-.363-.924V-1.65A2.87,2.87,0,0,1,21.637-.308a3.53,3.53,0,0,1-1.859.484,4.317,4.317,0,0,1-1.958-.44,3.483,3.483,0,0,1-1.386-1.21,3.057,3.057,0,0,1-.506-1.716,2.718,2.718,0,0,1,.605-1.87A3.636,3.636,0,0,1,18.5-6.05a17.931,17.931,0,0,1,3.762-.308h.55v-.506a2.253,2.253,0,0,0-.462-1.573,1.966,1.966,0,0,0-1.5-.495,4.747,4.747,0,0,0-1.3.187q-.66.187-1.562.539a2.2,2.2,0,0,1-.836.286.827.827,0,0,1-.649-.286,1.087,1.087,0,0,1-.253-.748,1.126,1.126,0,0,1,.187-.649,1.775,1.775,0,0,1,.627-.517,7.171,7.171,0,0,1,1.837-.66A9.478,9.478,0,0,1,21.01-11.022ZM20.328-1.8a2.35,2.35,0,0,0,1.793-.737,2.666,2.666,0,0,0,.693-1.9v-.462h-.4a15.177,15.177,0,0,0-2.288.132,2.221,2.221,0,0,0-1.166.462,1.176,1.176,0,0,0-.352.9,1.493,1.493,0,0,0,.495,1.155A1.746,1.746,0,0,0,20.328-1.8ZM29.81.132a1.422,1.422,0,0,1-.979-.341,1.239,1.239,0,0,1-.385-.979V-14.322a1.2,1.2,0,0,1,.385-.968,1.451,1.451,0,0,1,.979-.33,1.494,1.494,0,0,1,.99.33,1.188,1.188,0,0,1,.4.968V-1.188a1.221,1.221,0,0,1-.4.979A1.464,1.464,0,0,1,29.81.132Zm5.808,0a1.422,1.422,0,0,1-.979-.341,1.239,1.239,0,0,1-.385-.979V-14.322a1.2,1.2,0,0,1,.385-.968,1.451,1.451,0,0,1,.979-.33,1.494,1.494,0,0,1,.99.33,1.188,1.188,0,0,1,.4.968V-1.188a1.221,1.221,0,0,1-.4.979A1.464,1.464,0,0,1,35.618.132ZM46.244-11.022a4.55,4.55,0,0,1,2.486.682A4.583,4.583,0,0,1,50.413-8.4a6.662,6.662,0,0,1,.6,2.926,6.88,6.88,0,0,1-.6,2.959A4.668,4.668,0,0,1,48.719-.528a4.459,4.459,0,0,1-2.475.7A4.216,4.216,0,0,1,44.165-.33a3.444,3.444,0,0,1-1.4-1.408v.55a1.237,1.237,0,0,1-.374.946A1.386,1.386,0,0,1,41.4.11a1.346,1.346,0,0,1-.979-.352,1.257,1.257,0,0,1-.363-.946V-14.344a1.193,1.193,0,0,1,.385-.924,1.426,1.426,0,0,1,1-.352,1.442,1.442,0,0,1,.99.33,1.141,1.141,0,0,1,.374.9V-9.2A3.289,3.289,0,0,1,44.2-10.549,4.339,4.339,0,0,1,46.244-11.022Zm-.726,9.064a2.429,2.429,0,0,0,2.024-.924,4.11,4.11,0,0,0,.726-2.6,3.924,3.924,0,0,0-.715-2.53,2.472,2.472,0,0,0-2.035-.88A2.459,2.459,0,0,0,43.483-8a4.011,4.011,0,0,0-.715,2.563,4.059,4.059,0,0,0,.715,2.574A2.446,2.446,0,0,0,45.518-1.958Zm9.35,2.09a1.422,1.422,0,0,1-.979-.341,1.239,1.239,0,0,1-.385-.979V-9.68a1.2,1.2,0,0,1,.385-.968,1.451,1.451,0,0,1,.979-.33,1.494,1.494,0,0,1,.99.33,1.188,1.188,0,0,1,.4.968v8.492a1.221,1.221,0,0,1-.4.979A1.464,1.464,0,0,1,54.868.132Zm0-13.068a1.681,1.681,0,0,1-1.188-.407,1.385,1.385,0,0,1-.44-1.067,1.351,1.351,0,0,1,.44-1.056,1.71,1.71,0,0,1,1.188-.4,1.719,1.719,0,0,1,1.177.4A1.335,1.335,0,0,1,56.5-14.41a1.385,1.385,0,0,1-.44,1.067A1.681,1.681,0,0,1,54.868-12.936ZM64.9-1.914q1.1.066,1.1.99a.9.9,0,0,1-.429.8A2.047,2.047,0,0,1,64.35.11L63.756.066q-3.7-.264-3.7-3.96v-4.8h-1.1a1.4,1.4,0,0,1-.913-.264.942.942,0,0,1-.319-.77.942.942,0,0,1,.319-.77,1.4,1.4,0,0,1,.913-.264h1.1v-2.024a1.237,1.237,0,0,1,.374-.946,1.417,1.417,0,0,1,1.012-.352,1.386,1.386,0,0,1,.99.352,1.237,1.237,0,0,1,.374.946v2.024h1.87a1.4,1.4,0,0,1,.913.264.942.942,0,0,1,.319.77.942.942,0,0,1-.319.77,1.4,1.4,0,0,1-.913.264H62.81V-3.7q0,1.628,1.5,1.738Z" transform="translate(328 50)" fill="#343f52"/>
    </g>
  </g>
</svg>
