<svg xmlns="http://www.w3.org/2000/svg" width="1380" height="756.298" viewBox="0 0 1380 756.298">
  <g id="Group_47" data-name="Group 47" transform="translate(-2485 -151.748)">
    <path id="Rectangle_663" data-name="Rectangle 663" d="M40,0H1340a40,40,0,0,1,40,40V589a0,0,0,0,1,0,0H0a0,0,0,0,1,0,0V40A40,40,0,0,1,40,0Z" transform="translate(2485 316.252)" fill="#0a164a"/>
    <g id="Group_3" data-name="Group 3" transform="translate(2584.563 417.594)">
      <g id="Group_1" data-name="Group 1" transform="translate(0 0)">
        <path id="Path_3" data-name="Path 3" d="M183.753,201.12A32.148,32.148,0,1,1,215.9,168.972,32.185,32.185,0,0,1,183.753,201.12Zm0-54.652a22.5,22.5,0,1,0,22.5,22.5A22.528,22.528,0,0,0,183.753,146.468Z" transform="translate(95.328 164.364)" fill="#ef9926"/>
        <path id="Path_4" data-name="Path 4" d="M386.165,117.259a11.252,11.252,0,1,1,11.252-11.252A11.264,11.264,0,0,1,386.165,117.259Zm0-19.289a8.037,8.037,0,1,0,8.037,8.037A8.046,8.046,0,0,0,386.165,97.97Z" transform="translate(731.815 71.189)" fill="#ffeb97"/>
        <path id="Path_5" data-name="Path 5" d="M204.737,211.9a13.181,13.181,0,1,1,13.181-13.181A13.195,13.195,0,0,1,204.737,211.9Zm0-22.5a9.323,9.323,0,1,0,9.323,9.323A9.334,9.334,0,0,0,204.737,189.393Z" transform="translate(206.331 272.249)" fill="#ea3f3f"/>
        <ellipse id="Ellipse_1" data-name="Ellipse 1" cx="14.467" cy="14.467" rx="14.467" ry="14.467" transform="translate(947.976 293.776)" fill="#ffae1f"/>
        <ellipse id="Ellipse_2" data-name="Ellipse 2" cx="11.252" cy="11.252" rx="11.252" ry="11.252" transform="translate(240.034 135.27)" fill="#ffae1f"/>
        <ellipse id="Ellipse_3" data-name="Ellipse 3" cx="12.859" cy="12.859" rx="12.859" ry="12.859" transform="translate(817.925 63.976)" fill="#ffd522"/>
        <ellipse id="Ellipse_4" data-name="Ellipse 4" cx="12.859" cy="12.859" rx="12.859" ry="12.859" transform="translate(26.417 387.715)" fill="#ffd522"/>
        <ellipse id="Ellipse_5" data-name="Ellipse 5" cx="9.644" cy="9.644" rx="9.644" ry="9.644" transform="translate(1116.799 415.598)" fill="#ffd522"/>
        <ellipse id="Ellipse_6" data-name="Ellipse 6" cx="14.467" cy="14.467" rx="14.467" ry="14.467" transform="translate(332.884 250.123)" fill="#e54242"/>
        <ellipse id="Ellipse_7" data-name="Ellipse 7" cx="4.822" cy="4.822" rx="4.822" ry="4.822" transform="translate(723.876 0)" fill="#e54242"/>
        <ellipse id="Ellipse_8" data-name="Ellipse 8" cx="4.822" cy="4.822" rx="4.822" ry="4.822" transform="translate(101.244 364.814)" fill="#e54242"/>
        <ellipse id="Ellipse_9" data-name="Ellipse 9" cx="4.822" cy="4.822" rx="4.822" ry="4.822" transform="translate(393.397 334.942)" fill="#e54242"/>
        <ellipse id="Ellipse_10" data-name="Ellipse 10" cx="4.822" cy="4.822" rx="4.822" ry="4.822" transform="translate(842.55 281.794)" fill="#ffae1f"/>
        <ellipse id="Ellipse_11" data-name="Ellipse 11" cx="4.822" cy="4.822" rx="4.822" ry="4.822" transform="translate(404.535 28.748)" fill="#ffc91f"/>
        <ellipse id="Ellipse_12" data-name="Ellipse 12" cx="8.037" cy="8.037" rx="8.037" ry="8.037" transform="translate(590.437 60.761)" fill="#ef4b4b"/>
        <ellipse id="Ellipse_13" data-name="Ellipse 13" cx="8.037" cy="8.037" rx="8.037" ry="8.037" transform="translate(1152.769 339.765)" fill="#ef4b4b"/>
        <ellipse id="Ellipse_14" data-name="Ellipse 14" cx="8.037" cy="8.037" rx="8.037" ry="8.037" transform="translate(906.635 239.572)" fill="#e54242"/>
        <path id="Path_6" data-name="Path 6" d="M404.9,220.207l-32.838-34.352L338.608,204.06,334,195.59l39.934-21.734L405.3,206.669l52.124-48.424,6.561,7.067Z" transform="translate(641.198 211.806)" fill="#ffae1f"/>
        <path id="Path_7" data-name="Path 7" d="M344.892,199.537l-4.248-47.6,47.368-.063-14.561-51.336L427.881,97.4,413.062,59.517l11.974-4.684,21.279,54.382L390.2,112.45l14.824,52.259-50.319.066,3,33.619Z" transform="translate(655.917 -17.23)" fill="#ef4b4b"/>
        <path id="Path_8" data-name="Path 8" d="M228.3,192.47l-9.177-2.97,16.123-49.836-44.086-19.417,18.683-46.673-52.6-12.969,2.308-9.365,63.363,15.625-19.339,48.311,43.527,19.173Z" transform="translate(112.598 -25.187)" fill="#ffae1f"/>
        <path id="Path_9" data-name="Path 9" d="M157.683,194.461l-26.637-56.055-33.1,48.324L87.34,179.463,133.068,112.7l28.052,59.034,29.525-32.095,26.886,44.674-11.016,6.631-18.033-29.96Z" transform="translate(-87.34 110.929)" fill="#ffe669"/>
        <path id="Path_10" data-name="Path 10" d="M145.911,137.194c-28.226-18.7-19.112-57.22-18.71-58.853l9.368,2.3c-.084.334-7.86,33.585,14.669,48.515Z" transform="translate(-2.86 34.836)" fill="#ffae1f"/>
        <path id="Path_11" data-name="Path 11" d="M388.077,149.451l-8.326-4.864c17.074-29.239,56.05-22.317,57.7-22.005l-1.768,9.48C435.338,132,401.708,126.115,388.077,149.451Z" transform="translate(742.53 130.757)" fill="#ffae1f"/>
        <path id="Path_12" data-name="Path 12" d="M176.974,198.478l-9.04-3.359c.125-.334,12.917-33.415,52.07-29.178l-1.032,9.59C187.162,172.11,177.07,198.215,176.974,198.478Z" transform="translate(141.088 228.022)" fill="#ffae1f"/>
        <path id="Path_13" data-name="Path 13" d="M326.035,232.483l-8.94-3.61c4.06-10.059,4.433-18.781,1.106-25.924-5.009-10.747-16.669-14.653-16.788-14.692l2.99-9.169c.64.209,15.781,5.282,22.539,19.787C331.446,208.539,331.14,219.845,326.035,232.483Z" transform="translate(516.21 257.97)" fill="#cc3232"/>
        <path id="Path_14" data-name="Path 14" d="M208.209,104.23l-4.642-8.448c9.471-5.2,15.267-11.7,17.228-19.3,2.938-11.4-3.636-21.989-3.7-22.1l8.124-5.2c.366.566,8.886,14.071,4.948,29.583C227.54,89.1,220.155,97.671,208.209,104.23Z" transform="translate(240.269 -29.73)" fill="#cc3232"/>
        <path id="Path_15" data-name="Path 15" d="M365.96,194.807c-41.13-7.77-50.958-45.435-51.356-47.036l9.365-2.327-4.684,1.164,4.681-1.177c.341,1.357,8.85,33.3,43.786,39.9Z" transform="translate(556.958 183.426)" fill="#ef4b4b"/>
        <path id="Path_16" data-name="Path 16" d="M310.8,150.892c-5.407,3.658,55.88-4.719,83.064-77.666,2.247-6.025-25.7-25.834-32.486-17.726S374.183,107.971,310.8,150.892Z" transform="translate(549.83 -20.008)" fill="#ffae1f"/>
      </g>
    </g>
    <g id="Group_5" data-name="Group 5" transform="translate(2484.662 519.103)">
      <g id="Group_13" data-name="Group 13" transform="translate(449.153 0)">
        <path id="Path_48" data-name="Path 48" d="M910.494,1143.585c-2.216-7.128-1.224-14.741-6-21.133-1.688-2.259-3.439-3.469-5.006-5.931-2.522-3.964-8.368-9.919-10.184-12.391a1.592,1.592,0,0,1-.48-1.191,2.49,2.49,0,0,1,2.436-1.576,4.11,4.11,0,0,1,2.416,1.074c2.664,1.909,7.7,6.39,8.821,5.215,1.327-1.386,1.121-5.23-1.188-12.262s-6.41-17.425-3.869-17.793,9.641,19.016,10.744,18.966.527-23.235,3.1-24.267,2.342,21.715,3.145,22.721,6.452-20.911,8.712-20.29c2.982.82-3.458,19.862-2.379,21.36s6.8-13.017,9.476-13.864-.423,8.993-2.857,14.178c-1.839,3.918-1.7,16.169-1.515,18.971s-2.19,8.128-1.421,12.546,2.421,6.04,2.421,6.04Q918.679,1138.77,910.494,1143.585Z" transform="translate(-727.678 -1037.911)" fill="#f8a492"/>
        <path id="Path_49" data-name="Path 49" d="M878.5,1253.646l40.278-15.66-16.93-76.818,23.49-7.83s22.432,89.728,22.856,95.653-48.038,50.789-48.038,50.789Z" transform="translate(-724.26 -1064.796)" fill="#8282a8"/>
        <g id="Group_8" data-name="Group 8" transform="translate(0 31.915)">
          <path id="Path_50" data-name="Path 50" d="M695.9,1132.655c-.815-3.87-2.51-7.49-3.77-11.239a24.513,24.513,0,0,1-1.285-10.14c.374-2.8,1.313-4.706,1.481-7.618a42.65,42.65,0,0,1,.776-5.493c.375-1.974.807-3.935,1.231-5.9.314-1.453.664-2.914.849-4.391a1.593,1.593,0,0,0-.161-1.274,1.739,1.739,0,0,0-1.1-.531,2.913,2.913,0,0,0-1.8.342,4.118,4.118,0,0,0-1.586,2.115c-.692,1.471-1.291,2.985-1.955,4.47a15.453,15.453,0,0,1-2.085,3.791c-.26.3-.674.729-1.121.592-1.834-.564-3.527-4.021-4.938-11.287s-2.892-18.341-5.291-17.424.847,21.3-.141,21.8-11.78-20.034-14.531-19.681,8.535,20.1,8.323,21.373-15.823-15.118-17.494-13.473c-2.2,2.169,12.7,15.66,12.486,17.494s-12.7-3.244-15.448-2.681,4.585,5.361,8.676,6.772,10.51,12.7,11.71,15.237,5.873,6.031,7.354,10.264.829,6.454.829,6.454Q686.4,1132.437,695.9,1132.655Z" transform="translate(-647.737 -1068.616)" fill="#f8a492"/>
          <g id="Group_7" data-name="Group 7" transform="translate(24.75 50.923)">
            <g id="Group_5-2" data-name="Group 5" transform="translate(143.559 224.426)">
              <path id="Path_51" data-name="Path 51" d="M904.76,1557.869c0,.017,0,.04.006.069Z" transform="translate(-901.277 -1506.205)" fill="#f7cc7f"/>
              <path id="Path_52" data-name="Path 52" d="M933.654,1486.864c-1.12-2.255-2.184-4.337-3.206-6.292-9.384,3.241-19.99,6.839-30.9,10.549l3.483,41.115c-.029-.854,3.325,12.468,6.984,27.222H951.06C947.265,1533.892,941.222,1502.169,933.654,1486.864Z" transform="translate(-899.549 -1480.573)" fill="#b1b1de"/>
            </g>
            <path id="Path_53" data-name="Path 53" d="M874.512,1496.356c-18.176,6.181-34.862,12.107-50.466,17.775,3.173,14.918,7.313,33.887,10.875,50.562h52.969c.524-17.676.153-36.52-1.657-52.107Z" transform="translate(-730.953 -1261.381)" fill="#d6d6ed"/>
            <path id="Path_54" data-name="Path 54" d="M865.535,1303.7l-12.955.07s-22.938,1.26-27.144,1.8c-.365.046-7.309,82.06-7.736,112.665a280.863,280.863,0,0,0,4.512,54.568s29.358-.818,49.731-5.078c21.185-4.43,48.673-14.814,48.673-14.814s-32.306-73.3-38.072-90.954S865.535,1303.7,865.535,1303.7Z" transform="translate(-728.84 -1197.495)" fill="#fbf3ff"/>
            <path id="Path_55" data-name="Path 55" d="M915.884,1363.045,885.4,1302.567l-15.66.706s14.1,24.255,22.287,48.45S934.078,1466.1,934.078,1466.1s12.233.288,14.6-7.3S915.884,1363.045,915.884,1363.045Z" transform="translate(-746.105 -1197.119)" fill="#8282a8"/>
            <path id="Path_56" data-name="Path 56" d="M781.466,1252.871l-43.747-46.284s-30.5-59.271-31.32-61.3c-.8-1.991-16.584,2.615-21.585,5.644-1.348.815,26.241,75.477,26.241,75.477l35.574,44.994s15.346,26.144,15.981,47.674c1.056,35.758-4.151,102.651-2.459,104,10.083,4.8,44.441,12.7,49.943,0C829.2,1378.984,781.466,1252.871,781.466,1252.871Z" transform="translate(-684.766 -1144.803)" fill="#8282a8"/>
            <path id="Path_57" data-name="Path 57" d="M822.88,1269.287l4.386,23.64s17.447,28.808,26.1,24.557c7.259-3.567,1.245-25.687,1.245-25.687s-2.284-5.128-4.156-10.965c-1.309-4.078-2.416-8.5-2.4-11.764C848.082,1261.137,822.88,1269.287,822.88,1269.287Z" transform="translate(-730.566 -1184.86)" fill="#f7a491"/>
            <path id="Path_58" data-name="Path 58" d="M850.315,1269.1c.031-7.93-20.606.488-20.606.488l.011,2.32a12.729,12.729,0,0,0,2.922,3.442,28.654,28.654,0,0,0,20.064,5.477C851.4,1276.759,850.3,1272.352,850.315,1269.1Z" transform="translate(-732.831 -1184.893)" fill="#f47458"/>
            <g id="Group_6" data-name="Group 6" transform="translate(68.662 19.982)">
              <path id="Path_59" data-name="Path 59" d="M854.509,1196.413s7.028,14.238,6.264,25.366a57.736,57.736,0,0,1-4.067,18.366l-23.665-36.97Z" transform="translate(-802.597 -1181.899)" fill="#333343"/>
              <path id="Path_60" data-name="Path 60" d="M817.734,1208.38c-.622-.218-4.674,31.94,3.678,40.7s24.485,11.5,30.2,4.483c6.317-7.759,5.668-42.275-7.271-51.243S817.734,1208.38,817.734,1208.38Z" transform="translate(-797.015 -1182.911)" fill="#f7a491"/>
              <path id="Path_61" data-name="Path 61" d="M808.4,1179.929c-7.912,5.328-11.94,9.444-18.172,19.917-7.663,12.878,2.271,28.507,11.4,35.381s9.049,14.649,9.049,14.649l1.424-3.906c1.027-3.16-3.567-16.93-4.411-18.685-2.224-4.627-2.652-5.623-.765-9.508,1.453-2.992,1.115-10.04,3.4-14.984l13.621-1.163s8.549-.933,13.355-5.229C851.106,1184.066,829.309,1165.552,808.4,1179.929Z" transform="translate(-787.494 -1174.698)" fill="#333343"/>
              <path id="Path_62" data-name="Path 62" d="M816.438,1242.22c1.182,3.737.378,7.324-1.794,8.011s-4.89-1.786-6.071-5.523-.378-7.323,1.794-8.011S815.257,1238.483,816.438,1242.22Z" transform="translate(-794.303 -1195.219)" fill="#f7a491"/>
            </g>
          </g>
        </g>
        <g id="Group_9" data-name="Group 9" transform="translate(231.147 0)">
          <path id="Path_63" data-name="Path 63" d="M1166,1197.031s5.682-63.267,7.02-76.057-4.9-54.4-5.086-56.21-21.034-14.108-18.735-16.045,10.325,6.822,12.5,4.2-2.046-31.3.155-30.88c4.12.787,3.281,17.457,5.276,17.478s-.791-17.478,2.543-18.6,1.036,16.8,2.5,17.546,4.5-16.578,7.544-14.743c1.655,1-3.083,15.341-.8,15.314s7.669-10.457,9.461-9.132-5.731,8.157-5.937,14.264-3.619,10.417-1.006,20.22,17.765,45.009,16.345,65.792-6.2,65-6.2,65Z" transform="translate(-1045.115 -1020.868)" fill="#f48c7f"/>
          <path id="Path_64" data-name="Path 64" d="M1174.477,1199.608l33.964,7.3-1.27,73.64-29.837-10.475Z" transform="translate(-1053.556 -1080.14)" fill="#8282a8"/>
          <path id="Path_65" data-name="Path 65" d="M996.4,1234.211c10.377,29.911,42.468,21.865,42.48,21.867.922.124,4.058,2.788,6.92,4.083,12.133,5.491,27.406,6.469,37.235-2.394,18.895,6.6,39.862-7.689,41.051-24.445,12.3-5.793,12.8-17.887,9.849-31.564,5.656-17.175-12.938-35.586-30.324-37.263a33.225,33.225,0,0,0-24.765,8.17c-14.106-7.462-31-3.146-40.734,9.744C1007.3,1167.983,985.535,1202.907,996.4,1234.211Z" transform="translate(-993.564 -1068.45)" fill="#ff7685"/>
          <path id="Path_66" data-name="Path 66" d="M1251.217,1547.433H1302.2c-.214-1.783-.389-3.1-.5-3.877-1.841-13.173-90.115-99.247-90.115-99.247l-44.888,47.132s28.511,21.639,39.2,29.67C1212.49,1526.064,1234.815,1538.306,1251.217,1547.433Z" transform="translate(-1050.978 -1161.284)" fill="#333343"/>
          <path id="Path_67" data-name="Path 67" d="M1206.449,1546.379c7.564-34.224,12.826-66.355,12.8-66.347,2.775-8.44-1.282-26.452-1.282-26.452l-46.674-12.449c.187.056,0,1.91-.02,2.055-1.785,17.395-16.42,38.785-21.437,69.266-1.478,8.975-1.6,21.9-1.25,33.928Z" transform="translate(-1044.916 -1160.23)" fill="#3e3d51"/>
          <path id="Path_68" data-name="Path 68" d="M1209.947,1337.55c-.58-9.636.611-29.981-.242-33.086q.051-.381.114-.772l-35.431-24.789c-.122-.016.348-.08-.845.077-7.727,1.022-33.767,8.911-38.581,11.186l.889,33.043c2.862,1.436,23.773,88.863,18.2,97.769-2.726,4.355,68.688,1.754,70.681-6.772C1225.595,1410.51,1211.117,1357.028,1209.947,1337.55Z" transform="translate(-1040.453 -1106.426)" fill="#b1b1de"/>
          <path id="Path_69" data-name="Path 69" d="M1164.577,1261.127s2.97,15.052,3.244,21.09,7.585,24.534,19.666,22.911-.184-24.954-2.137-30.635-5.686-23.508-5.686-23.508Z" transform="translate(-1050.273 -1097.176)" fill="#f7a491"/>
          <path id="Path_70" data-name="Path 70" d="M1181.576,1259.737c-2.92,4.855-8.167,7.957-15.949,7-.582-3.239-1.05-5.613-1.05-5.613l15.087-10.142S1180.494,1254.951,1181.576,1259.737Z" transform="translate(-1050.273 -1097.176)" fill="#f47458"/>
          <path id="Path_71" data-name="Path 71" d="M1141.939,1199.009a22.3,22.3,0,0,0-7.367,13.467c-1.261,8.686,4.513,29.84,22.4,32.639s22.937-15.3,17.539-28.137S1159.065,1188.326,1141.939,1199.009Z" transform="translate(-1040.268 -1078.772)" fill="#f7a491"/>
          <path id="Path_72" data-name="Path 72" d="M1192.818,1218.624c.155,3.407-1.261,6.226-3.163,6.3s-3.569-2.635-3.722-6.043,1.261-6.225,3.163-6.295S1192.665,1215.217,1192.818,1218.624Z" transform="translate(-1057.352 -1084.441)" fill="#f7a491"/>
          <path id="Path_73" data-name="Path 73" d="M1141.91,1192.995s.269,26.668-7.175,32.527-2.427,17.005-2.427,17.005-11.121-25.954-5.925-35.516S1141.91,1192.995,1141.91,1192.995Z" transform="translate(-1037.15 -1077.947)" fill="#ff7685"/>
          <path id="Path_74" data-name="Path 74" d="M1143.115,1247.623c2.3,2.675,2.782,6.143,1.067,7.745s-4.972.734-7.275-1.941-2.781-6.142-1.067-7.745S1140.812,1244.948,1143.115,1247.623Z" transform="translate(-1040.403 -1095.151)" fill="#f7a491"/>
          <path id="Path_75" data-name="Path 75" d="M1104.7,1208.033s-29.673-53.573-36.9-64.965-25.978-56.614-26.647-58.4,13.177-23.071,10.113-23.818-6.517,11.229-9.783,9.78-12.685-30.362-14.557-28.939c-3.5,2.663,5.066,17.932,3.2,18.883s-7.414-16.791-11.07-16.287,6.869,16.269,5.84,17.651-11.962-13.476-13.969-10.33c-1.09,1.708,10.056,12.974,7.9,14.013s-12.084-6.245-13.149-4.163,9.19,4.989,12.234,10.629,8.261,8.1,10.383,18.526,5.183,48.142,16.216,67,35.294,60.609,35.294,60.609Z" transform="translate(-997.556 -1027.757)" fill="#f48c7f"/>
          <path id="Path_76" data-name="Path 76" d="M1141.272,1266.135c-8.58-10.484-30.428-38.759-30.428-38.759s-22.289,15.081-24.7,23.021c0,0,40.441,61.011,37.455,62.213C1123.6,1312.611,1144.174,1269.682,1141.272,1266.135Z" transform="translate(-1024.265 -1089.348)" fill="#b1b1de"/>
        </g>
        <g id="Group_12" data-name="Group 12" transform="translate(161.597 44.742)">
          <path id="Path_77" data-name="Path 77" d="M1065.571,1243.91c-4.673-12.78-4.446-51.03-15.66-60.947-11-9.726-35.285-12.826-47.083-3.989-10.976,8.22-15.24,22.771-19.68,36.185-2.844,8.592-6.428,13.846-13.773,19-12.808,8.995-48.925,22.468-60.106,33.176-20.624,19.752-16.063,58.952-5.079,73.652,51.747,69.257,122.451,27.068,132.176-18.357C1039.738,1306.892,1085.272,1297.788,1065.571,1243.91Z" transform="translate(-891.288 -1116.31)" fill="#333343"/>
          <path id="Path_78" data-name="Path 78" d="M947.443,1233.093l-24.533-13.9c.711-2.351,1.289-4.329,1.69-5.809,4.215-15.558,28.959-68.558,29.989-70.585s30.966-6.989,29.153-10.292-15.067-.4-15.7-2.138c-1.465-4.009,15.728-34.267,12.965-34.77-5.173-.941-11.723,18.927-14.064,18.05s8.822-20.077,5.43-22.893-8.8,19.175-10.852,19.384,2.234-21.414-2.159-20.645c-2.385.418-3.327,19.328-5.982,18.265s-4.24-15.69-6.934-14.95,2.91,14.622.392,21.854-.373,11.317-7.855,21.6-53.838,81.364-49.138,93.9c3.816,10.176,41.4,30.853,45.5,30.374C951.057,1258.7,947.443,1233.093,947.443,1233.093Z" transform="translate(-889.508 -1088.361)" fill="#f7a491"/>
          <g id="Group_11" data-name="Group 11" transform="translate(30.093)">
            <g id="Group_10" data-name="Group 10" transform="translate(155.509)">
              <path id="Path_79" data-name="Path 79" d="M1262.529,1141.862a153.064,153.064,0,0,0-5.358-35.075c-.529-1.774-9.51-12.719-10.289-13.783s-7.3-6.074-8.16-2.142c-.248,1.13,5.418,6.812,7.534,9.016-1.728-2.222-10.221-8.707-11.714-8.149-2.9,1.079,6.417,11.425,9.412,14.1,2.4,2.139,1.632,10.9,1.229,14.324-.142,1.208-1.168,4.454-.783,3.3.072-.211-1.922-5.29-2.676-8-.5-1.785-1.825-2.631-2.8-1.7-2.413,2.318-.423,17.977.694,20.226a90.176,90.176,0,0,0,5.867,9.078s-10.681,77.315-13.433,78.585c-6.437,2.972-64.276,19.292-64.276,19.292s-1.421,36.473.156,35.518,81.262-28.146,86.362-34.726c7.376-9.517,9.152-52.613,7.967-81.379C1262.207,1148.992,1262.537,1141.91,1262.529,1141.862Z" transform="translate(-1167.193 -1088.328)" fill="#f79c8d"/>
              <path id="Path_80" data-name="Path 80" d="M1289.958,1138.034l.811.847a3.659,3.659,0,0,1-.036,3.033c-.45.88-1.069.924-4.832,1.481-2.723.4-6.208-.07-11.427-.846Z" transform="translate(-1202.768 -1104.463)" fill="#f47458"/>
              <path id="Path_81" data-name="Path 81" d="M1284.689,1121.995l-11.611-32.864a2.059,2.059,0,0,0-2.58-1.22l-1.291.432-.015.008,0-.009-11.691,4.395a1.614,1.614,0,0,0-.978,2.1l12.527,31.9,11.2-1.262h0l3.165-1.02A1.925,1.925,0,0,0,1284.689,1121.995Z" transform="translate(-1196.778 -1087.807)" fill="#3e3d51"/>
              <path id="Path_82" data-name="Path 82" d="M1270.995,1125.514a29.066,29.066,0,0,0-2.821,8.817c-.705,4.938,7.513,16.542,8.993,17.67s1.376-5.89,1.376-5.89.988-6.348-.565-7.125-3.949-3.6-3.949-3.6S1275.44,1120.647,1270.995,1125.514Z" transform="translate(-1200.665 -1099.984)" fill="#f79c8d"/>
              <path id="Path_83" data-name="Path 83" d="M1290.372,1112.409l-2.751-6.349s-6.348-11.532-10.158-9.946,7.513,12.062,7.513,12.062a183.5,183.5,0,0,1,6.86,19.24l1.71-3.474Z" transform="translate(-1203.5 -1090.512)" fill="#f79c8d"/>
            </g>
            <path id="Path_84" data-name="Path 84" d="M1097.663,1578.51l-10.942-32.232-79.353-8.253s-14.824,27.719-19.619,40.485Z" transform="translate(-952.179 -1237.103)" fill="#ff7685"/>
            <path id="Path_85" data-name="Path 85" d="M1127.318,1336.76l-10.793-38.3-65.314,8.058s-18.343-1.176-28.222-.862c-7,.222-49.144-8.654-75.685-15.221-.152.351-8.117,25.8-12.773,34.69,19.922,9.97,35.159,14.866,48.884,26.664.008.05,1.75,56.492,3.14,91.116-2.983,8.606-10.484,26.034-10.484,26.034s24.44,13.967,61.579,10.792a198.641,198.641,0,0,0,38.407-6.983s-6.853-24.79-8.685-39.259c7.979-35.488,20.8-82.758,20.8-82.758Z" transform="translate(-934.531 -1154.999)" fill="#fbf3ff"/>
            <path id="Path_86" data-name="Path 86" d="M1072.3,1266.262s-2.1,24.193-4.8,30.9-2.291,30.816,12.3,35.168,14.327-26.59,14.931-33.757,1.27-30.614,1.27-30.614Z" transform="translate(-978.198 -1146.984)" fill="#f7a491"/>
            <path id="Path_87" data-name="Path 87" d="M1074.23,1273.6a26.456,26.456,0,0,0,5.247,4.369c7.067,4.5,13.546,4.437,18.809,1.745.226-6.389.378-11.762.378-11.762l-23.7-1.693S1074.7,1269.339,1074.23,1273.6Z" transform="translate(-980.856 -1146.984)" fill="#f47458"/>
            <path id="Path_88" data-name="Path 88" d="M1078.137,1192.442a25.29,25.29,0,0,0-14.2,10.248c-5.419,8.269-9.354,34.278,8.493,45.642s31.945-6.375,32.175-22.053S1101.482,1189.676,1078.137,1192.442Z" transform="translate(-975.931 -1122.423)" fill="#f7a491"/>
            <path id="Path_89" data-name="Path 89" d="M1130.589,1229.147c-.388,4.06-2.621,7.167-4.986,6.94s-3.966-3.7-3.577-7.76,2.621-7.166,4.985-6.941S1130.978,1225.088,1130.589,1229.147Z" transform="translate(-996.687 -1132.099)" fill="#f7a491"/>
            <path id="Path_90" data-name="Path 90" d="M1077.417,1189.474s-11.189,25.1-21.019,27.337-9.687,14.869-9.687,14.869.22-29.161,9.432-35.85S1077.417,1189.474,1077.417,1189.474Z" transform="translate(-971.731 -1121.52)" fill="#333343"/>
            <path id="Path_91" data-name="Path 91" d="M1062.26,1236.274c1.294,4.076.11,8.088-2.645,8.963s-6.037-1.721-7.331-5.8-.11-8.089,2.645-8.963S1060.966,1232.2,1062.26,1236.274Z" transform="translate(-973.405 -1135.062)" fill="#f7a491"/>
          </g>
          <path id="Path_92" data-name="Path 92" d="M997.67,1150.052s-9.789-6.507-15.447,2.018C982.223,1152.07,989.4,1146.549,997.67,1150.052Z" transform="translate(-920.253 -1107.66)" fill="#f47458"/>
        </g>
      </g>
    </g>
    <g id="Group_46" data-name="Group 46" transform="translate(768.639 -205.719)">
      <path id="Path_133" data-name="Path 133" d="M2410.682,357.467c4.518,2.034,9.7,3.27,13.372,6.322a37.413,37.413,0,0,1,9.259,12.435c11,22.942,31.824,32.972,56.83,26.875,14.894-3.631,27.94,2.057,34.292,15.1,4.014,8.239,4.2,16.652-.005,24.84-4.156,8.084-7.2,16.352-6.94,25.621.426,15.028,6.354,27.325,18.28,36.474,6.432,4.934,11.705,10.4,13.579,18.65,3.517,15.486-5.871,31.188-21.389,34.474-10.78,2.282-20.625,6-28.393,14.089-9.23,9.616-13.87,21.13-13.311,34.446.458,10.905-2.631,20.021-11.625,26.667-10.659,7.876-24.639,7.841-34.862-.582-7.8-6.426-16.042-11.573-26.254-13.009-13.764-1.936-26.105,1.311-36.833,10.157-5.331,4.4-10.833,8.075-17.956,8.995-16.453,2.126-32.094-10.972-32.091-27.561,0-9.81-.616-19.357-5.448-28.146-7.225-13.145-18.149-21.4-32.927-24.149-13.052-2.424-21.853-9.491-24.784-22.6-2.493-11.155.52-21.02,9.657-28.2,7.635-6,14.552-12.443,18.313-21.6,5.577-13.578,5.454-27.109-1.48-40.136-5.26-9.882-6.439-19.62-1.01-29.709a27.844,27.844,0,0,1,31.186-14.262c10.31,2.457,20.467,3.551,30.7.016,12.074-4.169,21.711-11.595,26.822-23.315,4.93-11.305,12.094-19.236,24.4-21.887Zm-4.4,241.045c51.81.123,94.558-42.576,94.558-94.449,0-51.846-42.067-93.988-94.186-94.354-51.832-.364-94.178,41.726-94.732,94.161C2311.377,555.308,2354.33,598.388,2406.28,598.512Z" transform="translate(0 0)" fill="#ffcb4a"/>
      <path id="Path_134" data-name="Path 134" d="M2321.656,672.656c2.562,2.28,4.969,4.769,7.711,6.81,17.788,13.244,40.323,12.759,57.651-1.049,2.789-2.222,5.763-4.223,8.746-6.183a30.594,30.594,0,0,1,4.512-1.939c-.535,1.527-.794,2.5-1.2,3.4q-17.767,39.3-35.561,78.579c-.295.652-.55,1.328-.908,1.945-2.182,3.786-6.382,3.842-8.431-.051-2.5-4.747-4.7-9.652-7.069-14.472-5.753-11.716-15.549-16.183-28.093-12.8-5.066,1.369-10.066,3.04-15.193,4.1a6.633,6.633,0,0,1-5.346-1.447c-.953-1.007-1.076-3.719-.433-5.177,7.559-17.136,15.33-34.178,23.057-51.238C2321.177,672.962,2321.419,672.855,2321.656,672.656Z" transform="translate(-3.609 -32.256)" fill="#ffae1f"/>
      <path id="Path_135" data-name="Path 135" d="M2512.5,672.066c5.355,11.828,10.461,23.107,15.569,34.384,2.559,5.65,5.317,11.224,7.566,17,.716,1.839.891,4.882-.161,6.139-1.04,1.242-4.08,1.573-6,1.169-5.825-1.226-11.478-3.261-17.3-4.506a21.41,21.41,0,0,0-23.905,10.994c-2.863,5.225-5.114,10.788-8.022,15.986-.907,1.622-3.073,3.534-4.638,3.512s-3.826-1.958-4.582-3.605c-12.34-26.886-24.492-53.859-36.675-80.817-.185-.409-.231-.881.238-2.142,3.154,1.93,6.571,3.54,9.41,5.858,6.551,5.346,13.407,9.973,21.82,11.781,17,3.653,31.577-1.064,44.059-12.886C2510.651,674.2,2511.324,673.36,2512.5,672.066Z" transform="translate(-17.692 -32.244)" fill="#ffae1f"/>
      <path id="Path_137" data-name="Path 137" d="M2432.037,435.205c51.929-.147,94.7,42.5,94.918,94.628.216,52.331-42.281,94.983-94.744,95.087a94.921,94.921,0,0,1-94.935-94.469C2337.086,478.237,2379.751,435.351,2432.037,435.205Z" transform="translate(-25.466 -26.41)" fill="#0a164a"/>
      <path id="Path_139" data-name="Path 139" d="M2419.656,435.2c45.144-.128,82.33,36.944,82.517,82.264a82.448,82.448,0,0,1-164.9.537C2337.11,472.615,2374.2,435.332,2419.656,435.2Z" transform="translate(-13.074 -14.017)" fill="#ffcb4a"/>
      <path id="Path_138" data-name="Path 138" d="M2414.9,535.827c13.1-9.56,25.842-18.857,38.582-28.154,4.674-3.411,9.286-6.914,14.038-10.214,5.78-4.013,12.872-2.967,16.66,2.278,3.635,5.034,2.558,12.087-3,16.185q-30.775,22.7-61.786,45.082c-6.083,4.379-12.027,3.592-16.546-2.4-6.682-8.857-12.982-18.018-19.1-27.276a11.377,11.377,0,0,1,18.774-12.817C2406.715,523.956,2410.536,529.685,2414.9,535.827Z" transform="translate(-27.613 -20.301)" fill="#0a164a"/>
    </g>
  </g>
</svg>
