<svg xmlns="http://www.w3.org/2000/svg" width="70.841" height="76.299" viewBox="0 0 70.841 76.299">
  <g id="Group_335" data-name="Group 335" transform="translate(-641.5 -256.35)">
    <g id="email" transform="translate(641.5 256.35)">
      <path id="Path_813" data-name="Path 813" d="M88.12,35.905,52.62,0l-34.8,35.905L52.972,68.924Z" transform="translate(-17.552)" fill="#062243"/>
      <path id="Path_814" data-name="Path 814" d="M108.425,59.158H58.858a4.33,4.33,0,0,1-4.33-4.33V4.33A4.33,4.33,0,0,1,58.858,0h49.567a4.33,4.33,0,0,1,4.33,4.33v50.5A4.33,4.33,0,0,1,108.425,59.158Z" transform="translate(-48.073 0)" fill="#e5eeff"/>
      <g id="Group_328" data-name="Group 328" transform="translate(27.044 43.216)">
        <path id="Path_815" data-name="Path 815" d="M192.664,258.882H177.919a1.152,1.152,0,1,1,0-2.3h14.745a1.152,1.152,0,1,1,0,2.3Z" transform="translate(-176.767 -256.578)" fill="#155093"/>
      </g>
      <g id="Group_331" data-name="Group 331" transform="translate(11.532 25.513)">
        <g id="Group_329" data-name="Group 329" transform="translate(14.095)">
          <path id="Path_816" data-name="Path 816" d="M172.74,156.4h-2.082v-1.948h2.361a1.152,1.152,0,1,0,0-2.3h-3.513a1.152,1.152,0,0,0-1.152,1.152v8.668a1.152,1.152,0,1,0,2.3,0v-3.264h2.082a1.152,1.152,0,0,0,0-2.3Z" transform="translate(-168.354 -152.037)" fill="#155093"/>
          <path id="Path_817" data-name="Path 817" d="M225.87,156.4h-2.082v-1.948h2.361a1.152,1.152,0,0,0,0-2.3h-3.513a1.152,1.152,0,0,0-1.152,1.152v8.668a1.152,1.152,0,1,0,2.3,0v-3.264h2.082a1.152,1.152,0,0,0,0-2.3Z" transform="translate(-212.535 -152.037)" fill="#155093"/>
          <path id="Path_818" data-name="Path 818" d="M275.584,160.363H273.09v-2.022h2.225a1.152,1.152,0,1,0,0-2.3H273.09v-2.022h2.494a1.152,1.152,0,1,0,0-2.3h-3.646a1.152,1.152,0,0,0-1.152,1.152v8.653a1.152,1.152,0,0,0,1.152,1.152h3.646a1.152,1.152,0,0,0,0-2.3Z" transform="translate(-253.533 -151.671)" fill="#155093"/>
          <path id="Path_819" data-name="Path 819" d="M331.2,158.146a3.441,3.441,0,0,0,2.445-3.251,3.492,3.492,0,0,0-3.55-3.422h-2.323a1.152,1.152,0,0,0-1.152,1.152v8.733a1.152,1.152,0,0,0,2.3,0v-2.312l2.7,3.073a1.152,1.152,0,0,0,1.73-1.522Zm-1.105-4.368a1.124,1.124,0,1,1,0,2.235l-1.159,0c0-.422,0-.859,0-1.121,0-.224,0-.675,0-1.118Z" transform="translate(-299.962 -151.474)" fill="#155093"/>
        </g>
        <g id="Group_330" data-name="Group 330" transform="translate(0 0.082)">
          <path id="Path_820" data-name="Path 820" d="M90.189,163a5.518,5.518,0,1,1,5.518-5.518A5.525,5.525,0,0,1,90.189,163Zm0-8.733a3.214,3.214,0,1,0,3.214,3.214A3.218,3.218,0,0,0,90.189,154.264Z" transform="translate(-84.67 -151.96)" fill="#155093"/>
        </g>
      </g>
      <path id="Path_821" data-name="Path 821" d="M87.045,212.7v35.344a4.434,4.434,0,0,1-4.434,4.434H20.639a4.434,4.434,0,0,1-4.434-4.434V212.717a.845.845,0,0,1,1.27-.73L50.9,231.439a1.319,1.319,0,0,0,.134.068,1.446,1.446,0,0,0,1.326-.068l1.568-.912L85.789,211.98A.836.836,0,0,1,87.045,212.7Z" transform="translate(-16.205 -176.18)" fill="#155093"/>
      <g id="Group_333" data-name="Group 333" transform="translate(27.532 4.278)">
        <g id="Group_332" data-name="Group 332" transform="translate(4.209)">
          <path id="Path_822" data-name="Path 822" d="M211.159,31.642h-5.35a1.152,1.152,0,0,1-1.152-1.152v-2.38a2.712,2.712,0,0,1,2.708-2.708H209.6a2.712,2.712,0,0,1,2.708,2.708v2.38A1.152,1.152,0,0,1,211.159,31.642Zm-4.2-.6h3.046v-2.93a.4.4,0,0,0-.4-.4h-2.237a.4.4,0,0,0-.4.4v2.93Z" transform="translate(-204.657 -25.401)" fill="#72b4ff"/>
        </g>
        <path id="Path_823" data-name="Path 823" d="M194.39,67.047H181.014a1.348,1.348,0,0,1-1.348-1.348V56.963a1.348,1.348,0,0,1,1.348-1.348H194.39a1.348,1.348,0,0,1,1.348,1.348V65.7A1.348,1.348,0,0,1,194.39,67.047Z" transform="translate(-179.666 -50.526)" fill="#5391d8"/>
      </g>
      <g id="Group_334" data-name="Group 334" transform="translate(34.824 54.347)">
        <path id="Path_824" data-name="Path 824" d="M251.125,338.706a1.154,1.154,0,0,1-1.574.416l-26.588-15.477a1.446,1.446,0,0,0,1.326-.068l1.568-.912,24.853,14.465A1.152,1.152,0,0,1,251.125,338.706Z" transform="translate(-222.962 -322.665)" fill="#e5eeff"/>
      </g>
    </g>
  </g>
</svg>
