<svg xmlns="http://www.w3.org/2000/svg" width="147.942" height="154.396" viewBox="0 0 147.942 154.396">
  <g id="Group_1144" data-name="Group 1144" transform="translate(1143.791 -302.964)">
    <path id="Path_786" data-name="Path 786" d="M-1069.957,457.323q-35.294,0-70.588.037c-2.342.006-3.248-.78-3.245-3.132q.056-45.166,0-90.333a4.522,4.522,0,0,1,1.88-3.761c6.436-5.38,12.783-10.866,19.234-16.228,1.318-1.1,2.128-2.194,1.815-3.941-.546-3.053.745-5.191,2.97-7.281,6.294-5.912,12.393-12.033,18.508-18.132,1.132-1.129,2.272-1.87,3.89-1.6,6.593,1.087,11.692-1.233,16.451-5.92,5.481-5.4,12.936-5.432,18.4-.026,4.832,4.784,10.022,6.549,16.7,6.059,7.037-.516,14.142-.116,21.217-.115,3.822,0,3.946.116,3.948,3.827,0,7.734.061,15.468-.045,23.2a4.546,4.546,0,0,0,1.852,3.951c6.446,5.367,12.8,10.848,19.246,16.212a4.742,4.742,0,0,1,1.879,4.013q-.056,44.8-.034,89.592c0,3.233-.372,3.583-3.487,3.582Q-1034.663,457.321-1069.957,457.323Z" fill="#155093"/>
    <path id="Path_787" data-name="Path 787" d="M-1081.951,395.293c-7.706-4.286-7.706-4.286-7.706-12.9,0-9.053.048-18.107-.041-27.159-.018-1.874.392-2.565,2.418-2.512,5.51.145,11.029-.03,16.54.083,2.379.049,3.218-.87,3.175-3.2-.1-5.43.019-10.864-.067-16.294-.026-1.624.29-2.286,2.128-2.281q34.072.093,68.145,0c1.772,0,2.173.562,2.168,2.239q-.081,27.652-.031,55.306c0,.994.028,1.878-1.03,2.547-8.96,5.669-17.886,11.394-26.821,17.1-3.271,1.164-6.665.485-10,.658-2.246.117-4.595-.452-6.562,1.286-.454.4-1.26.219-1.9.01h-1.808c-2.231.665-2.785-.611-2.813-2.453-.078-5.018-.007-10.036-.037-15.054-.02-3.376-.142-3.513-3.436-3.517q-13.821-.019-27.642,0c-3.223.007-3.179.04-3.43,3.315C-1080.783,393.508-1080.339,394.891-1081.951,395.293Z" transform="translate(-27.38 -14.208)" fill="#fefefe"/>
    <path id="Path_788" data-name="Path 788" d="M-1128.433,552.616c7.171-6.09,13.992-11.886,20.816-17.678q19-16.125,38-32.25c5.4-4.589,9.533-4.684,14.891-.149q28.623,24.226,57.21,48.494c.494.419.978.849,1.821,1.583Z" transform="translate(-7.774 -99.326)" fill="#fefefe"/>
    <path id="Path_789" data-name="Path 789" d="M-967.555,467.853l56.786-36.625v84.756Z" transform="translate(-89.207 -64.924)" fill="#fefefe"/>
    <path id="Path_790" data-name="Path 790" d="M-1135.527,431.216c5.3,3.411,10.315,6.64,15.332,9.876q19.784,12.763,39.584,25.5c1.463.936,1.83,1.376.287,2.677Q-1107,491.759-1133.6,514.351c-.527.446-.937,1.161-1.932,1.136Z" transform="translate(-4.183 -64.918)" fill="#fefefe"/>
    <path id="Path_791" data-name="Path 791" d="M-1074.009,454.019c.94-1.52.411-3.2.422-4.789.011-1.533.371-2.186,2.064-2.175q16.022.1,32.045,0c1.736-.011,2.025.719,2.01,2.212-.06,5.752.039,11.5-.063,17.255-.029,1.66.417,2.48,2.129,2.387a14.97,14.97,0,0,0-8.393,3.708c-.78.749-1.317.157-1.924-.238Q-1059.863,463.2-1074.009,454.019Z" transform="translate(-35.322 -72.935)" fill="#c1cfda"/>
    <path id="Path_792" data-name="Path 792" d="M-890.424,419.463V393.369c4.449,3.757,8.559,7.227,12.667,10.7,1.253,1.059,2.47,2.164,3.764,3.17.94.731.819,1.153-.139,1.761C-879.46,412.382-884.758,415.815-890.424,419.463Z" transform="translate(-128.249 -45.761)" fill="#c1cfda"/>
    <path id="Path_793" data-name="Path 793" d="M-1115.12,419.466c-3.536-2.277-6.953-4.478-10.372-6.676-1.8-1.154-3.552-2.382-5.411-3.423-1.445-.809-1.424-1.359-.171-2.395,5.24-4.333,10.411-8.75,15.954-13.429Z" transform="translate(-5.968 -45.849)" fill="#c1cfda"/>
    <path id="Path_794" data-name="Path 794" d="M-1082.29,352.356l14.481-14.449c0,4.5,0,8.955,0,13.416,0,.907-.606,1.035-1.328,1.035C-1073.475,352.354-1077.813,352.356-1082.29,352.356Z" transform="translate(-31.13 -17.687)" fill="#c1cfda"/>
    <path id="Path_795" data-name="Path 795" d="M-1013.677,317.1c6.417-7.485,13.322-7.469,19.368,0Z" transform="translate(-65.861 -4.315)" fill="#c0ceda"/>
    <path id="Path_796" data-name="Path 796" d="M-992.169,489.191c.863-.223,2.017.145,2.193-1.349.1-.863.972-.708,1.6-.7q7.336.036,14.672.1c-2.845,1.894-5.7,3.768-8.524,5.7-.616.422-1.065.655-1.674.027A13.763,13.763,0,0,0-992.169,489.191Z" transform="translate(-76.748 -93.218)" fill="#c1cfda"/>
    <path id="Path_797" data-name="Path 797" d="M-1017.641,392.424a4.363,4.363,0,0,1-3.378-1.525c-4.651-4.649-9.331-9.269-13.94-13.959-2.21-2.249-2.212-4.826-.184-6.741,1.829-1.726,4.545-1.577,6.6.443,2.934,2.878,5.967,5.675,8.676,8.755,1.78,2.024,2.767,1.679,4.481-.087,6.867-7.079,13.905-13.991,20.869-20.976a4.607,4.607,0,0,1,5.6-1.17,4.229,4.229,0,0,1,2.463,4.665,4.853,4.853,0,0,1-1.667,2.939q-12.981,12.992-25.971,25.975A4.755,4.755,0,0,1-1017.641,392.424Z" transform="translate(-54.237 -27.184)" fill="#63bc3a"/>
    <path id="Path_798" data-name="Path 798" d="M-969.988,447.051c5.259,0,10.519.047,15.777-.029,1.612-.023,2.379.309,2.327,2.149-.129,4.555.23,3.778-3.848,3.791-9.943.032-19.888-.083-29.828.076-2.611.041-2.418-1.316-2.439-3.043-.021-1.785-.081-3.11,2.482-3.006C-980.348,447.2-975.165,447.051-969.988,447.051Z" transform="translate(-78.856 -72.899)" fill="#c2cfda"/>
    <path id="Path_799" data-name="Path 799" d="M-978.9,473.044c-2.378,0-4.759-.075-7.133.025-1.53.064-2.087-.524-1.95-2a19.181,19.181,0,0,0,.011-2.458c-.035-1.009.359-1.505,1.431-1.5q7.626.033,15.252,0c1.173-.007,1.632.48,1.564,1.617a13.345,13.345,0,0,0,.008,2.212c.17,1.568-.388,2.224-2.05,2.141C-974.139,472.957-976.522,473.045-978.9,473.044Z" transform="translate(-78.857 -83.084)" fill="#c1cfda"/>
  </g>
</svg>
