<svg xmlns="http://www.w3.org/2000/svg" width="148.941" height="155.5" viewBox="0 0 148.941 155.5">
  <g id="Group_1143" data-name="Group 1143" transform="translate(975.434 383.989)">
    <path id="Path_772" data-name="Path 772" d="M-901.194-228.492q-35.2,0-70.394,0c-3.7,0-3.805-.106-3.806-3.741q-.008-45.022-.039-90.045a4.944,4.944,0,0,1,1.933-4.254c6.507-5.4,12.887-10.948,19.4-16.333a3.787,3.787,0,0,0,1.661-3.8c-.5-3.08.762-5.233,3-7.344,6.277-5.909,12.346-12.039,18.446-18.131,1.244-1.242,2.507-2.116,4.349-1.816,6.441,1.052,11.447-1.208,16.156-5.745,5.966-5.749,13.18-5.7,19.1.059a18.959,18.959,0,0,0,15.685,5.815c7.591-.528,15.248-.133,22.875-.12,2.829,0,3.336.5,3.341,3.321.015,7.711.121,15.425-.063,23.132a6.138,6.138,0,0,0,2.584,5.422c6.335,5.214,12.521,10.608,18.82,15.866a4.257,4.257,0,0,1,1.648,3.628q-.049,45.4-.02,90.791c0,2.936-.39,3.3-3.292,3.3Q-865.5-228.49-901.194-228.492Z" transform="translate(0)" fill="#155093"/>
    <path id="Path_773" data-name="Path 773" d="M-873-276.232l-1.826.005c-2.245.67-2.8-.614-2.833-2.469-.079-4.969-.012-9.939-.035-14.909-.017-3.732-.077-3.8-3.694-3.807q-13.916-.012-27.831.007c-2.973.008-3.028.141-3.233,3.044-.08,1.133.356,2.549-1.24,3.108a1.284,1.284,0,0,1-.233-.084c-7.386-4.349-7.386-4.349-7.386-12.976,0-9.115.062-18.231-.049-27.345-.024-2,.591-2.492,2.506-2.449,5.466.121,10.937.05,16.407.039,2.929-.006,3.23-.319,3.234-3.325.008-5.386.071-10.774-.037-16.158-.036-1.773.332-2.429,2.286-2.423q34.307.1,68.613,0c1.813,0,2.167.6,2.162,2.272q-.082,27.843-.02,55.686a2.741,2.741,0,0,1-1.247,2.716q-13.314,8.451-26.571,16.989c-3.088,1.257-6.331.605-9.508.78-2.4.132-4.921-.559-7.074,1.284C-871.171-275.765-872.195-275.993-873-276.232Z" transform="translate(-27.169 -14.076)" fill="#fefefe"/>
    <path id="Path_774" data-name="Path 774" d="M-826.82-133.905H-960.188c.9-.828,1.5-1.419,2.144-1.962q29.108-24.663,58.227-49.315c4.025-3.406,8.694-3.578,12.67-.221q30.106,25.411,60.122,50.929C-826.97-134.428-826.966-134.322-826.82-133.905Z" transform="translate(-7.66 -98.561)" fill="#fefefe"/>
    <path id="Path_775" data-name="Path 775" d="M-967.331-255.78c4.01,2.582,7.74,4.982,11.467,7.385q21.918,14.125,43.837,28.246c1.08.7,2.223,1.085.489,2.546q-27.447,23.135-54.8,46.386a7.9,7.9,0,0,1-1,.582Z" transform="translate(-4.071 -64.42)" fill="#fefefe"/>
    <path id="Path_776" data-name="Path 776" d="M-799.36-218.9l57.27-36.933v85.467Z" transform="translate(-88.47 -64.391)" fill="#fefefe"/>
    <path id="Path_777" data-name="Path 777" d="M-905.949-232.954c.936-1.532.409-3.22.415-4.822.006-1.567.413-2.18,2.1-2.17q16.137.1,32.275,0c1.755-.011,2.032.731,2.017,2.23-.061,5.792.035,11.587-.064,17.378-.028,1.654.375,2.523,2.127,2.41a14.574,14.574,0,0,0-8.2,3.7c-.752.726-1.278.352-1.938-.078Q-891.577-223.64-905.949-232.954Z" transform="translate(-34.913 -72.375)" fill="#c1cfda"/>
    <path id="Path_778" data-name="Path 778" d="M-946.774-267.355c-5.644-3.643-11.046-7.133-16.453-10.615-.718-.463-.875-.936-.161-1.539,5.418-4.574,10.833-9.153,16.613-14.038Z" transform="translate(-5.82 -45.443)" fill="#c1cfda"/>
    <path id="Path_779" data-name="Path 779" d="M-722.042-266.891V-292.6c1.919.657,3.013,2.17,4.366,3.287,4.023,3.318,7.974,6.725,11.972,10.073.717.6,1.3,1,.1,1.762C-710.974-274.064-716.3-270.594-722.042-266.891Z" transform="translate(-127.318 -45.921)" fill="#c1cfda"/>
    <path id="Path_780" data-name="Path 780" d="M-914.149-334.529l14.573-14.55c0,4.532,0,9.023,0,13.514,0,.91-.628,1.037-1.349,1.037C-905.3-334.531-909.669-334.529-914.149-334.529Z" transform="translate(-30.793 -17.541)" fill="#c0cfda"/>
    <path id="Path_781" data-name="Path 781" d="M-825.937-369.8H-845.19C-839.807-377.3-831.5-377.342-825.937-369.8Z" transform="translate(-65.442 -4.295)" fill="#c0ceda"/>
    <path id="Path_782" data-name="Path 782" d="M-824.162-197.848c1.138-.176,2.46.177,2.807-1.641.141-.739,1.315-.412,2.025-.416,4.713-.025,9.426-.016,14.139-.018-2.961,1.939-5.927,3.871-8.878,5.825-.5.328-.889.713-1.476.119C-817.914-196.374-820.959-197.294-824.162-197.848Z" transform="translate(-76.008 -92.46)" fill="#c1cfda"/>
    <path id="Path_783" data-name="Path 783" d="M-826.054-330.211a4.707,4.707,0,0,1-1.769,3.48c-2.773,2.736-5.463,5.559-8.292,8.234-1.163,1.1-1.277,1.78-.04,2.933,2.726,2.541,5.3,5.246,7.939,7.883,2.568,2.567,2.893,5.365.855,7.372s-4.75,1.636-7.375-.976c-2.526-2.514-5.12-4.966-7.536-7.582-1.261-1.365-2.043-1.617-3.43-.081-2.552,2.827-5.332,5.448-8.05,8.121-2.218,2.182-4.949,2.39-6.835.585-2.022-1.935-1.913-4.691.355-7,2.843-2.9,5.7-5.789,8.629-8.6.951-.912.939-1.45,0-2.355-2.867-2.757-5.648-5.6-8.451-8.426-2.356-2.372-2.614-4.986-.71-6.994,1.947-2.054,4.731-1.837,7.179.589,2.767,2.742,5.582,5.441,8.236,8.289,1.107,1.187,1.687,1,2.7-.06,2.86-3,5.817-5.9,8.779-8.8a4.4,4.4,0,0,1,5.255-.986A4.29,4.29,0,0,1-826.054-330.211Z" transform="translate(-56.982 -24.582)" fill="#e54243"/>
    <path id="Path_784" data-name="Path 784" d="M-800.974-233.959c-5.3,0-10.6-.121-15.893.053-2.322.077-2.378-1.132-2.24-2.749.126-1.473-.751-3.355,2.161-3.321q16.017.185,32.036,0c2.961-.032,1.948,1.932,2.11,3.366.19,1.674-.022,2.777-2.282,2.7C-790.374-234.074-795.676-233.958-800.974-233.959Z" transform="translate(-78.526 -72.36)" fill="#c2cfda"/>
    <path id="Path_785" data-name="Path 785" d="M-810.3-213.949c-2.321,0-4.642-.056-6.96.02-1.383.046-2.013-.44-1.876-1.855a7.714,7.714,0,0,0,0-1.738c-.235-1.792.373-2.5,2.31-2.442,4.47.136,8.949.112,13.422.009,1.725-.039,2.32.487,2.265,2.244-.135,4.417.29,3.708-3.689,3.76C-806.658-213.928-808.481-213.948-810.3-213.949Z" transform="translate(-78.505 -82.414)" fill="#c1cfda"/>
  </g>
</svg>
