<svg xmlns="http://www.w3.org/2000/svg" width="209.258" height="153.795" viewBox="0 0 209.258 153.795">
  <g id="Group_473" data-name="Group 473" transform="translate(-189.836 -3997.158)" opacity="0.5">
    <g id="Group_471" data-name="Group 471">
      <g id="Untitled-1" transform="translate(184.736 4065.558)">
        <path id="Path_208" data-name="Path 208" d="M8.288,15.194A1.594,1.594,0,1,1,6.694,13.6,1.585,1.585,0,0,1,8.288,15.194Z" transform="translate(0 0)" fill="#fff"/>
        <circle id="Ellipse_10" data-name="Ellipse 10" cx="1.594" cy="1.594" r="1.594" transform="translate(18.821 13.6)" fill="#fff"/>
        <circle id="Ellipse_11" data-name="Ellipse 11" cx="1.594" cy="1.594" r="1.594" transform="translate(32.543 13.6)" fill="#fff"/>
        <path id="Path_209" data-name="Path 209" d="M212.388,15.194a1.594,1.594,0,1,1-1.594-1.594A1.585,1.585,0,0,1,212.388,15.194Z" transform="translate(-162.916 0)" fill="#fff"/>
        <circle id="Ellipse_12" data-name="Ellipse 12" cx="1.594" cy="1.594" r="1.594" transform="translate(60.006 13.6)" fill="#fff"/>
        <circle id="Ellipse_13" data-name="Ellipse 13" cx="1.594" cy="1.594" r="1.594" transform="translate(73.727 13.6)" fill="#fff"/>
        <circle id="Ellipse_14" data-name="Ellipse 14" cx="1.594" cy="1.594" r="1.594" transform="translate(87.449 13.6)" fill="#fff"/>
        <circle id="Ellipse_15" data-name="Ellipse 15" cx="1.594" cy="1.594" r="1.594" transform="translate(101.17 13.6)" fill="#fff"/>
        <path id="Path_210" data-name="Path 210" d="M8.288,83.194A1.594,1.594,0,1,1,6.694,81.6,1.585,1.585,0,0,1,8.288,83.194Z" transform="translate(0 -54.279)" fill="#fff"/>
        <circle id="Ellipse_16" data-name="Ellipse 16" cx="1.594" cy="1.594" r="1.594" transform="translate(18.821 27.321)" fill="#fff"/>
        <circle id="Ellipse_17" data-name="Ellipse 17" cx="1.594" cy="1.594" r="1.594" transform="translate(32.543 27.321)" fill="#fff"/>
        <path id="Path_211" data-name="Path 211" d="M212.388,83.194a1.594,1.594,0,1,1-1.594-1.594A1.585,1.585,0,0,1,212.388,83.194Z" transform="translate(-162.916 -54.279)" fill="#fff"/>
        <circle id="Ellipse_18" data-name="Ellipse 18" cx="1.594" cy="1.594" r="1.594" transform="translate(60.006 27.321)" fill="#fff"/>
        <circle id="Ellipse_19" data-name="Ellipse 19" cx="1.594" cy="1.594" r="1.594" transform="translate(73.727 27.321)" fill="#fff"/>
        <circle id="Ellipse_20" data-name="Ellipse 20" cx="1.594" cy="1.594" r="1.594" transform="translate(87.449 27.321)" fill="#fff"/>
        <circle id="Ellipse_21" data-name="Ellipse 21" cx="1.594" cy="1.594" r="1.594" transform="translate(101.17 27.321)" fill="#fff"/>
        <path id="Path_212" data-name="Path 212" d="M8.288,151.194A1.594,1.594,0,1,1,6.694,149.6,1.585,1.585,0,0,1,8.288,151.194Z" transform="translate(0 -108.557)" fill="#fff"/>
        <circle id="Ellipse_22" data-name="Ellipse 22" cx="1.594" cy="1.594" r="1.594" transform="translate(18.821 41.043)" fill="#fff"/>
        <circle id="Ellipse_23" data-name="Ellipse 23" cx="1.594" cy="1.594" r="1.594" transform="translate(32.543 41.043)" fill="#fff"/>
        <path id="Path_213" data-name="Path 213" d="M212.388,151.194a1.594,1.594,0,1,1-1.594-1.594A1.585,1.585,0,0,1,212.388,151.194Z" transform="translate(-162.916 -108.557)" fill="#fff"/>
        <circle id="Ellipse_24" data-name="Ellipse 24" cx="1.594" cy="1.594" r="1.594" transform="translate(60.006 41.043)" fill="#fff"/>
        <circle id="Ellipse_25" data-name="Ellipse 25" cx="1.594" cy="1.594" r="1.594" transform="translate(73.727 41.043)" fill="#fff"/>
        <circle id="Ellipse_26" data-name="Ellipse 26" cx="1.594" cy="1.594" r="1.594" transform="translate(87.449 41.043)" fill="#fff"/>
        <circle id="Ellipse_27" data-name="Ellipse 27" cx="1.594" cy="1.594" r="1.594" transform="translate(101.17 41.043)" fill="#fff"/>
        <path id="Path_214" data-name="Path 214" d="M8.288,219.194A1.594,1.594,0,1,1,6.694,217.6,1.585,1.585,0,0,1,8.288,219.194Z" transform="translate(0 -162.836)" fill="#fff"/>
        <circle id="Ellipse_28" data-name="Ellipse 28" cx="1.594" cy="1.594" r="1.594" transform="translate(18.821 54.764)" fill="#fff"/>
        <circle id="Ellipse_29" data-name="Ellipse 29" cx="1.594" cy="1.594" r="1.594" transform="translate(32.543 54.764)" fill="#fff"/>
        <path id="Path_215" data-name="Path 215" d="M212.388,219.194a1.594,1.594,0,1,1-1.594-1.594A1.585,1.585,0,0,1,212.388,219.194Z" transform="translate(-162.916 -162.836)" fill="#fff"/>
        <circle id="Ellipse_30" data-name="Ellipse 30" cx="1.594" cy="1.594" r="1.594" transform="translate(60.006 54.764)" fill="#fff"/>
        <circle id="Ellipse_31" data-name="Ellipse 31" cx="1.594" cy="1.594" r="1.594" transform="translate(73.727 54.764)" fill="#fff"/>
        <circle id="Ellipse_32" data-name="Ellipse 32" cx="1.594" cy="1.594" r="1.594" transform="translate(87.449 54.764)" fill="#fff"/>
        <circle id="Ellipse_33" data-name="Ellipse 33" cx="1.594" cy="1.594" r="1.594" transform="translate(101.17 54.764)" fill="#fff"/>
        <path id="Path_216" data-name="Path 216" d="M8.288,287.194A1.594,1.594,0,1,1,6.694,285.6,1.585,1.585,0,0,1,8.288,287.194Z" transform="translate(0 -217.114)" fill="#fff"/>
        <circle id="Ellipse_34" data-name="Ellipse 34" cx="1.594" cy="1.594" r="1.594" transform="translate(18.821 68.486)" fill="#fff"/>
        <circle id="Ellipse_35" data-name="Ellipse 35" cx="1.594" cy="1.594" r="1.594" transform="translate(32.543 68.486)" fill="#fff"/>
        <path id="Path_217" data-name="Path 217" d="M212.388,287.194a1.594,1.594,0,1,1-1.594-1.594A1.585,1.585,0,0,1,212.388,287.194Z" transform="translate(-162.916 -217.114)" fill="#fff"/>
        <circle id="Ellipse_36" data-name="Ellipse 36" cx="1.594" cy="1.594" r="1.594" transform="translate(60.006 68.486)" fill="#fff"/>
        <circle id="Ellipse_37" data-name="Ellipse 37" cx="1.594" cy="1.594" r="1.594" transform="translate(73.727 68.486)" fill="#fff"/>
        <circle id="Ellipse_38" data-name="Ellipse 38" cx="1.594" cy="1.594" r="1.594" transform="translate(87.449 68.486)" fill="#fff"/>
        <circle id="Ellipse_39" data-name="Ellipse 39" cx="1.594" cy="1.594" r="1.594" transform="translate(101.17 68.486)" fill="#fff"/>
        <path id="Path_218" data-name="Path 218" d="M8.288,355.194A1.594,1.594,0,1,1,6.694,353.6,1.585,1.585,0,0,1,8.288,355.194Z" transform="translate(0 -271.393)" fill="#fff"/>
        <circle id="Ellipse_40" data-name="Ellipse 40" cx="1.594" cy="1.594" r="1.594" transform="translate(18.821 82.207)" fill="#fff"/>
        <circle id="Ellipse_41" data-name="Ellipse 41" cx="1.594" cy="1.594" r="1.594" transform="translate(32.543 82.207)" fill="#fff"/>
        <path id="Path_219" data-name="Path 219" d="M212.388,355.194a1.594,1.594,0,1,1-1.594-1.594A1.611,1.611,0,0,1,212.388,355.194Z" transform="translate(-162.916 -271.393)" fill="#fff"/>
        <circle id="Ellipse_42" data-name="Ellipse 42" cx="1.594" cy="1.594" r="1.594" transform="translate(60.006 82.207)" fill="#fff"/>
        <circle id="Ellipse_43" data-name="Ellipse 43" cx="1.594" cy="1.594" r="1.594" transform="translate(73.727 82.207)" fill="#fff"/>
        <circle id="Ellipse_44" data-name="Ellipse 44" cx="1.594" cy="1.594" r="1.594" transform="translate(87.449 82.207)" fill="#fff"/>
        <circle id="Ellipse_45" data-name="Ellipse 45" cx="1.594" cy="1.594" r="1.594" transform="translate(101.17 82.207)" fill="#fff"/>
      </g>
      <g id="Untitled-1-2" data-name="Untitled-1" transform="translate(294.736 4065.558)">
        <path id="Path_208-2" data-name="Path 208" d="M8.288,15.194A1.594,1.594,0,1,1,6.694,13.6,1.585,1.585,0,0,1,8.288,15.194Z" transform="translate(0 0)" fill="#fff"/>
        <circle id="Ellipse_10-2" data-name="Ellipse 10" cx="1.594" cy="1.594" r="1.594" transform="translate(18.821 13.6)" fill="#fff"/>
        <circle id="Ellipse_11-2" data-name="Ellipse 11" cx="1.594" cy="1.594" r="1.594" transform="translate(32.543 13.6)" fill="#fff"/>
        <path id="Path_209-2" data-name="Path 209" d="M212.388,15.194a1.594,1.594,0,1,1-1.594-1.594A1.585,1.585,0,0,1,212.388,15.194Z" transform="translate(-162.916 0)" fill="#fff"/>
        <circle id="Ellipse_12-2" data-name="Ellipse 12" cx="1.594" cy="1.594" r="1.594" transform="translate(60.006 13.6)" fill="#fff"/>
        <circle id="Ellipse_13-2" data-name="Ellipse 13" cx="1.594" cy="1.594" r="1.594" transform="translate(73.727 13.6)" fill="#fff"/>
        <circle id="Ellipse_14-2" data-name="Ellipse 14" cx="1.594" cy="1.594" r="1.594" transform="translate(87.449 13.6)" fill="#fff"/>
        <circle id="Ellipse_15-2" data-name="Ellipse 15" cx="1.594" cy="1.594" r="1.594" transform="translate(101.17 13.6)" fill="#fff"/>
        <path id="Path_210-2" data-name="Path 210" d="M8.288,83.194A1.594,1.594,0,1,1,6.694,81.6,1.585,1.585,0,0,1,8.288,83.194Z" transform="translate(0 -54.279)" fill="#fff"/>
        <circle id="Ellipse_16-2" data-name="Ellipse 16" cx="1.594" cy="1.594" r="1.594" transform="translate(18.821 27.321)" fill="#fff"/>
        <circle id="Ellipse_17-2" data-name="Ellipse 17" cx="1.594" cy="1.594" r="1.594" transform="translate(32.543 27.321)" fill="#fff"/>
        <path id="Path_211-2" data-name="Path 211" d="M212.388,83.194a1.594,1.594,0,1,1-1.594-1.594A1.585,1.585,0,0,1,212.388,83.194Z" transform="translate(-162.916 -54.279)" fill="#fff"/>
        <circle id="Ellipse_18-2" data-name="Ellipse 18" cx="1.594" cy="1.594" r="1.594" transform="translate(60.006 27.321)" fill="#fff"/>
        <circle id="Ellipse_19-2" data-name="Ellipse 19" cx="1.594" cy="1.594" r="1.594" transform="translate(73.727 27.321)" fill="#fff"/>
        <circle id="Ellipse_20-2" data-name="Ellipse 20" cx="1.594" cy="1.594" r="1.594" transform="translate(87.449 27.321)" fill="#fff"/>
        <circle id="Ellipse_21-2" data-name="Ellipse 21" cx="1.594" cy="1.594" r="1.594" transform="translate(101.17 27.321)" fill="#fff"/>
        <path id="Path_212-2" data-name="Path 212" d="M8.288,151.194A1.594,1.594,0,1,1,6.694,149.6,1.585,1.585,0,0,1,8.288,151.194Z" transform="translate(0 -108.557)" fill="#fff"/>
        <circle id="Ellipse_22-2" data-name="Ellipse 22" cx="1.594" cy="1.594" r="1.594" transform="translate(18.821 41.043)" fill="#fff"/>
        <circle id="Ellipse_23-2" data-name="Ellipse 23" cx="1.594" cy="1.594" r="1.594" transform="translate(32.543 41.043)" fill="#fff"/>
        <path id="Path_213-2" data-name="Path 213" d="M212.388,151.194a1.594,1.594,0,1,1-1.594-1.594A1.585,1.585,0,0,1,212.388,151.194Z" transform="translate(-162.916 -108.557)" fill="#fff"/>
        <circle id="Ellipse_24-2" data-name="Ellipse 24" cx="1.594" cy="1.594" r="1.594" transform="translate(60.006 41.043)" fill="#fff"/>
        <circle id="Ellipse_25-2" data-name="Ellipse 25" cx="1.594" cy="1.594" r="1.594" transform="translate(73.727 41.043)" fill="#fff"/>
        <circle id="Ellipse_26-2" data-name="Ellipse 26" cx="1.594" cy="1.594" r="1.594" transform="translate(87.449 41.043)" fill="#fff"/>
        <circle id="Ellipse_27-2" data-name="Ellipse 27" cx="1.594" cy="1.594" r="1.594" transform="translate(101.17 41.043)" fill="#fff"/>
        <path id="Path_214-2" data-name="Path 214" d="M8.288,219.194A1.594,1.594,0,1,1,6.694,217.6,1.585,1.585,0,0,1,8.288,219.194Z" transform="translate(0 -162.836)" fill="#fff"/>
        <circle id="Ellipse_28-2" data-name="Ellipse 28" cx="1.594" cy="1.594" r="1.594" transform="translate(18.821 54.764)" fill="#fff"/>
        <circle id="Ellipse_29-2" data-name="Ellipse 29" cx="1.594" cy="1.594" r="1.594" transform="translate(32.543 54.764)" fill="#fff"/>
        <path id="Path_215-2" data-name="Path 215" d="M212.388,219.194a1.594,1.594,0,1,1-1.594-1.594A1.585,1.585,0,0,1,212.388,219.194Z" transform="translate(-162.916 -162.836)" fill="#fff"/>
        <circle id="Ellipse_30-2" data-name="Ellipse 30" cx="1.594" cy="1.594" r="1.594" transform="translate(60.006 54.764)" fill="#fff"/>
        <circle id="Ellipse_31-2" data-name="Ellipse 31" cx="1.594" cy="1.594" r="1.594" transform="translate(73.727 54.764)" fill="#fff"/>
        <circle id="Ellipse_32-2" data-name="Ellipse 32" cx="1.594" cy="1.594" r="1.594" transform="translate(87.449 54.764)" fill="#fff"/>
        <circle id="Ellipse_33-2" data-name="Ellipse 33" cx="1.594" cy="1.594" r="1.594" transform="translate(101.17 54.764)" fill="#fff"/>
        <path id="Path_216-2" data-name="Path 216" d="M8.288,287.194A1.594,1.594,0,1,1,6.694,285.6,1.585,1.585,0,0,1,8.288,287.194Z" transform="translate(0 -217.114)" fill="#fff"/>
        <circle id="Ellipse_34-2" data-name="Ellipse 34" cx="1.594" cy="1.594" r="1.594" transform="translate(18.821 68.486)" fill="#fff"/>
        <circle id="Ellipse_35-2" data-name="Ellipse 35" cx="1.594" cy="1.594" r="1.594" transform="translate(32.543 68.486)" fill="#fff"/>
        <path id="Path_217-2" data-name="Path 217" d="M212.388,287.194a1.594,1.594,0,1,1-1.594-1.594A1.585,1.585,0,0,1,212.388,287.194Z" transform="translate(-162.916 -217.114)" fill="#fff"/>
        <circle id="Ellipse_36-2" data-name="Ellipse 36" cx="1.594" cy="1.594" r="1.594" transform="translate(60.006 68.486)" fill="#fff"/>
        <circle id="Ellipse_37-2" data-name="Ellipse 37" cx="1.594" cy="1.594" r="1.594" transform="translate(73.727 68.486)" fill="#fff"/>
        <circle id="Ellipse_38-2" data-name="Ellipse 38" cx="1.594" cy="1.594" r="1.594" transform="translate(87.449 68.486)" fill="#fff"/>
        <circle id="Ellipse_39-2" data-name="Ellipse 39" cx="1.594" cy="1.594" r="1.594" transform="translate(101.17 68.486)" fill="#fff"/>
        <path id="Path_218-2" data-name="Path 218" d="M8.288,355.194A1.594,1.594,0,1,1,6.694,353.6,1.585,1.585,0,0,1,8.288,355.194Z" transform="translate(0 -271.393)" fill="#fff"/>
        <circle id="Ellipse_40-2" data-name="Ellipse 40" cx="1.594" cy="1.594" r="1.594" transform="translate(18.821 82.207)" fill="#fff"/>
        <circle id="Ellipse_41-2" data-name="Ellipse 41" cx="1.594" cy="1.594" r="1.594" transform="translate(32.543 82.207)" fill="#fff"/>
        <path id="Path_219-2" data-name="Path 219" d="M212.388,355.194a1.594,1.594,0,1,1-1.594-1.594A1.611,1.611,0,0,1,212.388,355.194Z" transform="translate(-162.916 -271.393)" fill="#fff"/>
        <circle id="Ellipse_42-2" data-name="Ellipse 42" cx="1.594" cy="1.594" r="1.594" transform="translate(60.006 82.207)" fill="#fff"/>
        <circle id="Ellipse_43-2" data-name="Ellipse 43" cx="1.594" cy="1.594" r="1.594" transform="translate(73.727 82.207)" fill="#fff"/>
        <circle id="Ellipse_44-2" data-name="Ellipse 44" cx="1.594" cy="1.594" r="1.594" transform="translate(87.449 82.207)" fill="#fff"/>
        <circle id="Ellipse_45-2" data-name="Ellipse 45" cx="1.594" cy="1.594" r="1.594" transform="translate(101.17 82.207)" fill="#fff"/>
      </g>
    </g>
    <g id="Group_472" data-name="Group 472" transform="translate(0 -82)">
      <g id="Untitled-1-3" data-name="Untitled-1" transform="translate(184.736 4065.558)">
        <path id="Path_208-3" data-name="Path 208" d="M8.288,15.194A1.594,1.594,0,1,1,6.694,13.6,1.585,1.585,0,0,1,8.288,15.194Z" transform="translate(0 0)" fill="#fff"/>
        <circle id="Ellipse_10-3" data-name="Ellipse 10" cx="1.594" cy="1.594" r="1.594" transform="translate(18.821 13.6)" fill="#fff"/>
        <circle id="Ellipse_11-3" data-name="Ellipse 11" cx="1.594" cy="1.594" r="1.594" transform="translate(32.543 13.6)" fill="#fff"/>
        <path id="Path_209-3" data-name="Path 209" d="M212.388,15.194a1.594,1.594,0,1,1-1.594-1.594A1.585,1.585,0,0,1,212.388,15.194Z" transform="translate(-162.916 0)" fill="#fff"/>
        <circle id="Ellipse_12-3" data-name="Ellipse 12" cx="1.594" cy="1.594" r="1.594" transform="translate(60.006 13.6)" fill="#fff"/>
        <circle id="Ellipse_13-3" data-name="Ellipse 13" cx="1.594" cy="1.594" r="1.594" transform="translate(73.727 13.6)" fill="#fff"/>
        <circle id="Ellipse_14-3" data-name="Ellipse 14" cx="1.594" cy="1.594" r="1.594" transform="translate(87.449 13.6)" fill="#fff"/>
        <circle id="Ellipse_15-3" data-name="Ellipse 15" cx="1.594" cy="1.594" r="1.594" transform="translate(101.17 13.6)" fill="#fff"/>
        <path id="Path_210-3" data-name="Path 210" d="M8.288,83.194A1.594,1.594,0,1,1,6.694,81.6,1.585,1.585,0,0,1,8.288,83.194Z" transform="translate(0 -54.279)" fill="#fff"/>
        <circle id="Ellipse_16-3" data-name="Ellipse 16" cx="1.594" cy="1.594" r="1.594" transform="translate(18.821 27.321)" fill="#fff"/>
        <circle id="Ellipse_17-3" data-name="Ellipse 17" cx="1.594" cy="1.594" r="1.594" transform="translate(32.543 27.321)" fill="#fff"/>
        <path id="Path_211-3" data-name="Path 211" d="M212.388,83.194a1.594,1.594,0,1,1-1.594-1.594A1.585,1.585,0,0,1,212.388,83.194Z" transform="translate(-162.916 -54.279)" fill="#fff"/>
        <circle id="Ellipse_18-3" data-name="Ellipse 18" cx="1.594" cy="1.594" r="1.594" transform="translate(60.006 27.321)" fill="#fff"/>
        <circle id="Ellipse_19-3" data-name="Ellipse 19" cx="1.594" cy="1.594" r="1.594" transform="translate(73.727 27.321)" fill="#fff"/>
        <circle id="Ellipse_20-3" data-name="Ellipse 20" cx="1.594" cy="1.594" r="1.594" transform="translate(87.449 27.321)" fill="#fff"/>
        <circle id="Ellipse_21-3" data-name="Ellipse 21" cx="1.594" cy="1.594" r="1.594" transform="translate(101.17 27.321)" fill="#fff"/>
        <path id="Path_212-3" data-name="Path 212" d="M8.288,151.194A1.594,1.594,0,1,1,6.694,149.6,1.585,1.585,0,0,1,8.288,151.194Z" transform="translate(0 -108.557)" fill="#fff"/>
        <circle id="Ellipse_22-3" data-name="Ellipse 22" cx="1.594" cy="1.594" r="1.594" transform="translate(18.821 41.043)" fill="#fff"/>
        <circle id="Ellipse_23-3" data-name="Ellipse 23" cx="1.594" cy="1.594" r="1.594" transform="translate(32.543 41.043)" fill="#fff"/>
        <path id="Path_213-3" data-name="Path 213" d="M212.388,151.194a1.594,1.594,0,1,1-1.594-1.594A1.585,1.585,0,0,1,212.388,151.194Z" transform="translate(-162.916 -108.557)" fill="#fff"/>
        <circle id="Ellipse_24-3" data-name="Ellipse 24" cx="1.594" cy="1.594" r="1.594" transform="translate(60.006 41.043)" fill="#fff"/>
        <circle id="Ellipse_25-3" data-name="Ellipse 25" cx="1.594" cy="1.594" r="1.594" transform="translate(73.727 41.043)" fill="#fff"/>
        <circle id="Ellipse_26-3" data-name="Ellipse 26" cx="1.594" cy="1.594" r="1.594" transform="translate(87.449 41.043)" fill="#fff"/>
        <circle id="Ellipse_27-3" data-name="Ellipse 27" cx="1.594" cy="1.594" r="1.594" transform="translate(101.17 41.043)" fill="#fff"/>
        <path id="Path_214-3" data-name="Path 214" d="M8.288,219.194A1.594,1.594,0,1,1,6.694,217.6,1.585,1.585,0,0,1,8.288,219.194Z" transform="translate(0 -162.836)" fill="#fff"/>
        <circle id="Ellipse_28-3" data-name="Ellipse 28" cx="1.594" cy="1.594" r="1.594" transform="translate(18.821 54.764)" fill="#fff"/>
        <circle id="Ellipse_29-3" data-name="Ellipse 29" cx="1.594" cy="1.594" r="1.594" transform="translate(32.543 54.764)" fill="#fff"/>
        <path id="Path_215-3" data-name="Path 215" d="M212.388,219.194a1.594,1.594,0,1,1-1.594-1.594A1.585,1.585,0,0,1,212.388,219.194Z" transform="translate(-162.916 -162.836)" fill="#fff"/>
        <circle id="Ellipse_30-3" data-name="Ellipse 30" cx="1.594" cy="1.594" r="1.594" transform="translate(60.006 54.764)" fill="#fff"/>
        <circle id="Ellipse_31-3" data-name="Ellipse 31" cx="1.594" cy="1.594" r="1.594" transform="translate(73.727 54.764)" fill="#fff"/>
        <circle id="Ellipse_32-3" data-name="Ellipse 32" cx="1.594" cy="1.594" r="1.594" transform="translate(87.449 54.764)" fill="#fff"/>
        <circle id="Ellipse_33-3" data-name="Ellipse 33" cx="1.594" cy="1.594" r="1.594" transform="translate(101.17 54.764)" fill="#fff"/>
        <path id="Path_216-3" data-name="Path 216" d="M8.288,287.194A1.594,1.594,0,1,1,6.694,285.6,1.585,1.585,0,0,1,8.288,287.194Z" transform="translate(0 -217.114)" fill="#fff"/>
        <circle id="Ellipse_34-3" data-name="Ellipse 34" cx="1.594" cy="1.594" r="1.594" transform="translate(18.821 68.486)" fill="#fff"/>
        <circle id="Ellipse_35-3" data-name="Ellipse 35" cx="1.594" cy="1.594" r="1.594" transform="translate(32.543 68.486)" fill="#fff"/>
        <path id="Path_217-3" data-name="Path 217" d="M212.388,287.194a1.594,1.594,0,1,1-1.594-1.594A1.585,1.585,0,0,1,212.388,287.194Z" transform="translate(-162.916 -217.114)" fill="#fff"/>
        <circle id="Ellipse_36-3" data-name="Ellipse 36" cx="1.594" cy="1.594" r="1.594" transform="translate(60.006 68.486)" fill="#fff"/>
        <circle id="Ellipse_37-3" data-name="Ellipse 37" cx="1.594" cy="1.594" r="1.594" transform="translate(73.727 68.486)" fill="#fff"/>
        <circle id="Ellipse_38-3" data-name="Ellipse 38" cx="1.594" cy="1.594" r="1.594" transform="translate(87.449 68.486)" fill="#fff"/>
        <circle id="Ellipse_39-3" data-name="Ellipse 39" cx="1.594" cy="1.594" r="1.594" transform="translate(101.17 68.486)" fill="#fff"/>
        <path id="Path_218-3" data-name="Path 218" d="M8.288,355.194A1.594,1.594,0,1,1,6.694,353.6,1.585,1.585,0,0,1,8.288,355.194Z" transform="translate(0 -271.393)" fill="#fff"/>
        <circle id="Ellipse_40-3" data-name="Ellipse 40" cx="1.594" cy="1.594" r="1.594" transform="translate(18.821 82.207)" fill="#fff"/>
        <circle id="Ellipse_41-3" data-name="Ellipse 41" cx="1.594" cy="1.594" r="1.594" transform="translate(32.543 82.207)" fill="#fff"/>
        <path id="Path_219-3" data-name="Path 219" d="M212.388,355.194a1.594,1.594,0,1,1-1.594-1.594A1.611,1.611,0,0,1,212.388,355.194Z" transform="translate(-162.916 -271.393)" fill="#fff"/>
        <circle id="Ellipse_42-3" data-name="Ellipse 42" cx="1.594" cy="1.594" r="1.594" transform="translate(60.006 82.207)" fill="#fff"/>
        <circle id="Ellipse_43-3" data-name="Ellipse 43" cx="1.594" cy="1.594" r="1.594" transform="translate(73.727 82.207)" fill="#fff"/>
        <circle id="Ellipse_44-3" data-name="Ellipse 44" cx="1.594" cy="1.594" r="1.594" transform="translate(87.449 82.207)" fill="#fff"/>
        <circle id="Ellipse_45-3" data-name="Ellipse 45" cx="1.594" cy="1.594" r="1.594" transform="translate(101.17 82.207)" fill="#fff"/>
      </g>
      <g id="Untitled-1-4" data-name="Untitled-1" transform="translate(294.736 4065.558)">
        <path id="Path_208-4" data-name="Path 208" d="M8.288,15.194A1.594,1.594,0,1,1,6.694,13.6,1.585,1.585,0,0,1,8.288,15.194Z" transform="translate(0 0)" fill="#fff"/>
        <circle id="Ellipse_10-4" data-name="Ellipse 10" cx="1.594" cy="1.594" r="1.594" transform="translate(18.821 13.6)" fill="#fff"/>
        <circle id="Ellipse_11-4" data-name="Ellipse 11" cx="1.594" cy="1.594" r="1.594" transform="translate(32.543 13.6)" fill="#fff"/>
        <path id="Path_209-4" data-name="Path 209" d="M212.388,15.194a1.594,1.594,0,1,1-1.594-1.594A1.585,1.585,0,0,1,212.388,15.194Z" transform="translate(-162.916 0)" fill="#fff"/>
        <circle id="Ellipse_12-4" data-name="Ellipse 12" cx="1.594" cy="1.594" r="1.594" transform="translate(60.006 13.6)" fill="#fff"/>
        <circle id="Ellipse_13-4" data-name="Ellipse 13" cx="1.594" cy="1.594" r="1.594" transform="translate(73.727 13.6)" fill="#fff"/>
        <circle id="Ellipse_14-4" data-name="Ellipse 14" cx="1.594" cy="1.594" r="1.594" transform="translate(87.449 13.6)" fill="#fff"/>
        <circle id="Ellipse_15-4" data-name="Ellipse 15" cx="1.594" cy="1.594" r="1.594" transform="translate(101.17 13.6)" fill="#fff"/>
        <path id="Path_210-4" data-name="Path 210" d="M8.288,83.194A1.594,1.594,0,1,1,6.694,81.6,1.585,1.585,0,0,1,8.288,83.194Z" transform="translate(0 -54.279)" fill="#fff"/>
        <circle id="Ellipse_16-4" data-name="Ellipse 16" cx="1.594" cy="1.594" r="1.594" transform="translate(18.821 27.321)" fill="#fff"/>
        <circle id="Ellipse_17-4" data-name="Ellipse 17" cx="1.594" cy="1.594" r="1.594" transform="translate(32.543 27.321)" fill="#fff"/>
        <path id="Path_211-4" data-name="Path 211" d="M212.388,83.194a1.594,1.594,0,1,1-1.594-1.594A1.585,1.585,0,0,1,212.388,83.194Z" transform="translate(-162.916 -54.279)" fill="#fff"/>
        <circle id="Ellipse_18-4" data-name="Ellipse 18" cx="1.594" cy="1.594" r="1.594" transform="translate(60.006 27.321)" fill="#fff"/>
        <circle id="Ellipse_19-4" data-name="Ellipse 19" cx="1.594" cy="1.594" r="1.594" transform="translate(73.727 27.321)" fill="#fff"/>
        <circle id="Ellipse_20-4" data-name="Ellipse 20" cx="1.594" cy="1.594" r="1.594" transform="translate(87.449 27.321)" fill="#fff"/>
        <circle id="Ellipse_21-4" data-name="Ellipse 21" cx="1.594" cy="1.594" r="1.594" transform="translate(101.17 27.321)" fill="#fff"/>
        <path id="Path_212-4" data-name="Path 212" d="M8.288,151.194A1.594,1.594,0,1,1,6.694,149.6,1.585,1.585,0,0,1,8.288,151.194Z" transform="translate(0 -108.557)" fill="#fff"/>
        <circle id="Ellipse_22-4" data-name="Ellipse 22" cx="1.594" cy="1.594" r="1.594" transform="translate(18.821 41.043)" fill="#fff"/>
        <circle id="Ellipse_23-4" data-name="Ellipse 23" cx="1.594" cy="1.594" r="1.594" transform="translate(32.543 41.043)" fill="#fff"/>
        <path id="Path_213-4" data-name="Path 213" d="M212.388,151.194a1.594,1.594,0,1,1-1.594-1.594A1.585,1.585,0,0,1,212.388,151.194Z" transform="translate(-162.916 -108.557)" fill="#fff"/>
        <circle id="Ellipse_24-4" data-name="Ellipse 24" cx="1.594" cy="1.594" r="1.594" transform="translate(60.006 41.043)" fill="#fff"/>
        <circle id="Ellipse_25-4" data-name="Ellipse 25" cx="1.594" cy="1.594" r="1.594" transform="translate(73.727 41.043)" fill="#fff"/>
        <circle id="Ellipse_26-4" data-name="Ellipse 26" cx="1.594" cy="1.594" r="1.594" transform="translate(87.449 41.043)" fill="#fff"/>
        <circle id="Ellipse_27-4" data-name="Ellipse 27" cx="1.594" cy="1.594" r="1.594" transform="translate(101.17 41.043)" fill="#fff"/>
        <path id="Path_214-4" data-name="Path 214" d="M8.288,219.194A1.594,1.594,0,1,1,6.694,217.6,1.585,1.585,0,0,1,8.288,219.194Z" transform="translate(0 -162.836)" fill="#fff"/>
        <circle id="Ellipse_28-4" data-name="Ellipse 28" cx="1.594" cy="1.594" r="1.594" transform="translate(18.821 54.764)" fill="#fff"/>
        <circle id="Ellipse_29-4" data-name="Ellipse 29" cx="1.594" cy="1.594" r="1.594" transform="translate(32.543 54.764)" fill="#fff"/>
        <path id="Path_215-4" data-name="Path 215" d="M212.388,219.194a1.594,1.594,0,1,1-1.594-1.594A1.585,1.585,0,0,1,212.388,219.194Z" transform="translate(-162.916 -162.836)" fill="#fff"/>
        <circle id="Ellipse_30-4" data-name="Ellipse 30" cx="1.594" cy="1.594" r="1.594" transform="translate(60.006 54.764)" fill="#fff"/>
        <circle id="Ellipse_31-4" data-name="Ellipse 31" cx="1.594" cy="1.594" r="1.594" transform="translate(73.727 54.764)" fill="#fff"/>
        <circle id="Ellipse_32-4" data-name="Ellipse 32" cx="1.594" cy="1.594" r="1.594" transform="translate(87.449 54.764)" fill="#fff"/>
        <circle id="Ellipse_33-4" data-name="Ellipse 33" cx="1.594" cy="1.594" r="1.594" transform="translate(101.17 54.764)" fill="#fff"/>
        <path id="Path_216-4" data-name="Path 216" d="M8.288,287.194A1.594,1.594,0,1,1,6.694,285.6,1.585,1.585,0,0,1,8.288,287.194Z" transform="translate(0 -217.114)" fill="#fff"/>
        <circle id="Ellipse_34-4" data-name="Ellipse 34" cx="1.594" cy="1.594" r="1.594" transform="translate(18.821 68.486)" fill="#fff"/>
        <circle id="Ellipse_35-4" data-name="Ellipse 35" cx="1.594" cy="1.594" r="1.594" transform="translate(32.543 68.486)" fill="#fff"/>
        <path id="Path_217-4" data-name="Path 217" d="M212.388,287.194a1.594,1.594,0,1,1-1.594-1.594A1.585,1.585,0,0,1,212.388,287.194Z" transform="translate(-162.916 -217.114)" fill="#fff"/>
        <circle id="Ellipse_36-4" data-name="Ellipse 36" cx="1.594" cy="1.594" r="1.594" transform="translate(60.006 68.486)" fill="#fff"/>
        <circle id="Ellipse_37-4" data-name="Ellipse 37" cx="1.594" cy="1.594" r="1.594" transform="translate(73.727 68.486)" fill="#fff"/>
        <circle id="Ellipse_38-4" data-name="Ellipse 38" cx="1.594" cy="1.594" r="1.594" transform="translate(87.449 68.486)" fill="#fff"/>
        <circle id="Ellipse_39-4" data-name="Ellipse 39" cx="1.594" cy="1.594" r="1.594" transform="translate(101.17 68.486)" fill="#fff"/>
        <path id="Path_218-4" data-name="Path 218" d="M8.288,355.194A1.594,1.594,0,1,1,6.694,353.6,1.585,1.585,0,0,1,8.288,355.194Z" transform="translate(0 -271.393)" fill="#fff"/>
        <circle id="Ellipse_40-4" data-name="Ellipse 40" cx="1.594" cy="1.594" r="1.594" transform="translate(18.821 82.207)" fill="#fff"/>
        <circle id="Ellipse_41-4" data-name="Ellipse 41" cx="1.594" cy="1.594" r="1.594" transform="translate(32.543 82.207)" fill="#fff"/>
        <path id="Path_219-4" data-name="Path 219" d="M212.388,355.194a1.594,1.594,0,1,1-1.594-1.594A1.611,1.611,0,0,1,212.388,355.194Z" transform="translate(-162.916 -271.393)" fill="#fff"/>
        <circle id="Ellipse_42-4" data-name="Ellipse 42" cx="1.594" cy="1.594" r="1.594" transform="translate(60.006 82.207)" fill="#fff"/>
        <circle id="Ellipse_43-4" data-name="Ellipse 43" cx="1.594" cy="1.594" r="1.594" transform="translate(73.727 82.207)" fill="#fff"/>
        <circle id="Ellipse_44-4" data-name="Ellipse 44" cx="1.594" cy="1.594" r="1.594" transform="translate(87.449 82.207)" fill="#fff"/>
        <circle id="Ellipse_45-4" data-name="Ellipse 45" cx="1.594" cy="1.594" r="1.594" transform="translate(101.17 82.207)" fill="#fff"/>
      </g>
    </g>
  </g>
</svg>
