<svg xmlns="http://www.w3.org/2000/svg" width="110" height="110.001" viewBox="0 0 110 110.001">
  <g id="Group_15947" data-name="Group 15947" transform="translate(-1364 -2014.275)">
    <g id="Statistics" transform="translate(1113.997 1688.349)">
      <g id="Group_15939" data-name="Group 15939" transform="translate(0 -3)">
        <text id="_0_" data-name="0%" transform="translate(282.003 395.927)" fill="#0b164a" font-size="33" font-family="OpenSans-Semibold, Open Sans" font-weight="600" letter-spacing="-0.026em"><tspan x="0" y="0">0%</tspan></text>
        <g id="_24-hours" data-name="24-hours" transform="translate(249.854 323.811)">
          <path id="Exclusion_1" data-name="Exclusion 1" d="M-4832.852-1880.883a54.656,54.656,0,0,1-21.408-4.322,54.822,54.822,0,0,1-17.482-11.787,54.821,54.821,0,0,1-11.787-17.482,54.65,54.65,0,0,1-4.322-21.408,54.653,54.653,0,0,1,4.322-21.409,54.82,54.82,0,0,1,11.787-17.483,54.815,54.815,0,0,1,17.482-11.787,54.654,54.654,0,0,1,21.408-4.322,54.655,54.655,0,0,1,21.409,4.322,54.815,54.815,0,0,1,17.482,11.787,54.82,54.82,0,0,1,11.787,17.483,54.664,54.664,0,0,1,4.322,21.409,54.66,54.66,0,0,1-4.322,21.408,54.828,54.828,0,0,1-11.787,17.482,54.822,54.822,0,0,1-17.482,11.787A54.657,54.657,0,0,1-4832.852-1880.883Zm0-104a49.056,49.056,0,0,0-49,49,49.055,49.055,0,0,0,49,49,49.055,49.055,0,0,0,49-49A49.056,49.056,0,0,0-4832.852-1984.883Z" transform="translate(4888 1996)" fill="#bbb"/>
        </g>
        <g id="Group_15942" data-name="Group 15942">
          <g id="_24-hours-2" data-name="24-hours" transform="translate(249.854 323.811)">
            <path id="Exclusion_1-2" data-name="Exclusion 1" d="M-4832.852-1880.883a54.656,54.656,0,0,1-21.408-4.322,54.822,54.822,0,0,1-17.482-11.787,54.821,54.821,0,0,1-11.787-17.482,54.65,54.65,0,0,1-4.322-21.408,54.653,54.653,0,0,1,4.322-21.409,54.82,54.82,0,0,1,11.787-17.483,54.815,54.815,0,0,1,17.482-11.787,54.654,54.654,0,0,1,21.408-4.322,54.655,54.655,0,0,1,21.409,4.322,54.815,54.815,0,0,1,17.482,11.787,54.82,54.82,0,0,1,11.787,17.483,54.664,54.664,0,0,1,4.322,21.409,54.66,54.66,0,0,1-4.322,21.408,54.828,54.828,0,0,1-11.787,17.482,54.822,54.822,0,0,1-17.482,11.787A54.657,54.657,0,0,1-4832.852-1880.883Zm0-104a49.056,49.056,0,0,0-49,49,49.055,49.055,0,0,0,49,49,49.055,49.055,0,0,0,49-49A49.056,49.056,0,0,0-4832.852-1984.883Z" transform="translate(4888 1996)" fill="#bbb"/>
          </g>
        </g>
      </g>
    </g>
  </g>
</svg>
