<svg xmlns="http://www.w3.org/2000/svg" width="98" height="98" viewBox="0 0 98 98">
  <g id="Group_15947" data-name="Group 15947" transform="translate(-1592.27 -1690.536)">
    <g id="Ellipse_232" data-name="Ellipse 232" transform="translate(1592.27 1690.536)" fill="none" stroke="#155093" stroke-width="3">
      <circle cx="49" cy="49" r="49" stroke="none"/>
      <circle cx="49" cy="49" r="47.5" fill="none"/>
    </g>
    <g id="Group_15956" data-name="Group 15956" transform="translate(1611.423 1710.819)">
      <g id="Group_15954" data-name="Group 15954" transform="translate(18.836 28.826)">
        <path id="Path_1655" data-name="Path 1655" d="M-432.014-62.044a3.031,3.031,0,0,1-2.952-3.052,3.036,3.036,0,0,1,3.16-2.963A3.038,3.038,0,0,1-428.913-65,3.02,3.02,0,0,1-432.014-62.044Z" transform="translate(434.967 68.061)" fill="#f47741"/>
        <path id="Path_1656" data-name="Path 1656" d="M-304.826-62.045a3.024,3.024,0,0,1-2.946-3.057,3.032,3.032,0,0,1,3.165-2.957A3.042,3.042,0,0,1-301.72-65,3.021,3.021,0,0,1-304.826-62.045Z" transform="translate(323.076 68.062)" fill="#f47741"/>
      </g>
      <g id="Group_15955" data-name="Group 15955" transform="translate(0 0)">
        <path id="Path_1657" data-name="Path 1657" d="M-485.331-240.358a4.341,4.341,0,0,1-.356-1.3A22.77,22.77,0,0,0-491.26-253.3a18.11,18.11,0,0,0-9.784-5.3,27.415,27.415,0,0,0-14.129.618A18,18,0,0,0-526.3-247.865a27.984,27.984,0,0,0-2.144,7.293.579.579,0,0,1-.157.365,41.24,41.24,0,0,0,1.326,17.128,27.412,27.412,0,0,0,6.769,9.967,23.889,23.889,0,0,0,9.092,5.458,13.944,13.944,0,0,0,6.867.494,20.082,20.082,0,0,0,5.71-2.056,25.861,25.861,0,0,0,7.544-6.121,26.987,26.987,0,0,0,4.64-7.764,1.371,1.371,0,0,1,.07-.149A41.408,41.408,0,0,0-485.331-240.358Zm-4.734,15.486a22.683,22.683,0,0,1-12.8,13.154,11.023,11.023,0,0,1-9.38-.482,23.157,23.157,0,0,1-8.963-7.613,1.69,1.69,0,0,1-.1-.223c.884.357,1.709.691,2.563.941a31.151,31.151,0,0,0,6.1,1.03c.181.016.373-.027.511.179a4.932,4.932,0,0,0,3.736,2.078,5.942,5.942,0,0,0,4.66-1.164,2.892,2.892,0,0,0-.248-4.952c-2.391-1.62-6.407-1.271-8.014.918a.389.389,0,0,1-.382.189c-3.387-.274-6.679-.871-9.583-2.8-.128-.085-.244-.188-.376-.264-1.8-1.048-2.238-2.839-2.581-4.692a27.137,27.137,0,0,1-.4-6.466c.015-.271.086-.4.364-.462,5.069-1.178,7.909-4.558,9.244-9.406a12.434,12.434,0,0,0,.314-1.633c.072-.53.087-1.068.131-1.66a1.244,1.244,0,0,1,.526.556,16.9,16.9,0,0,0,9.557,6.931c1.459.452,2.928.874,4.343,1.464a10.9,10.9,0,0,1,1.85,1,7.477,7.477,0,0,0-1.553-3.07,20.615,20.615,0,0,1,2.652.381,23.167,23.167,0,0,1,7.614,2.752,3,3,0,0,1,1.672,2.756A25.8,25.8,0,0,1-490.065-224.872Z" transform="translate(536.481 265.054)" fill="#155093"/>
        <path id="Union_8" data-name="Union 8" d="M-4325.061-1982.036a4.933,4.933,0,0,1-3.736-2.079c-.138-.205-.33-.163-.511-.179a31.171,31.171,0,0,1-6.1-1.03c-.854-.25-1.679-.584-2.563-.942l-6.559-3.586a1.5,1.5,0,0,0-.259-.025c-.393-.007-.785,0-1.176.007a15.611,15.611,0,0,1-2.671-.107,5.275,5.275,0,0,1-4.18-3.216,4.668,4.668,0,0,1-.322-1.969c-.017-2.052-.01-4.1-.005-6.155a4.7,4.7,0,0,1,1.979-3.895,1.579,1.579,0,0,0,.7-1.38,27.948,27.948,0,0,1,3.244-13.1,20.334,20.334,0,0,1,6.988-7.413,27.639,27.639,0,0,1,12.191-3.953,44.11,44.11,0,0,1,6.716-.174,29.236,29.236,0,0,1,13.277,3.5,20.7,20.7,0,0,1,8.3,8.609,27.013,27.013,0,0,1,2.814,10.188,21.09,21.09,0,0,1,.145,2.694.825.825,0,0,0,.382.78,4.8,4.8,0,0,1,2.226,3.694v7.478a5.1,5.1,0,0,1-.871,2.153,5.558,5.558,0,0,1-4.569,2.253c-.958.026-1.917.019-2.875,0a1.219,1.219,0,0,0-.261.021,41.991,41.991,0,0,0,1.154-16.477,5.339,5.339,0,0,0,1.233-.022c.261-.02.31-.1.3-.342a30.621,30.621,0,0,0-1.431-8.286c-2.079-6.138-6.355-9.952-12.453-11.833a34,34,0,0,0-10.234-1.3,30.144,30.144,0,0,0-11.21,2.051,17.472,17.472,0,0,0-7.733,5.931,22.658,22.658,0,0,0-3.969,12.271c-.029.485-.319,1.146,0,1.413a1.353,1.353,0,0,0,.909.107,3.754,3.754,0,0,1,.536-.017h.012a44.154,44.154,0,0,0,.226,12.524l2.945,1.71c1.634.951,3.718,2.2,3.845,2.28,2.9,1.926,6.2,2.522,9.583,2.8a.389.389,0,0,0,.381-.189c1.607-2.188,5.623-2.538,8.015-.918a2.891,2.891,0,0,1,.248,4.951,5.622,5.622,0,0,1-3.646,1.23A8.165,8.165,0,0,1-4325.061-1982.036Z" transform="translate(4353.153 2031.283)" fill="#f47741"/>
      </g>
    </g>
  </g>
</svg>
