<svg xmlns="http://www.w3.org/2000/svg" width="60.861" height="71.611" viewBox="0 0 60.861 71.611">
  <g id="contract_1_" data-name="contract (1)" transform="translate(-0.008 0)">
    <path id="Path_805" data-name="Path 805" d="M1.2,64.447H35.361l1.255,6.206a1.194,1.194,0,0,0,1.657.853l6.976-3.121a1.194,1.194,0,0,0,.675-.816l1.087-4.646,3.211-6.238,6.552-12.734,1.061.547a1.193,1.193,0,0,1,.515,1.606l-2.731,5.3A1.194,1.194,0,1,0,57.742,52.5l2.731-5.307a3.58,3.58,0,0,0-1.552-4.822l-1.062-.545.545-1.061a4.774,4.774,0,1,0-8.49-4.368l-1.092,2.122-1.081,2.114V1.193A1.194,1.194,0,0,0,46.549,0H13.132c-.026,0-.048.013-.074.016a1.147,1.147,0,0,0-.313.062,1.118,1.118,0,0,0-.119.042,1.2,1.2,0,0,0-.336.227L.354,12.281v.006a1.2,1.2,0,0,0-.228.338,1.11,1.11,0,0,0-.04.112,1.2,1.2,0,0,0-.064.316c0,.026-.015.048-.015.073V63.254A1.194,1.194,0,0,0,1.2,64.447Zm42.539,2-5.075,2.268-1.1-5.45L39.8,60.708l1.295.666L40,63.5a1.193,1.193,0,1,0,2.121,1.092l1.092-2.122,1.295.666Zm1.633-5.55L43.249,59.8l-2.122-1.092,2.184-4.245,4.245,2.184Zm6.675-23.408a2.387,2.387,0,1,1,4.244,2.184l-.545,1.061L51.5,38.549Zm-1.638,3.183,4.244,2.184L48.646,54.527,44.4,52.343ZM11.938,4.074v7.86H4.078ZM2.39,14.322H13.132a1.194,1.194,0,0,0,1.193-1.193V2.387h31.03V45.268L38.523,58.549,35.441,62.06H2.39Zm0,0" transform="translate(0)" fill="#155093"/>
    <path id="Path_806" data-name="Path 806" d="M49.17,114.387H80.2a1.193,1.193,0,1,0,0-2.387H49.17a1.193,1.193,0,1,0,0,2.387Zm0,0" transform="translate(-40.812 -95.291)" fill="#155093"/>
    <path id="Path_807" data-name="Path 807" d="M49.17,162.387H80.2a1.193,1.193,0,1,0,0-2.387H49.17a1.193,1.193,0,0,0,0,2.387Zm0,0" transform="translate(-40.812 -136.131)" fill="#155093"/>
    <path id="Path_808" data-name="Path 808" d="M49.17,202.387H80.2a1.193,1.193,0,1,0,0-2.387H49.17a1.193,1.193,0,0,0,0,2.387Zm0,0" transform="translate(-40.812 -170.163)" fill="#155093"/>
    <path id="Path_809" data-name="Path 809" d="M81.394,249.193A1.194,1.194,0,0,0,80.2,248H49.17a1.193,1.193,0,1,0,0,2.387H80.2A1.194,1.194,0,0,0,81.394,249.193Zm0,0" transform="translate(-40.813 -211.002)" fill="#155093"/>
    <path id="Path_810" data-name="Path 810" d="M159.492,369.193A1.194,1.194,0,0,0,158.3,368H145.17a1.193,1.193,0,1,0,0,2.387H158.3A1.193,1.193,0,0,0,159.492,369.193Zm0,0" transform="translate(-122.491 -313.1)" fill="#155093"/>
    <path id="Path_811" data-name="Path 811" d="M167.73,297.665l-2.148,2.864a3.573,3.573,0,0,1-1.1.962,3.329,3.329,0,0,0-5.411-2.587,3.58,3.58,0,0,0-7.1.671v3.58a1.193,1.193,0,1,0,2.387,0v-3.58a1.193,1.193,0,1,1,2.387,0v3.58a1.193,1.193,0,0,0,2.262.533l1.3-2.61a.942.942,0,1,1,1.684.841l-.351.7a1.194,1.194,0,0,0,1.068,1.728,6,6,0,0,0,4.774-2.387l2.148-2.864a1.194,1.194,0,0,0-1.91-1.432Zm0,0" transform="translate(-129.297 -251.836)" fill="#155093"/>
  </g>
</svg>
