<svg xmlns="http://www.w3.org/2000/svg" width="42.836" height="36.826" viewBox="0 0 42.836 36.826">
  <g id="money" transform="translate(0)">
    <g id="Group_299" data-name="Group 299" transform="translate(0)">
      <g id="Group_298" data-name="Group 298" transform="translate(0 0)">
        <path id="Path_799" data-name="Path 799" d="M42.776,49.427h0L34.688,29.119a.841.841,0,0,0-1.092-.47h0L.785,41.713a.824.824,0,0,0-.336.267.832.832,0,0,0-.448.73V64.574a.841.841,0,0,0,.841.841H36.158A.841.841,0,0,0,37,64.574V52.633l5.308-2.114A.841.841,0,0,0,42.776,49.427ZM35.317,63.733H1.682V43.552H35.317ZM14.03,41.874l14.08-5.61a6.69,6.69,0,0,0,4.821,2.079l1.4,3.532ZM37,50.827V42.711a.841.841,0,0,0-.841-.841h-.013l-1.782-4.475a.7.7,0,0,0-.069-.106.831.831,0,0,0-.879-.647,5.029,5.029,0,0,1-4.409-1.9.833.833,0,0,0-1.079-.188.944.944,0,0,0-.119.022L10.62,41.421a.831.831,0,0,0-.462.449H4.938l28.5-11.348L40.9,49.27Z" transform="translate(0 -28.588)" fill="#155093"/>
        <path id="Path_800" data-name="Path 800" d="M32.6,199.768A5.028,5.028,0,0,1,36,203.158a.841.841,0,0,0,.806.6.771.771,0,0,0,.129-.019.781.781,0,0,0,.115.024H57.227a.724.724,0,0,0,.1-.021.783.783,0,0,0,.946-.576v0a5.027,5.027,0,0,1,3.395-3.395.83.83,0,0,0,.577-.925.848.848,0,0,0,.024-.124V191.99a.759.759,0,0,0-.025-.124.829.829,0,0,0-.577-.925,5.023,5.023,0,0,1-3.393-3.4.831.831,0,0,0-.932-.577.8.8,0,0,0-.119-.024H37.045a.793.793,0,0,0-.125.025.831.831,0,0,0-.925.577,5.028,5.028,0,0,1-3.395,3.394.83.83,0,0,0-.577.925.847.847,0,0,0-.024.124v6.727a.775.775,0,0,0,.024.117A.833.833,0,0,0,32.6,199.768Zm1.081-7.436a6.673,6.673,0,0,0,3.7-3.7h19.5a6.674,6.674,0,0,0,3.706,3.7v6.044a6.68,6.68,0,0,0-3.7,3.7h-19.5a6.68,6.68,0,0,0-3.7-3.7Z" transform="translate(-28.636 -170.3)" fill="#155093"/>
        <path id="Path_801" data-name="Path 801" d="M133.045,229.036A5.045,5.045,0,1,0,128,223.99,5.045,5.045,0,0,0,133.045,229.036Zm0-8.409a3.364,3.364,0,1,1-3.364,3.364A3.364,3.364,0,0,1,133.045,220.627Z" transform="translate(-114.546 -198.936)" fill="#155093"/>
        <path id="Path_802" data-name="Path 802" d="M77.261,257.468A1.261,1.261,0,1,0,76,256.206,1.261,1.261,0,0,0,77.261,257.468Zm0-1.682a.42.42,0,1,1-.42.42A.42.42,0,0,1,77.261,255.786Z" transform="translate(-68.012 -231.152)" fill="#155093"/>
        <path id="Path_803" data-name="Path 803" d="M253.261,257.468A1.261,1.261,0,1,0,252,256.206,1.261,1.261,0,0,0,253.261,257.468Zm0-1.682a.42.42,0,1,1-.42.42A.42.42,0,0,1,253.261,255.786Z" transform="translate(-225.512 -231.152)" fill="#155093"/>
      </g>
    </g>
  </g>
</svg>
