<svg xmlns="http://www.w3.org/2000/svg" width="36.827" height="36.827" viewBox="0 0 36.827 36.827">
  <g id="social-media" transform="translate(0 0)">
    <path id="Path_792" data-name="Path 792" d="M18.422,10.321h7.192a5.658,5.658,0,1,0,0-2.158H18.422A9.232,9.232,0,1,0,14.974,16.5l5.359,5.359A9.2,9.2,0,0,0,18.4,26.505H11.212a5.658,5.658,0,1,0,0,2.158H18.4a9.251,9.251,0,1,0,3.455-8.33l-5.36-5.36a9.226,9.226,0,0,0,1.923-4.652Zm12.746-4.58a3.5,3.5,0,1,1-3.5,3.5A3.5,3.5,0,0,1,31.168,5.742ZM2.158,9.243a7.085,7.085,0,1,1,12.457,4.624,5.585,5.585,0,0,0-2.547-3.346,3.582,3.582,0,1,0-5.65,0A5.585,5.585,0,0,0,3.87,13.867,7.078,7.078,0,0,1,2.158,9.243Zm5.661-.92A1.424,1.424,0,1,1,9.242,9.746,1.425,1.425,0,0,1,7.819,8.323ZM5.837,15.46a3.409,3.409,0,1,1,6.811,0,7.119,7.119,0,0,1-6.811,0ZM5.658,31.085a3.5,3.5,0,1,1,3.5-3.5A3.5,3.5,0,0,1,5.658,31.085ZM24.179,33.8a3.415,3.415,0,0,1,3.4-3.556h0a3.413,3.413,0,0,1,3.4,3.556,7.119,7.119,0,0,1-6.811,0Zm1.982-7.137a1.424,1.424,0,1,1,1.424,1.424h0A1.425,1.425,0,0,1,26.16,26.664Zm8.508.92a7.079,7.079,0,0,1-1.713,4.624,5.585,5.585,0,0,0-2.547-3.346,3.582,3.582,0,1,0-5.65,0,5.585,5.585,0,0,0-2.547,3.346,7.086,7.086,0,1,1,12.457-4.624Z" transform="translate(0 0)" fill="#155093"/>
  </g>
</svg>
