<svg xmlns="http://www.w3.org/2000/svg" width="36.824" height="36.826" viewBox="0 0 36.824 36.826">
  <g id="contract" transform="translate(0)">
    <g id="Group_287" data-name="Group 287" transform="translate(0)">
      <g id="Group_286" data-name="Group 286">
        <path id="Path_793" data-name="Path 793" d="M35.893,11.589a3.241,3.241,0,0,0-4.578,0l-3.246,3.249V6.288A3.215,3.215,0,0,0,27.121,4L24.07.948A3.215,3.215,0,0,0,21.781,0H3.255A3.24,3.24,0,0,0,.018,3.237V33.589a3.24,3.24,0,0,0,3.237,3.237H24.833a3.24,3.24,0,0,0,3.237-3.237V24l7.824-7.83A3.235,3.235,0,0,0,35.893,11.589ZM21.6,2.158a1.178,1.178,0,0,1,.948.316L25.6,5.525a1.178,1.178,0,0,1,.316.948H21.6Zm4.315,31.432a1.08,1.08,0,0,1-1.079,1.079H3.255a1.08,1.08,0,0,1-1.079-1.079V3.237A1.08,1.08,0,0,1,3.255,2.158H19.438V7.552a1.079,1.079,0,0,0,1.079,1.079h5.394V17l-3.183,3.186L21.2,21.709a1.079,1.079,0,0,0-.261.422l-1.526,4.577a1.079,1.079,0,0,0,1.365,1.365l4.577-1.526a1.078,1.078,0,0,0,.422-.261l.131-.131v7.434Zm-2.42-11.118L25.018,24l-.583.583-2.289.763.763-2.289Zm3.051,0-1.526-1.526L30.2,15.755l1.526,1.526Zm7.824-7.83-1.112,1.113-1.526-1.526,1.113-1.113a1.079,1.079,0,1,1,1.525,1.526Z" transform="translate(-0.018 0)" fill="#155093"/>
      </g>
    </g>
    <g id="Group_289" data-name="Group 289" transform="translate(4.316 10.789)">
      <g id="Group_288" data-name="Group 288">
        <path id="Path_794" data-name="Path 794" d="M76.2,150H61.1a1.079,1.079,0,1,0,0,2.158H76.2a1.079,1.079,0,0,0,0-2.158Z" transform="translate(-60.018 -150)" fill="#155093"/>
      </g>
    </g>
    <g id="Group_291" data-name="Group 291" transform="translate(4.316 15.104)">
      <g id="Group_290" data-name="Group 290">
        <path id="Path_795" data-name="Path 795" d="M71.886,210H61.1a1.079,1.079,0,1,0,0,2.158H71.886a1.079,1.079,0,0,0,0-2.158Z" transform="translate(-60.018 -210)" fill="#155093"/>
      </g>
    </g>
    <g id="Group_293" data-name="Group 293" transform="translate(4.316 19.42)">
      <g id="Group_292" data-name="Group 292">
        <path id="Path_796" data-name="Path 796" d="M71.886,270H61.1a1.079,1.079,0,1,0,0,2.158H71.886a1.079,1.079,0,1,0,0-2.158Z" transform="translate(-60.018 -270)" fill="#155093"/>
      </g>
    </g>
    <g id="Group_295" data-name="Group 295" transform="translate(4.316 23.736)">
      <g id="Group_294" data-name="Group 294">
        <path id="Path_797" data-name="Path 797" d="M71.886,330H61.1a1.079,1.079,0,1,0,0,2.158H71.886a1.079,1.079,0,1,0,0-2.158Z" transform="translate(-60.018 -330)" fill="#155093"/>
      </g>
    </g>
    <g id="Group_297" data-name="Group 297" transform="translate(12.947 30.353)">
      <g id="Group_296" data-name="Group 296">
        <path id="Path_798" data-name="Path 798" d="M187.57,422H181.1a1.079,1.079,0,0,0,0,2.158h6.473a1.079,1.079,0,1,0,0-2.158Z" transform="translate(-180.018 -422)" fill="#155093"/>
      </g>
    </g>
  </g>
</svg>
