<svg xmlns="http://www.w3.org/2000/svg" width="55.889" height="55.726" viewBox="0 0 55.889 55.726">
  <g id="Group_276" data-name="Group 276" transform="translate(2565.925 -2641.093)">
    <path id="Path_783" data-name="Path 783" d="M-2423.474,2815.534a9.9,9.9,0,0,1,8.354,3.627,9.661,9.661,0,0,1,2.275,6.418,9.906,9.906,0,0,1-8.56,9.735,9.952,9.952,0,0,1-11.169-8.56c-5.38,2.05-10.491,1.587-15.184-1.822a14.7,14.7,0,0,1-6.1-10.269,15.3,15.3,0,0,1,14.379-17.423,14.672,14.672,0,0,1,12.405,5.246A15.311,15.311,0,0,1-2423.474,2815.534Zm-6.6,3.26c-.047.033.005.008.042-.031a10.429,10.429,0,0,1,4.388-2.816.724.724,0,0,0,.365-.471,12.908,12.908,0,0,0,.26-4.341,13.7,13.7,0,0,0-16.912-11.751,13.788,13.788,0,0,0-10.363,12.515,13.525,13.525,0,0,0,3.171,9.527c.1-.156.187-.278.269-.4a8.554,8.554,0,0,1,7.189-4.108c2.018-.066,4.04-.059,6.058.005a8.89,8.89,0,0,1,2.631.464A26.74,26.74,0,0,1-2430.073,2818.794Zm15.54,6.728a8.293,8.293,0,0,0-8.171-8.21,8.262,8.262,0,0,0-8.217,8.208,8.184,8.184,0,0,0,8.159,8.177A8.207,8.207,0,0,0-2414.534,2825.523Zm-16.678-5.227a6.148,6.148,0,0,0-3.806-1.659c-2.372-.048-4.754-.137-7.116.018a6.742,6.742,0,0,0-5.7,4.051c.13.117.221.21.323.29.351.279.69.576,1.061.826a13.336,13.336,0,0,0,13.411,1.276c.177-.075.411-.274.425-.433A10.173,10.173,0,0,1-2431.212,2820.3Z" transform="translate(-99.359 -138.588)" fill="#155093"/>
    <path id="Path_784" data-name="Path 784" d="M-2218.092,2698.479c.242-1.378.49-2.852.767-4.32a.8.8,0,0,0-.256-.838c-1.046-.989-2.062-2.01-3.1-3.006-.289-.278-.568-.6-.337-.965a1.42,1.42,0,0,1,.842-.6c1.4-.241,2.808-.418,4.218-.585a.8.8,0,0,0,.712-.513c.611-1.26,1.258-2.5,1.869-3.762a.938.938,0,0,1,.89-.643.932.932,0,0,1,.836.638c.622,1.275,1.251,2.548,1.914,3.8a.967.967,0,0,0,.611.446c1.42.226,2.853.375,4.27.618a1.362,1.362,0,0,1,.84.6.894.894,0,0,1-.3,1.1c-1.01.973-2.017,1.949-3,2.95a.89.89,0,0,0-.207.664c.216,1.421.5,2.833.7,4.256a1.3,1.3,0,0,1-.251.943.878.878,0,0,1-1.133.075c-1.268-.678-2.555-1.32-3.82-2a.753.753,0,0,0-.818.006q-1.924,1.034-3.875,2.018A.892.892,0,0,1-2218.092,2698.479Zm9.128-1.355c-.19-1.152-.349-2.182-.535-3.208a1.379,1.379,0,0,1,.469-1.456,8.658,8.658,0,0,0,.77-.737c.486-.5.962-1.015,1.452-1.534-.763-.112-1.521-.218-2.278-.334-2.1-.322-1.52.148-2.488-1.782-.336-.669-.664-1.343-1.03-2.083-.5,1.021-.97,1.934-1.394,2.867a1.381,1.381,0,0,1-1.232.891c-1.062.11-2.118.293-3.013.422.726.8,1.472,1.633,2.236,2.451a1.08,1.08,0,0,1,.339,1.054c-.155.71-.246,1.435-.356,2.155-.06.388-.1.778-.169,1.274,1.076-.564,2.037-1.058,2.987-1.571a1.164,1.164,0,0,1,1.216,0C-2211.027,2696.06-2210.046,2696.557-2208.963,2697.124Z" transform="translate(-306.114 -37.42)" fill="#155093"/>
    <path id="Path_785" data-name="Path 785" d="M-2389.179,2656.449c.238-1.361.438-2.73.729-4.08a1.374,1.374,0,0,0-.436-1.469c-.937-.885-1.809-1.839-2.72-2.753-.285-.286-.535-.616-.3-.979a1.36,1.36,0,0,1,.8-.564c1.38-.236,2.771-.413,4.162-.582a.943.943,0,0,0,.836-.6c.591-1.249,1.236-2.471,1.842-3.713a.911.911,0,0,1,.851-.613.914.914,0,0,1,.851.615c.617,1.257,1.264,2.5,1.866,3.763a.855.855,0,0,0,.755.542c1.39.174,2.782.347,4.161.584a1.2,1.2,0,0,1,.838.573,1.173,1.173,0,0,1-.306.963c-.968,1.013-1.984,1.982-3,2.944a.969.969,0,0,0-.334,1.024c.271,1.316.482,2.645.711,3.97.068.394.121.8-.272,1.069a1.049,1.049,0,0,1-1.2,0c-1.2-.65-2.425-1.247-3.618-1.9a.993.993,0,0,0-1.074.012q-1.873,1.012-3.775,1.968A.893.893,0,0,1-2389.179,2656.449Zm1.972-1.484a21.654,21.654,0,0,0,2.2-1.171,2.265,2.265,0,0,1,2.871.005,20.928,20.928,0,0,0,2.184,1.163c-.183-1.159-.314-2.2-.52-3.217a1.455,1.455,0,0,1,.47-1.451c.737-.735,1.425-1.52,2.129-2.279-1.026-.169-2.139-.38-3.262-.523a1.082,1.082,0,0,1-.965-.708c-.283-.65-.611-1.28-.924-1.917-.167-.34-.342-.677-.561-1.11-.493,1.04-.955,1.954-1.362,2.892a1.485,1.485,0,0,1-1.367.964c-1.024.1-2.04.28-2.954.411.725.781,1.43,1.577,2.179,2.331a1.3,1.3,0,0,1,.43,1.3C-2386.877,2652.708-2387.018,2653.78-2387.207,2654.965Z" transform="translate(-154.402)" fill="#155093"/>
    <path id="Path_786" data-name="Path 786" d="M-2562.919,2697.463c.238-1.357.47-2.8.751-4.226a.993.993,0,0,0-.311-1.036c-1.025-.984-2.012-2.009-3.027-3-.286-.281-.565-.6-.332-.968a1.425,1.425,0,0,1,.842-.6c1.417-.246,2.85-.4,4.27-.628a.96.96,0,0,0,.612-.434c.663-1.255,1.287-2.531,1.918-3.8.181-.365.4-.785.845-.668a1.512,1.512,0,0,1,.851.683c.678,1.268,1.3,2.568,1.915,3.866a.759.759,0,0,0,.675.479c1.41.172,2.821.347,4.22.588a1.189,1.189,0,0,1,.83.586,1.191,1.191,0,0,1-.327.96c-1,1.039-2.038,2.036-3.084,3.026a.8.8,0,0,0-.256.838c.26,1.358.489,2.722.731,4.083a.974.974,0,0,1-.286,1.068c-.385.3-.717.144-1.083-.051-1.237-.659-2.49-1.285-3.723-1.952a.716.716,0,0,0-.77.027q-1.931,1.024-3.878,2.018A.894.894,0,0,1-2562.919,2697.463Zm9.27-1.479c-.039-.312-.06-.531-.094-.748-.14-.886-.277-1.772-.427-2.656a1.2,1.2,0,0,1,.4-1.157c.669-.626,1.322-1.269,1.979-1.908.123-.12.233-.254.4-.44-1.212-.173-2.315-.358-3.425-.476a1.069,1.069,0,0,1-.965-.7c-.454-.992-.951-1.964-1.475-3.036-.513,1.051-.986,2-1.441,2.96a1.247,1.247,0,0,1-1.063.782c-1.1.129-2.193.308-3.212.455.692.741,1.344,1.512,2.077,2.2a1.564,1.564,0,0,1,.525,1.64c-.216,1-.34,2.019-.514,3.1,1.058-.555,2.058-1.058,3.035-1.6a1.008,1.008,0,0,1,1.093-.006C-2555.759,2694.932-2554.739,2695.429-2553.649,2695.984Z" transform="translate(0 -36.383)" fill="#155093"/>
    <path id="Path_787" data-name="Path 787" d="M-2371.121,2847.668a6.8,6.8,0,0,1,6.82,6.8,6.866,6.866,0,0,1-6.929,6.712,6.807,6.807,0,0,1-6.764-6.8A6.857,6.857,0,0,1-2371.121,2847.668Zm5.132,6.845a5.179,5.179,0,0,0-5.142-5.084,5.18,5.18,0,0,0-5.176,5.05,5.187,5.187,0,0,0,5.123,5.106A5.13,5.13,0,0,0-2365.989,2854.513Z" transform="translate(-166.835 -183.387)" fill="#155093"/>
    <path id="Path_788" data-name="Path 788" d="M-2218.572,3020.353l3.888-3.408c.689-.6,1.374-1.213,2.066-1.812.515-.446.993-.446,1.374-.014.36.408.3.856-.215,1.31q-3.261,2.875-6.535,5.734a.875.875,0,0,1-1.413-.1c-.945-1.111-1.871-2.238-2.793-3.367a.839.839,0,0,1,.11-1.239.792.792,0,0,1,1.149.149c.694.783,1.36,1.592,2.039,2.389C-2218.808,3020.108-2218.7,3020.211-2218.572,3020.353Z" transform="translate(-304.944 -331.754)" fill="#155093"/>
  </g>
</svg>
