<svg xmlns="http://www.w3.org/2000/svg" width="49.048" height="56.99" viewBox="0 0 49.048 56.99">
  <g id="Group_15959" data-name="Group 15959" transform="translate(0 0)">
    <g id="Group_15960" data-name="Group 15960">
      <path id="Path_1665" data-name="Path 1665" d="M286.1,148.264c6.88,4.266,13.932,4.745,21.3,1.345.167,1.371.366,2.715.482,4.067a1.141,1.141,0,0,1-1.1,1.166,5.146,5.146,0,0,1-.589.009H287.193c-1.359,0-1.734-.447-1.584-1.806C285.783,151.485,286.067,149.937,286.1,148.264Z" transform="translate(-278.496 -111.629)" fill="#fff"/>
      <g id="Group_15960-2" data-name="Group 15960" transform="translate(0 0)">
        <path id="Path_1666" data-name="Path 1666" d="M285.864-48.977q-1.782-2.348-3.571-4.69c-2.707-3.557-.792-1.134-3.505-4.689a2.137,2.137,0,0,0-1.3-1.024,2.137,2.137,0,0,0-1.643.214c-.48.286-.642.125-.912-.237q-2.366-3.153-4.782-6.268c-.339-.434-.335-.659.074-1.056a18.69,18.69,0,0,0,5.991-13c.034-13.062-10.787-22.162-22.7-20.121a19.308,19.308,0,0,0-15.783,15.935A19.209,19.209,0,0,0,247.117-64c6.572,3.68,13.211,3.565,19.774-.15.26-.148.458-.423.775,0,1.691,2.262,3.411,4.5,5.125,6.746.147.192.212.3-.008.532a2.144,2.144,0,0,0-.822,1.558,2.144,2.144,0,0,0,.624,1.648c3.937,5.183,3.268,4.381,7.211,9.554a2.144,2.144,0,0,0,1.52.953,2.144,2.144,0,0,0,1.712-.536c.792-.586,1.564-1.188,2.345-1.782a2.224,2.224,0,0,0,1.11-1.628,2.224,2.224,0,0,0-.619-1.87ZM256.83-64.983a15.757,15.757,0,0,1-15.753-15.751,15.8,15.8,0,0,1,15.793-15.8,15.787,15.787,0,0,1,15.748,15.772A15.744,15.744,0,0,1,268-69.591,15.744,15.744,0,0,1,256.83-64.983Z" transform="translate(-237.457 100.133)" fill="#fff"/>
        <path id="Path_1667" data-name="Path 1667" d="M303.014-27.137a12.157,12.157,0,0,0-13.691-9.475A12.067,12.067,0,0,0,279.1-23.636a9.539,9.539,0,0,0,1.353,4.97,14.051,14.051,0,0,0,11.336,6.3,14.614,14.614,0,0,0,9.931-3.5,1.386,1.386,0,0,0,.546-.977c.209-1.98.452-3.948.85-5.9a10.522,10.522,0,0,0-.1-4.391ZM283.5-24.769a1.485,1.485,0,0,1-.783-1.309,1.485,1.485,0,0,1,.783-1.309,5.259,5.259,0,0,1,5.566.006,1.485,1.485,0,0,1,.785,1.31,1.485,1.485,0,0,1-.785,1.31,4.883,4.883,0,0,1-2.786.8,4.827,4.827,0,0,1-2.779-.811Zm9.6,10.042c-.661.032-1.325.006-1.988.006h0c-.614,0-1.228.021-1.841,0a1.475,1.475,0,0,1-1.153-.491,1.475,1.475,0,0,1-.36-1.2c0-1.072.505-1.671,1.5-1.692q1.914-.04,3.829,0c.953.019,1.46.613,1.467,1.642.009,1.082-.481,1.69-1.453,1.736Zm5.666-9.924a5.041,5.041,0,0,1-2.593.693,5.033,5.033,0,0,1-2.669-.714,1.537,1.537,0,0,1-.911-1.386,1.537,1.537,0,0,1,.878-1.407,5.386,5.386,0,0,1,5.333-.014,1.54,1.54,0,0,1,.911,1.427,1.54,1.54,0,0,1-.95,1.4Z" transform="translate(-272.937 46.089)" fill="#fff"/>
      </g>
    </g>
  </g>
</svg>
