<svg id="ic_vpn_key_1" data-name="ic_vpn_key 1" xmlns="http://www.w3.org/2000/svg" xmlns:xlink="http://www.w3.org/1999/xlink" width="31.472" height="31.472" viewBox="0 0 31.472 31.472">
  <defs>
    <clipPath id="clip-path">
      <path id="Mask" d="M26.182,15.709H20.946V10.473h-5.7a7.854,7.854,0,1,1,0-5.237H28.8v5.237H26.182v5.235ZM7.855,5.236a2.619,2.619,0,1,0,2.618,2.619A2.622,2.622,0,0,0,7.855,5.236Z" transform="translate(0 20.364) rotate(-45)" fill="#d1d1d1"/>
    </clipPath>
  </defs>
  <path id="Mask-2" data-name="Mask" d="M26.182,15.709H20.946V10.473h-5.7a7.854,7.854,0,1,1,0-5.237H28.8v5.237H26.182v5.235ZM7.855,5.236a2.619,2.619,0,1,0,2.618,2.619A2.622,2.622,0,0,0,7.855,5.236Z" transform="translate(0 20.364) rotate(-45)" fill="#192853"/>
</svg>
