<svg xmlns="http://www.w3.org/2000/svg" width="88.503" height="27.416" viewBox="0 0 88.503 27.416">
  <g id="left" transform="translate(73)">
    <g id="Group_15954" data-name="Group 15954" transform="translate(-73)">
      <path id="Path_1657" data-name="Path 1657" d="M-72.219,98.184h85.06L2.472,86.8a.917.917,0,0,1,0-1.211.731.731,0,0,1,1.1,0l11.7,12.851a.917.917,0,0,1,0,1.211L3.575,112.5a.731.731,0,0,1-1.1,0,.917.917,0,0,1,0-1.211L12.841,99.9h-85.06a.821.821,0,0,1-.78-.857A.821.821,0,0,1-72.219,98.184Z" transform="translate(72.999 -85.333)" fill="#a6a6b5"/>
    </g>
  </g>
</svg>
