<svg xmlns="http://www.w3.org/2000/svg" width="42.499" height="42.499" viewBox="0 0 42.499 42.499">
  <path id="Path_273" data-name="Path 273" d="M39.179,23.824V17.431C39.179,7.736,30.82,0,21.25,0,11.715,0,3.32,7.708,3.32,17.431v6.393a4.15,4.15,0,0,0,.07,8.146,4.157,4.157,0,0,0,4.081,3.39h1.66a.83.83,0,0,0,.83-.83V21.25a.83.83,0,0,0-.83-.83H7.471a4.128,4.128,0,0,0-2.49.833V18.186a4.55,4.55,0,0,0,3.632-3.5c1.245-5.532,6.678-9.7,12.638-9.7s11.4,4.176,12.646,9.714a4.541,4.541,0,0,0,3.623,3.492v3.066a4.128,4.128,0,0,0-2.49-.833h-1.66a.83.83,0,0,0-.83.83V34.531a.83.83,0,0,0,.83.83h1.66a4.128,4.128,0,0,0,2.475-.822,4.155,4.155,0,0,1-4.135,3.81h-8.9a3.32,3.32,0,1,0,0,1.66h8.9a5.817,5.817,0,0,0,5.81-5.81V31.956a4.15,4.15,0,0,0,0-8.132ZM7.471,22.08H8.3V33.7h-.83a2.493,2.493,0,0,1-2.49-2.49.83.83,0,0,0-.83-.83,2.49,2.49,0,0,1,0-4.98.83.83,0,0,0,.83-.83A2.493,2.493,0,0,1,7.471,22.08Zm28.045-7.75C34.1,8.053,27.969,3.32,21.25,3.32S8.4,8.049,6.992,14.32a2.9,2.9,0,0,1-1.979,2.152C5.544,8.349,12.763,1.66,21.25,1.66S36.955,8.349,37.486,16.472A2.893,2.893,0,0,1,35.515,14.329ZM38.349,30.38a.83.83,0,0,0-.83.83,2.493,2.493,0,0,1-2.49,2.49H34.2V22.08h.83a2.493,2.493,0,0,1,2.49,2.49.83.83,0,0,0,.83.83,2.49,2.49,0,0,1,0,4.98Z" fill="#155093"/>
</svg>
