<svg id="Group_15958" data-name="Group 15958" xmlns="http://www.w3.org/2000/svg" width="51.996" height="52.138" viewBox="0 0 51.996 52.138">
  <path id="Path_1660" data-name="Path 1660" d="M494.256-549.753a.9.9,0,0,1,.045.17v2.524h-.4l-20.678,0h-.467c-1,.021-1.183.194-1.183,1.211q-.006,12.059,0,24.119a4.535,4.535,0,0,0,.049.548.563.563,0,0,0,.562.534c.31.026.622.035.933.035h30.573c3.326,0,6.652.014,9.978.021h.3c1.01-.019,1.344-.351,1.344-1.37q0-4.352-.017-8.7a.813.813,0,0,1,.291-.652c.777-.743,1.52-1.515,2.336-2.33.017.194.036.311.036.426v16.688a6.749,6.749,0,0,1-.1,1.14,2.829,2.829,0,0,1-2.621,2.539,8.352,8.352,0,0,1-1.142.079q-7.41.008-14.819,0h-.5c.028.433.05.823.08,1.212.044.593.1,1.184.135,1.778a3.676,3.676,0,0,0,1.88,3.133q.983.588,1.964,1.181c.12.073.284.134.338.245a1.2,1.2,0,0,1,.18.68c-.025.122-.347.261-.535.262-3.212.015-6.426.008-9.639.007-2.93,0-5.86.007-8.79-.012a.9.9,0,0,1-.68-.28c-.179-.3.086-.573.332-.737.636-.423,1.275-.847,1.942-1.208a3.9,3.9,0,0,0,2.158-3.543c.033-.887.116-1.772.182-2.718H472.907a10.233,10.233,0,0,1-1.185-.071,2.933,2.933,0,0,1-2.782-3.038c-.025-.31-.027-.622-.027-.933v-28.916A8.747,8.747,0,0,1,469-547a2.855,2.855,0,0,1,2.684-2.667,8.022,8.022,0,0,1,1.142-.084q10.53-.008,21.061,0Zm1.278,33.171a2.136,2.136,0,0,0-.589-1.544,2.135,2.135,0,0,0-1.514-.661,2.152,2.152,0,0,0-2.1,2.161,2.148,2.148,0,0,0,.61,1.536,2.147,2.147,0,0,0,1.52.648A2.142,2.142,0,0,0,495.534-516.582Z" transform="translate(-468.912 556.41)" fill="#fff"/>
  <path id="Path_1661" data-name="Path 1661" d="M822.169-621.558a25.494,25.494,0,0,1-2.976,11.261,20.716,20.716,0,0,1-8.079,7.98,1.891,1.891,0,0,1-1.981-.036,20.69,20.69,0,0,1-10.217-13.7,30.514,30.514,0,0,1-.768-6.435,1.931,1.931,0,0,1,.482-1.543,1.931,1.931,0,0,1,1.486-.636,16.423,16.423,0,0,0,8.867-3.034,1.968,1.968,0,0,1,2.448.066,15.591,15.591,0,0,0,6.693,2.733c.685.1,1.377.164,2.067.224a1.97,1.97,0,0,1,1.461.634,1.97,1.97,0,0,1,.515,1.507C822.168-622.208,822.169-621.887,822.169-621.558Zm-20.537,6.407c.485,3.282,5.99,9.985,8.6,10.47v-10.431h.587c2.534,0,5.067-.007,7.6.007a.467.467,0,0,0,.347-.087.467.467,0,0,0,.184-.307,23.985,23.985,0,0,0,1.012-6.394,3.436,3.436,0,0,0-.03-.367,18.122,18.122,0,0,1-9.751-3.328v10.438Z" transform="translate(-770.179 628.097)" fill="#fff"/>
  <path id="Path_1662" data-name="Path 1662" d="M543.025-447.446v1.779H541.5c0-.439-.024-.874.007-1.3.028-.388-.1-.534-.485-.665a11.106,11.106,0,0,1-2.356-1.02,3.145,3.145,0,0,1-1.377-3.331h2.648c.039.215.077.434.119.651a1.824,1.824,0,0,0,1.574,1.559,4.063,4.063,0,0,0,1.014.031,1.577,1.577,0,0,0,1.506-1.272,1.747,1.747,0,0,0-.767-2.033c-.791-.436-1.625-.793-2.436-1.2a15.58,15.58,0,0,1-1.613-.848,3.529,3.529,0,0,1-1.657-3.448,3.646,3.646,0,0,1,2.311-3.243,10.488,10.488,0,0,1,1.329-.434.409.409,0,0,0,.279-.161.409.409,0,0,0,.076-.313c-.021-.519-.006-1.04-.006-1.583h1.531v2.008c2.815.9,3.968,2.246,3.734,4.358h-2.693c-.05-.238-.1-.5-.16-.752a1.891,1.891,0,0,0-1.118-1.3,1.891,1.891,0,0,0-1.711.138,1.864,1.864,0,0,0-.74,1.471,1.864,1.864,0,0,0,.715,1.484c.767.472,1.609.823,2.417,1.228.544.272,1.1.514,1.629.819a3.547,3.547,0,0,1,1.756,3.557,3.426,3.426,0,0,1-2.088,3.188A20.034,20.034,0,0,1,543.025-447.446Z" transform="translate(-531.392 478.193)" fill="#fff"/>
  <path id="Path_1663" data-name="Path 1663" d="M680.915-301.285h8.737a3.773,3.773,0,0,1,.508.018,1.017,1.017,0,0,1,.882,1.029,1.026,1.026,0,0,1-.894,1.019,3.42,3.42,0,0,1-.423.015H672.033a2.144,2.144,0,0,1-.628-.064,1.006,1.006,0,0,1-.663-1.108,1,1,0,0,1,.88-.891,4.2,4.2,0,0,1,.508-.016Z" transform="translate(-653.587 329.046)" fill="#fff"/>
  <path id="Path_1664" data-name="Path 1664" d="M677.549-380.1h5.69a1.02,1.02,0,0,1,.812.3,1.02,1.02,0,0,1,.291.814.992.992,0,0,1-.788.933,2.614,2.614,0,0,1-.548.042H671.883a1.055,1.055,0,0,1-.824-.266,1.056,1.056,0,0,1-.348-.793c0-.63.459-1.029,1.192-1.03Z" transform="translate(-653.564 401.164)" fill="#fff"/>
</svg>
