<svg id="campaign_1_" data-name="campaign (1)" xmlns="http://www.w3.org/2000/svg" width="41.754" height="41.754" viewBox="0 0 41.754 41.754">
  <g id="Group_83" data-name="Group 83">
    <path id="Path_265" data-name="Path 265" d="M352.144,33.548h9.227a.612.612,0,1,0,0-1.223h-9.227a.612.612,0,0,0,0,1.223Z" transform="translate(-322.865 -29.689)" fill="#155093"/>
    <path id="Path_266" data-name="Path 266" d="M352.144,65.873h5.931a.612.612,0,0,0,0-1.223h-5.931a.612.612,0,0,0,0,1.223Z" transform="translate(-322.865 -59.378)" fill="#155093"/>
    <path id="Path_267" data-name="Path 267" d="M334.318,0h-14.5a.612.612,0,0,0-.612.612V8.52a.612.612,0,0,0,.612.612H321.1v1.777a.612.612,0,0,0,.977.491l3.05-2.268h9.189a.612.612,0,0,0,.612-.612V.612A.612.612,0,0,0,334.318,0Zm-.612,7.909h-8.78a.613.613,0,0,0-.365.121l-2.236,1.663V8.52a.612.612,0,0,0-.612-.612H320.43V1.223h13.276Z" transform="translate(-293.176 0)" fill="#155093"/>
    <path id="Path_268" data-name="Path 268" d="M35.051,43.96A6.716,6.716,0,0,0,28.4,49.839L26.655,48.1l.511-.975a2.25,2.25,0,0,0-.4-2.646L22.65,40.364a2.249,2.249,0,0,0-2.646-.4l-.975.511-1.488-1.489a.612.612,0,1,0-.865.865L28.406,51.579a6.68,6.68,0,0,0,1.513,3.4l-.835.835a.214.214,0,0,1-.3,0L11.309,38.344a.214.214,0,0,1,0-.3l1.631-1.631a.212.212,0,0,1,.3,0l1.418,1.418a.612.612,0,0,0,.865-.865L14.1,35.546a1.438,1.438,0,0,0-2.03,0l-1.632,1.632a1.44,1.44,0,0,0,0,2.031l.412.412.072,2a4.334,4.334,0,0,1-.515,2.208L4.555,54.717,1.706,57.566a1.436,1.436,0,0,0-.334,1.5l-.947.947a1.437,1.437,0,0,0,0,2.03l4.66,4.66a1.437,1.437,0,0,0,2.03,0l.947-.947a1.431,1.431,0,0,0,1.5-.335l.538-.538,1.141,1.6a.612.612,0,1,0,1-.711l-1.259-1.763,1.434-1.434.729-.393,4.284,6.231L15.5,70.337l-1.6-2.245a.612.612,0,1,0-1,.711l1.759,2.463a1.1,1.1,0,0,0,.213,1.263l1.165,1.165a1.106,1.106,0,0,0,1.564,0l3.029-3.029a1.107,1.107,0,0,0,0-1.564l-1.165-1.165a1.106,1.106,0,0,0-1.078-.283l-1.941-2.824,1.388-1.388a.612.612,0,0,0,.095-.743l-1.383-2.351,6.75-3.633A4.334,4.334,0,0,1,25.5,56.2l2,.072.413.413a1.44,1.44,0,0,0,2.031,0l.838-.839a6.677,6.677,0,0,0,4.262,1.532c.15,0,.3,0,.437-.015a.612.612,0,1,0-.084-1.22c-.113.008-.229.012-.353.012a5.483,5.483,0,1,1,2.791-.763.612.612,0,1,0,.624,1.052A6.708,6.708,0,0,0,35.051,43.96ZM5.949,65.837l-4.66-4.66a.212.212,0,0,1,0-.3l.849-.849,4.96,4.96-.849.849A.212.212,0,0,1,5.949,65.837ZM8.7,64.556a.212.212,0,0,1-.3,0L2.572,58.732h0a.212.212,0,0,1,0-.3l2.48-2.48,6.125,6.125Zm10.985,5.326-2.863,2.863-1-1,2.863-2.863ZM16.633,62.91l-.893.893L14.223,61.6l1.243-.669Zm8.914-7.934a5.559,5.559,0,0,0-2.832.66L12.152,61.322,5.805,54.975l5.685-10.563a5.56,5.56,0,0,0,.66-2.832l-.025-.69L26.237,55ZM20.572,41.044a1.031,1.031,0,0,1,1.213.185L25.9,45.342a1.032,1.032,0,0,1,.185,1.213l-.334.637-5.813-5.814Z" transform="translate(-0.005 -32.262)" fill="#155093"/>
    <path id="Path_269" data-name="Path 269" d="M404.5,185.406a.612.612,0,0,0-.312-.533l-5.272-2.966a.612.612,0,0,0-.911.533v5.931a.612.612,0,0,0,.911.533l5.272-2.966A.612.612,0,0,0,404.5,185.406Zm-5.272,1.92v-3.84l3.413,1.92Z" transform="translate(-365.543 -167.001)" fill="#155093"/>
  </g>
</svg>
