<svg xmlns="http://www.w3.org/2000/svg" width="100.193" height="125.119" viewBox="0 0 100.193 125.119">
  <g id="shield" transform="translate(-51)">
    <path id="Path_789" data-name="Path 789" d="M148.706,24.611A81.287,81.287,0,0,1,121.32,15.3,73.144,73.144,0,0,1,102.9.8a2.444,2.444,0,0,0-3.608,0A73.136,73.136,0,0,1,80.873,15.3a81.283,81.283,0,0,1-27.385,9.309A2.916,2.916,0,0,0,51,27.509v46.75a27.238,27.238,0,0,0,1.468,8.852,61.687,61.687,0,0,0,16.365,24.978,72.373,72.373,0,0,0,31.67,16.957,2.442,2.442,0,0,0,1.188,0,72.373,72.373,0,0,0,31.67-16.957,61.687,61.687,0,0,0,16.365-24.978,27.238,27.238,0,0,0,1.468-8.852V64.581a2.444,2.444,0,0,0-4.887,0v9.678a22.355,22.355,0,0,1-1.2,7.267,56.778,56.778,0,0,1-15.076,22.989,67.365,67.365,0,0,1-28.93,15.638,67.361,67.361,0,0,1-28.93-15.638A56.777,56.777,0,0,1,57.091,81.526a22.355,22.355,0,0,1-1.2-7.267V29.172a85.916,85.916,0,0,0,27.367-9.6A78.391,78.391,0,0,0,101.1,6,78.381,78.381,0,0,0,118.938,19.57a85.9,85.9,0,0,0,27.367,9.6V42.587a2.444,2.444,0,0,0,4.887,0V27.51a2.916,2.916,0,0,0-2.487-2.9Z" fill="#155093"/>
    <circle id="Ellipse_28" data-name="Ellipse 28" cx="2.444" cy="2.444" r="2.444" transform="translate(146.305 51.14)" fill="#155093"/>
    <path id="Path_790" data-name="Path 790" d="M146.781,65.857A84.54,84.54,0,0,1,132.914,56.2a2.444,2.444,0,0,0-3.185,0,84.549,84.549,0,0,1-13.867,9.658A90.135,90.135,0,0,1,93.238,74.7,2.924,2.924,0,0,0,91,77.55v38.729a17.477,17.477,0,0,0,.94,5.682,51.87,51.87,0,0,0,13.787,21,62.4,62.4,0,0,0,24.91,13.953,2.446,2.446,0,0,0,1.371,0,62.406,62.406,0,0,0,24.91-13.953,51.868,51.868,0,0,0,13.786-21,17.474,17.474,0,0,0,.94-5.682V77.55a2.924,2.924,0,0,0-2.238-2.847,90.146,90.146,0,0,1-22.624-8.846Zm19.974,50.422a12.6,12.6,0,0,1-.676,4.1,46.965,46.965,0,0,1-12.5,19.011,57.336,57.336,0,0,1-22.262,12.631,57.335,57.335,0,0,1-22.262-12.631,46.967,46.967,0,0,1-12.5-19.012,12.6,12.6,0,0,1-.675-4.1v-37.2a94.911,94.911,0,0,0,22.356-8.95,89.805,89.805,0,0,0,13.078-8.883A89.8,89.8,0,0,0,144.4,70.125a94.893,94.893,0,0,0,22.356,8.95v37.2Z" transform="translate(-30.225 -42.02)" fill="#155093"/>
    <path id="Path_791" data-name="Path 791" d="M223.558,186.265a5.6,5.6,0,1,1,4.982-8.176,2.444,2.444,0,0,0,4.341-2.247A10.455,10.455,0,0,0,226,170.461v-3.745a2.444,2.444,0,0,0-4.887,0v3.744a10.491,10.491,0,0,0,2.444,20.693,5.6,5.6,0,1,1-4.982,8.175,2.444,2.444,0,0,0-4.341,2.247,10.455,10.455,0,0,0,6.878,5.382V210.7a2.444,2.444,0,1,0,4.887,0v-3.744a10.491,10.491,0,0,0-2.443-20.693Z" transform="translate(-122.461 -124.128)" fill="#155093"/>
  </g>
</svg>
