<svg xmlns="http://www.w3.org/2000/svg" width="61.572" height="60.69" viewBox="0 0 61.572 60.69">
  <g id="Group_15947" data-name="Group 15947" transform="translate(0 0)">
    <g id="Group_15956" data-name="Group 15956">
      <g id="Group_15954" data-name="Group 15954" transform="translate(19.663 30.108)">
        <path id="Path_1655" data-name="Path 1655" d="M-431.884-61.778a3.165,3.165,0,0,1-3.082-3.187,3.17,3.17,0,0,1,1-2.239,3.17,3.17,0,0,1,2.3-.855,3.172,3.172,0,0,1,3.021,3.194,3.154,3.154,0,0,1-.977,2.217,3.153,3.153,0,0,1-2.261.87Z" transform="translate(434.966 68.062)" fill="#fff"/>
        <path id="Path_1656" data-name="Path 1656" d="M-304.7-61.779a3.158,3.158,0,0,1-3.076-3.192,3.166,3.166,0,0,1,1-2.238,3.166,3.166,0,0,1,2.3-.849,3.176,3.176,0,0,1,3.014,3.194,3.155,3.155,0,0,1-.979,2.218,3.154,3.154,0,0,1-2.264.868Z" transform="translate(323.751 68.063)" fill="#fff"/>
      </g>
      <g id="Group_15955" data-name="Group 15955" transform="translate(0 0)">
        <path id="Path_1657" data-name="Path 1657" d="M-483.4-239.524a4.53,4.53,0,0,1-.372-1.357,23.776,23.776,0,0,0-5.819-12.156,18.909,18.909,0,0,0-10.216-5.534,28.626,28.626,0,0,0-14.753.645,18.8,18.8,0,0,0-11.618,10.564,29.215,29.215,0,0,0-2.239,7.615.605.605,0,0,1-.164.381,43.06,43.06,0,0,0,1.384,17.885,28.623,28.623,0,0,0,7.068,10.407,24.944,24.944,0,0,0,9.493,5.7,14.56,14.56,0,0,0,7.17.516,20.971,20.971,0,0,0,5.962-2.147,27,27,0,0,0,7.877-6.391,28.182,28.182,0,0,0,4.845-8.107,1.43,1.43,0,0,1,.073-.156,43.238,43.238,0,0,0,1.307-17.864Zm-4.943,16.17a23.685,23.685,0,0,1-13.365,13.735,11.51,11.51,0,0,1-9.794-.5,24.181,24.181,0,0,1-9.359-7.949,1.772,1.772,0,0,1-.1-.233c.923.373,1.784.722,2.676.983a32.524,32.524,0,0,0,6.369,1.076c.189.017.39-.028.534.187a5.15,5.15,0,0,0,3.9,2.17,6.2,6.2,0,0,0,4.866-1.215,3.02,3.02,0,0,0,1.333-2.659,3.02,3.02,0,0,0-1.592-2.512c-2.5-1.692-6.69-1.327-8.368.959a.407.407,0,0,1-.4.2c-3.537-.286-6.974-.91-10.006-2.924-.134-.089-.255-.2-.393-.276-1.88-1.094-2.337-2.964-2.7-4.9a28.336,28.336,0,0,1-.418-6.752c.016-.283.09-.418.38-.482,5.293-1.23,8.258-4.759,9.652-9.821a12.981,12.981,0,0,0,.328-1.705c.075-.553.091-1.115.137-1.733a1.3,1.3,0,0,1,.549.581,17.647,17.647,0,0,0,9.979,7.237c1.523.472,3.057.913,4.535,1.529a11.379,11.379,0,0,1,1.932,1.044,7.808,7.808,0,0,0-1.622-3.206,21.521,21.521,0,0,1,2.769.4,24.19,24.19,0,0,1,7.95,2.874,3.133,3.133,0,0,1,1.746,2.878A26.939,26.939,0,0,1-488.347-223.354Z" transform="translate(536.807 265.32)" fill="#fff"/>
        <path id="Union_8" data-name="Union 8" d="M-4323.819-1979.865a5.15,5.15,0,0,1-3.9-2.171c-.145-.214-.345-.17-.534-.187a32.558,32.558,0,0,1-6.37-1.075,28.508,28.508,0,0,1-2.676-.984l-6.848-3.745a1.533,1.533,0,0,0-.271-.026c-.41-.008-.819,0-1.228.007a16.276,16.276,0,0,1-2.788-.112,5.506,5.506,0,0,1-4.364-3.358,4.868,4.868,0,0,1-.336-2.056c-.019-2.143-.011-4.281-.006-6.427a4.908,4.908,0,0,1,2.067-4.067,1.649,1.649,0,0,0,.731-1.441,29.181,29.181,0,0,1,3.387-13.679,21.232,21.232,0,0,1,7.3-7.741,28.861,28.861,0,0,1,12.729-4.128,46.034,46.034,0,0,1,7.012-.182,30.524,30.524,0,0,1,13.864,3.655,21.619,21.619,0,0,1,8.666,8.99,28.178,28.178,0,0,1,2.939,10.638,22.013,22.013,0,0,1,.151,2.813.859.859,0,0,0,.4.815,5.013,5.013,0,0,1,2.324,3.857v7.808a5.32,5.32,0,0,1-.91,2.248,5.806,5.806,0,0,1-4.771,2.352c-1,.027-2,.02-3,0a1.256,1.256,0,0,0-.273.022,43.833,43.833,0,0,0,1.206-17.2,5.574,5.574,0,0,0,1.288-.023c.272-.021.323-.1.313-.357a31.969,31.969,0,0,0-1.5-8.652c-2.171-6.409-6.635-10.392-13-12.356a35.5,35.5,0,0,0-10.686-1.358,31.48,31.48,0,0,0-11.706,2.142,18.241,18.241,0,0,0-8.074,6.193,23.659,23.659,0,0,0-4.145,12.813c-.03.506-.332,1.2,0,1.475a1.413,1.413,0,0,0,.949.112,3.922,3.922,0,0,1,.56-.018h.013a46.148,46.148,0,0,0,.236,13.077l3.075,1.786c1.706.993,3.882,2.3,4.015,2.381,3.028,2.011,6.474,2.633,10.006,2.924a.406.406,0,0,0,.4-.2c1.678-2.285,5.872-2.65,8.37-.959a3.016,3.016,0,0,1,1.592,2.512,3.018,3.018,0,0,1-1.333,2.658,5.869,5.869,0,0,1-3.807,1.284A8.52,8.52,0,0,1-4323.819-1979.865Z" transform="translate(4353.147 2031.292)" fill="#fff"/>
      </g>
    </g>
  </g>
</svg>
