<svg xmlns="http://www.w3.org/2000/svg" width="56.272" height="56.271" viewBox="0 0 56.272 56.271">
  <g id="testimonial" transform="translate(0 -0.005)">
    <g id="Group_258" data-name="Group 258" transform="translate(5.935 0.005)">
      <g id="Group_257" data-name="Group 257" transform="translate(0 0)">
        <path id="Path_774" data-name="Path 774" d="M61.678,7.878h-2c.3-2.227,1.532-2.339,2.1-2.39a1.1,1.1,0,0,0,1-1.095V1.1a1.1,1.1,0,0,0-1.161-1.1C58.141.2,54,1.956,54,9.2v5.72a1.733,1.733,0,0,0,1.731,1.731h5.946a1.733,1.733,0,0,0,1.731-1.732V9.609A1.733,1.733,0,0,0,61.678,7.878Zm-.467,6.578H56.2V9.2c0-5.057,2.249-6.469,4.38-6.868V3.491c-1.472.448-3.166,1.771-3.166,5.486a1.1,1.1,0,0,0,1.1,1.1h2.7Z" transform="translate(-54 -0.005)" fill="#155093"/>
      </g>
    </g>
    <g id="Group_260" data-name="Group 260" transform="translate(17.171 0.005)">
      <g id="Group_259" data-name="Group 259" transform="translate(0 0)">
        <path id="Path_775" data-name="Path 775" d="M163.912,7.878h-2c.3-2.227,1.532-2.339,2.1-2.39a1.1,1.1,0,0,0,1-1.095V1.1a1.1,1.1,0,0,0-1.161-1.1c-3.474.2-7.615,1.95-7.615,9.2v5.72a1.733,1.733,0,0,0,1.731,1.731h5.946a1.733,1.733,0,0,0,1.731-1.732V9.609A1.733,1.733,0,0,0,163.912,7.878Zm-.467,6.578h-5.013V9.2c0-5.057,2.249-6.469,4.38-6.868V3.491c-1.472.448-3.166,1.771-3.166,5.486a1.1,1.1,0,0,0,1.1,1.1h2.7Z" transform="translate(-156.234 -0.005)" fill="#155093"/>
      </g>
    </g>
    <g id="Group_262" data-name="Group 262" transform="translate(29.455 8.562)">
      <g id="Group_261" data-name="Group 261">
        <path id="Path_776" data-name="Path 776" d="M269.876,78.187a1.1,1.1,0,1,0,.322.777A1.107,1.107,0,0,0,269.876,78.187Z" transform="translate(-268 -77.865)" fill="#155093"/>
      </g>
    </g>
    <g id="Group_264" data-name="Group 264" transform="translate(0 8.562)">
      <g id="Group_263" data-name="Group 263">
        <path id="Path_777" data-name="Path 777" d="M36.738,77.864H35.353a1.1,1.1,0,1,0,0,2.2h1.385a17.337,17.337,0,0,1,3.577,34.3,1.1,1.1,0,0,0-.873,1.076v6.386l-6.77-6.77a1.1,1.1,0,0,0-.777-.322H19.534A17.34,17.34,0,0,1,4.373,88.985a1.1,1.1,0,1,0-1.921-1.069,19.539,19.539,0,0,0,17.082,29.016H31.44l8.324,8.324a1.1,1.1,0,0,0,1.876-.777V116.31a19.536,19.536,0,0,0-4.9-38.446Z" transform="translate(0 -77.864)" fill="#155093"/>
      </g>
    </g>
    <g id="Group_266" data-name="Group 266" transform="translate(13.512 19.512)">
      <g id="Group_265" data-name="Group 265">
        <path id="Path_778" data-name="Path 778" d="M151.087,177.492H124.036a1.1,1.1,0,1,0,0,2.2h27.051a1.1,1.1,0,1,0,0-2.2Z" transform="translate(-122.937 -177.492)" fill="#155093"/>
      </g>
    </g>
    <g id="Group_268" data-name="Group 268" transform="translate(13.512 25.373)">
      <g id="Group_267" data-name="Group 267">
        <path id="Path_779" data-name="Path 779" d="M151.087,230.825H124.036a1.1,1.1,0,1,0,0,2.2h27.051a1.1,1.1,0,1,0,0-2.2Z" transform="translate(-122.937 -230.825)" fill="#155093"/>
      </g>
    </g>
    <g id="Group_270" data-name="Group 270" transform="translate(13.512 31.235)">
      <g id="Group_269" data-name="Group 269">
        <path id="Path_780" data-name="Path 780" d="M151.087,284.158H124.036a1.1,1.1,0,0,0,0,2.2h27.051a1.1,1.1,0,1,0,0-2.2Z" transform="translate(-122.937 -284.158)" fill="#155093"/>
      </g>
    </g>
    <g id="Group_272" data-name="Group 272" transform="translate(26.144 37.097)">
      <g id="Group_271" data-name="Group 271">
        <path id="Path_781" data-name="Path 781" d="M253.389,337.492H238.97a1.1,1.1,0,1,0,0,2.2h14.419a1.1,1.1,0,1,0,0-2.2Z" transform="translate(-237.871 -337.492)" fill="#155093"/>
      </g>
    </g>
    <g id="Group_274" data-name="Group 274" transform="translate(19.942 37.097)">
      <g id="Group_273" data-name="Group 273">
        <path id="Path_782" data-name="Path 782" d="M182.563,337.491h-.018a1.1,1.1,0,0,0,0,2.2h.018a1.1,1.1,0,0,0,0-2.2Z" transform="translate(-181.446 -337.491)" fill="#155093"/>
      </g>
    </g>
  </g>
</svg>
