<svg xmlns="http://www.w3.org/2000/svg" width="75.297" height="90.178" viewBox="0 0 75.297 90.178">
  <g id="Group_16021" data-name="Group 16021" transform="translate(-300 -1113.196)">
    <g id="Post_a_Job_ic" data-name="Post a Job ic" transform="translate(300 1113.196)">
      <g id="Path_1677" data-name="Path 1677">
        <path id="Path_1714" data-name="Path 1714" d="M-2183.125-416.018c-3.617,0-6.583,0-9.351,0a11.752,11.752,0,0,1-8.355-3.044,10.841,10.841,0,0,1-3.159-8.02c-.007-5.7,0-11.491,0-17.093v-4.448c0-13.949,0-28.374.008-42.56a11.046,11.046,0,0,1,3.137-8.191,11.984,11.984,0,0,1,8.525-3.041l7.366,0h9.167c6.392,0,13.234,0,20.024-.024h.015a3.218,3.218,0,0,1,2.546.984c2.1,2.09,4.251,4.2,6.325,6.235,2.923,2.859,5.942,5.815,8.857,8.769a4.94,4.94,0,0,1,1.454,2.994c.1,8.2.081,16.544.073,24.612,0,2.176-.007,4.426-.007,6.639v.023c-.686-.2-1.38-.39-2.074-.588l-2.03-.574v-30.389h-4.251c-.819,0-1.506,0-2.14,0a9.237,9.237,0,0,1-6.532-2.326,8.493,8.493,0,0,1-2.4-6.266c-.007-1.23-.007-2.457-.007-3.756.007-.623.007-1.26.007-1.92v-.554h-21.928c-5.565,0-10.1,0-14.289,0-5.026,0-7.684,2.583-7.691,7.461,0,3.969.007,8,.007,11.907,0,3.688.007,7.5.007,11.253q-.011,9.177-.007,18.353v22.272c0,4.857,2.665,7.427,7.713,7.431l2.945,0c2.273,0,4.628.005,6.945.005,4.347,0,7.875-.009,11.1-.028h.03c.871,0,1.188.19,1.469.883a23.729,23.729,0,0,0,1.321,2.6c.074.134.147.269.229.406h-15.05Z" transform="translate(2204.548 503)" fill="#3f78e0"/>
        <path id="Path_1715" data-name="Path 1715" d="M-2183.329-416.768h14.112a20.131,20.131,0,0,1-1.114-2.24.91.91,0,0,0-.288-.437,1.507,1.507,0,0,0-.672-.1h-.03c-3.226.019-6.754.028-11.1.028-2.317,0-4.672,0-6.945-.005l-2.945,0c-5.41,0-8.267-2.766-8.267-7.985v-22.281q0-9.171.008-18.344c0-3.749-.008-7.561-.008-11.248,0-3.9-.007-7.941-.007-11.912.007-5.24,2.856-8.011,8.245-8.014,4.192,0,8.731,0,14.3,0h22.475v1.107c0,.66,0,1.3-.007,1.921,0,1.3,0,2.524.007,3.753a7.962,7.962,0,0,0,2.229,5.871,8.692,8.692,0,0,0,6.148,2.17c.635,0,1.321,0,2.14,0h4.805v30.524l1.639.464,1.358.385c0-1.983.007-3.987.007-5.931.007-8.066.022-16.406-.074-24.6a4.48,4.48,0,0,0-1.3-2.613c-2.908-2.95-5.927-5.9-8.842-8.763-2.082-2.038-4.237-4.146-6.333-6.238a2.667,2.667,0,0,0-2.155-.822h-.015c-6.783.021-13.633.024-20.024.024h-9.16l-7.374,0c-6.849,0-11.108,4.1-11.108,10.679-.007,14.181-.007,28.6-.007,42.543v4.474c0,5.6-.008,11.39,0,17.085a10.3,10.3,0,0,0,2.989,7.622,11.2,11.2,0,0,0,7.971,2.889c2.768,0,5.735,0,9.344,0m0,1.107q-4.672,0-9.344,0c-7.241-.007-12.053-4.649-12.068-11.617q-.011-10.122,0-20.245,0-21.929.007-43.858c0-7.2,4.746-11.781,12.215-11.786l7.374,0h9.16q10.009,0,20.017-.024h.022a3.771,3.771,0,0,1,2.938,1.146c5.041,5.022,10.185,9.945,15.182,15.007a5.47,5.47,0,0,1,1.616,3.377c.118,10.418.074,20.838.066,31.257a6.593,6.593,0,0,1-.074.734c-1.69-.478-3.336-.943-5.137-1.455v-30.254c-1.284,0-2.5,0-3.7,0-.716,0-1.432,0-2.14,0-5.809-.023-9.462-3.544-9.485-9.143-.007-1.824,0-3.648,0-5.678h-21.367q-7.152,0-14.3,0c-4.753,0-7.13,2.314-7.137,6.907q0,11.581.015,23.16-.011,20.313-.007,40.625c0,4.571,2.391,6.873,7.167,6.878q4.938,0,9.883.007,5.547,0,11.094-.028h.037a1.793,1.793,0,0,1,1.985,1.229c.5,1.234,1.233,2.383,1.963,3.764h-1.808Z" transform="translate(2204.744 503.196)" fill="#fff"/>
      </g>
      <path id="Path_1678" data-name="Path 1678" d="M-2065.45-292.41a16.207,16.207,0,0,1-11.51-4.743,16.207,16.207,0,0,1-4.751-11.507,16.276,16.276,0,0,1,16.238-16.142,16.272,16.272,0,0,1,16.261,16.281A16.2,16.2,0,0,1-2065.45-292.41Zm-2.684-13.541v5.449c0,3.474,0,3.416,3.4,3.452,1.492.016,2.021-.534,1.971-1.993-.078-2.246-.021-4.5-.021-6.9h5.353c3.786-.006,3.423.345,3.492-3.493.027-1.458-.6-1.875-1.948-1.833-2.247.074-4.5.019-6.9.019v-5.661c0-3.16,0-3.16-3.174-3.15-2.115.007-2.174.061-2.18,2.2-.007,2.183,0,4.366,0,6.615h-5.29c-3.838,0-3.5-.379-3.55,3.6-.016,1.255.454,1.748,1.709,1.718,2.31-.058,4.621-.019,7.13-.019Z" transform="translate(2124.51 382.588)" fill="#343f52"/>
      <path id="Path_1679" data-name="Path 1679" d="M-2146.7-409.924c6.1,0,12.2.01,18.295-.009,1.112,0,2.106.176,2.442,1.384a1.708,1.708,0,0,1-.124,1.423,1.709,1.709,0,0,1-1.161.832,5.508,5.508,0,0,1-1.6.126q-17.81.009-35.62,0c-.432,0-.994.148-1.268-.061-.656-.508-1.532-1.123-1.671-1.822-.212-1.067.631-1.805,1.764-1.852,1.563-.063,3.13-.024,4.694-.024Z" transform="translate(2180.677 440.146)" fill="#343f52"/>
      <path id="Path_1680" data-name="Path 1680" d="M-2146.708-369.964h-18.21c-1.728,0-2.731-.686-2.632-1.9.12-1.52,1.186-1.884,2.518-1.876,7.9.046,15.808.1,23.711.111,4.253.006,8.506-.09,12.758-.081a3.047,3.047,0,0,1,1.931.54,2.011,2.011,0,0,1,.531,1.807,2.845,2.845,0,0,1-1.914,1.332c-4.188.117-8.382.055-12.574.053h-6.119Z" transform="translate(2180.755 415.673)" fill="#343f52"/>
      <path id="Path_1681" data-name="Path 1681" d="M-2134.831-442.782c-4.2,0-8.405-.013-12.608.008-1.321.007-2.411-.263-2.522-1.825-.087-1.205.812-1.906,2.444-1.909q12.608-.02,25.216-.009c1.3,0,2.425.243,2.515,1.836.074,1.266-.808,1.893-2.6,1.9Q-2128.609-442.773-2134.831-442.782Z" transform="translate(2168.95 464.877)" fill="#d8c2b8"/>
      <path id="Path_1682" data-name="Path 1682" d="M-2137.288-337.148c-1.226,1.088-2.321,2.114-3.483,3.057a2.229,2.229,0,0,1-1.306.435c-7.772.025-15.545.015-23.317.018-1.205,0-2.051-.54-2.1-1.757-.049-1.3.779-1.945,2.067-1.945q13.844,0,27.688.018a1.868,1.868,0,0,1,.447.172Z" transform="translate(2180.404 391.063)" fill="#343f52"/>
      <path id="Path_1683" data-name="Path 1683" d="M-2146.471-301.08c.041.157.074.212.065.257-.69,3.433-.69,3.434-4.115,3.434h-13.894c-.43,0-.862.007-1.292-.018a1.728,1.728,0,0,1-1.329-.519,1.729,1.729,0,0,1-.486-1.341A1.718,1.718,0,0,1-2167-300.6a1.717,1.717,0,0,1,1.348-.475Q-2156.044-301.1-2146.471-301.08Z" transform="translate(2180.272 366.552)" fill="#343f52"/>
      <path id="Path_1681-2" data-name="Path 1681" d="M-2134.831-442.782c-4.2,0-8.405-.013-12.608.008-1.321.007-2.411-.263-2.522-1.825-.087-1.205.812-1.906,2.444-1.909q12.608-.02,25.216-.009c1.3,0,2.425.243,2.515,1.836.074,1.266-.808,1.893-2.6,1.9Q-2128.609-442.773-2134.831-442.782Z" transform="translate(2168.95 464.877)" fill="#d8c2b8"/>
      <path id="Path_1681-3" data-name="Path 1681" d="M-2134.831-442.782c-4.2,0-8.405-.013-12.608.008-1.321.007-2.411-.263-2.522-1.825-.087-1.205.812-1.906,2.444-1.909q12.608-.02,25.216-.009c1.3,0,2.425.243,2.515,1.836.074,1.266-.808,1.893-2.6,1.9Q-2128.609-442.773-2134.831-442.782Z" transform="translate(2168.95 464.877)" fill="#343f52"/>
    </g>
  </g>
</svg>
