<svg xmlns="http://www.w3.org/2000/svg" width="88.182" height="88.18" viewBox="0 0 88.182 88.18">
  <g id="Group_16020" data-name="Group 16020" transform="translate(-411.696 -1113.14)">
    <g id="Get_Proposals_ic" data-name="Get Proposals ic" transform="translate(411.696 1113.14)">
      <g id="Path_1642" data-name="Path 1642" transform="translate(0 0)">
        <path id="Path_1716" data-name="Path 1716" d="M-1405.845,2019.848h-53.581a1.4,1.4,0,0,0-.31-.115,7.518,7.518,0,0,1-3.558-1.725,7.6,7.6,0,0,1-2.086-3.363c-.087-.267-.152-.534-.224-.823-.029-.108-.058-.216-.087-.332v-74.236a.4.4,0,0,1,.029-.087c.036-.13.072-.26.1-.4a7.668,7.668,0,0,1,1.718-3.573,7.5,7.5,0,0,1,3.349-2.107c.289-.094.592-.166.909-.238.13-.029.26-.057.383-.094h45.8a1.472,1.472,0,0,0,.354.108,7.584,7.584,0,0,1,4.381,2.353c1.53,1.552,3.089,3.111,4.6,4.612.736.736,1.494,1.494,2.237,2.245a7.181,7.181,0,0,1,2.216,5.355c-.015,4.662-.015,9.4-.007,13.98v6.575l.325.144c.05.022.094.043.144.065l.094.043.4.173.253-.354c.05-.072.094-.144.137-.209a1.656,1.656,0,0,1,.217-.289c.419-.426.837-.852,1.263-1.27,1.934-1.948,3.933-3.962,5.918-5.918a7.186,7.186,0,0,1,5.1-2.108,7.172,7.172,0,0,1,3.19.751,6.844,6.844,0,0,1,2.569,2.238,8.865,8.865,0,0,1,1.01,2.208c.123.339.253.7.4,1.046v1.927a.763.763,0,0,0-.108.267,7.5,7.5,0,0,1-2.259,4.135c-2.966,2.952-5.976,5.962-8.884,8.87-2.959,2.959-6.019,6.026-9.036,9.029a2.323,2.323,0,0,0-.751,1.776c.022,7.138.015,14.276.015,22.193a7.1,7.1,0,0,1-1.35,4.2,7.18,7.18,0,0,1-3.58,2.591c-.3.094-.6.173-.924.26C-1405.592,2019.776-1405.722,2019.812-1405.845,2019.848Zm-35.061-83.02h-17.228a3.2,3.2,0,0,0-3.479,3.479v72.014a3.191,3.191,0,0,0,3.471,3.471h50.983a3.155,3.155,0,0,0,3.493-3.493v-18.151l-.794.419c-.2.108-.383.209-.563.31a5.191,5.191,0,0,1-.917.462c-2.158.736-4.352,1.465-6.481,2.172-1.285.433-2.613.873-3.919,1.314a3.374,3.374,0,0,1-1.032.188,1.88,1.88,0,0,1-1.378-.592,2.132,2.132,0,0,1-.375-2.418c.44-1.285.873-2.6,1.3-3.868.686-2.057,1.386-4.179,2.115-6.257a4.535,4.535,0,0,1,.967-1.6c1.905-1.934,3.854-3.883,5.738-5.774,1.552-1.552,3.154-3.161,4.72-4.749a2.207,2.207,0,0,0,.6-1.451c.022-5.456.022-11.006.014-16.376v-2.3c0-.18-.007-.354-.022-.541-.007-.079-.014-.174-.014-.267l-.029-.513h-12.9c-1.84,0-2.519-.671-2.519-2.49v-12.933l-.52-.029c-.087,0-.166-.007-.245-.014-.166-.007-.3-.014-.455-.014h-20.526Zm30.875,48.557-.382.339-.087.079a4.769,4.769,0,0,0-1.8,2.562,9.6,9.6,0,0,1-.411,1.3c-.079.224-.166.455-.238.686-.173.52-.346,1.054-.527,1.609-.079.26-.166.52-.26.794l-.325,1.025,1.018-.339c.447-.152.888-.311,1.313-.455.938-.332,1.819-.642,2.721-.873a5.526,5.526,0,0,0,3-2.021l.3-.375-.339-.346-3.623-3.623Zm16.159-16.044-.382.383c-4.121,4.121-8.249,8.242-12.3,12.291l-.383.383.383.382c1.14,1.148,2.331,2.339,3.464,3.464l.383.382.382-.382,2.923-2.923,9.375-9.375.383-.382-.383-.383-.873-.873c-.866-.859-1.739-1.732-2.591-2.584Zm8.069-7.051a2.694,2.694,0,0,0-1.819.678,23.644,23.644,0,0,0-2.057,2.115c-.267.3-.541.606-.816.9l-.361.383.375.368c1.111,1.112,2.3,2.31,3.551,3.551l.382.383.383-.383c.274-.282.556-.563.83-.83.62-.614,1.256-1.249,1.869-1.905a3.086,3.086,0,0,0-.014-4.208A3.143,3.143,0,0,0-1385.8,1962.29Zm-28.313-25.455a3.214,3.214,0,0,0-.447.029l-.484.051v11.338h11.252l.072-.462a2.925,2.925,0,0,0-.787-2.641c-2.728-2.743-5.16-5.175-7.434-7.434A2.972,2.972,0,0,0-1414.116,1936.835Z" transform="translate(1466.231 -1932.209)" fill="#3f78e0"/>
        <path id="Path_1717" data-name="Path 1717" d="M-1406.126,2019.1l.31-.086c.318-.079.606-.159.888-.253a6.574,6.574,0,0,0,3.313-2.389,6.541,6.541,0,0,0,1.249-3.883c0-7.917.007-15.055-.014-22.193a2.825,2.825,0,0,1,.909-2.158c3.017-3,6.077-6.07,9.036-9.029,2.909-2.909,5.918-5.918,8.885-8.87a6.989,6.989,0,0,0,2.107-3.847,1.206,1.206,0,0,1,.1-.31v-1.689c-.13-.325-.245-.65-.361-.967a8.782,8.782,0,0,0-.945-2.079,6.346,6.346,0,0,0-2.375-2.064,6.57,6.57,0,0,0-2.945-.693,6.675,6.675,0,0,0-4.72,1.949c-1.985,1.956-3.984,3.969-5.918,5.918-.419.418-.844.844-1.263,1.27a1.74,1.74,0,0,0-.144.2c-.043.065-.094.144-.151.224l-.512.714-.808-.354-.087-.043a.851.851,0,0,1-.144-.058l-.65-.289v-6.929c-.007-4.583-.007-9.324.007-13.98a6.669,6.669,0,0,0-2.057-4.973c-.743-.75-1.5-1.508-2.237-2.237-1.516-1.508-3.082-3.075-4.6-4.619a7.079,7.079,0,0,0-4.078-2.2,1.93,1.93,0,0,1-.383-.1h-45.62c-.115.029-.224.051-.325.079-.31.072-.6.144-.873.231a6.57,6.57,0,0,0-4.7,5.269,4.349,4.349,0,0,1-.123.448v74.106c.022.087.043.18.072.267a7.594,7.594,0,0,0,.216.779,6.56,6.56,0,0,0,5.232,4.734,1.492,1.492,0,0,1,.318.1h53.393m-34.989-83.02h20.526c.166,0,.318.007.483.014.079.007.159.014.245.014l1.032.051v13.453a2.207,2.207,0,0,0,.4,1.537,2.263,2.263,0,0,0,1.573.411h13.417l.051,1.025q.011.141.021.26c.015.188.022.382.022.577v2.3c.007,5.37.007,10.92-.014,16.376a2.71,2.71,0,0,1-.758,1.833c-1.566,1.588-3.168,3.2-4.72,4.749-1.884,1.891-3.833,3.839-5.73,5.774a3.967,3.967,0,0,0-.852,1.4c-.722,2.071-1.422,4.193-2.107,6.243-.426,1.27-.859,2.584-1.3,3.876-.354,1.054-.087,1.523.252,1.862a1.29,1.29,0,0,0,.989.433,2.691,2.691,0,0,0,.859-.159c1.306-.44,2.634-.888,3.926-1.313,2.122-.707,4.316-1.436,6.474-2.172a5.2,5.2,0,0,0,.823-.419c.181-.1.368-.209.577-.318l1.588-.837v19.046a3.678,3.678,0,0,1-4.034,4.035h-50.982a3.723,3.723,0,0,1-4.013-4.013V1940.1a3.727,3.727,0,0,1,4.02-4.02h17.228m30.9,48.355.722.722c1.213,1.22,2.4,2.411,3.616,3.623l.678.686-.592.75a5.973,5.973,0,0,1-3.3,2.208c-.873.231-1.747.534-2.67.859-.426.152-.866.31-1.328.462l-2.035.678.664-2.042c.087-.274.173-.541.26-.794.18-.563.347-1.09.52-1.617.079-.238.166-.469.253-.693a10.96,10.96,0,0,0,.39-1.234,5.293,5.293,0,0,1,1.97-2.858l.087-.072.765-.678m16.138-16.066.765.765c.852.852,1.725,1.718,2.591,2.584l.873.873.765.765-.765.765-9.375,9.375-2.923,2.923-.765.765-.765-.765c-1.133-1.126-2.324-2.317-3.464-3.464l-.765-.765.765-.765c4.049-4.049,8.177-8.177,12.3-12.291l.765-.765m8.069-6.828a3.684,3.684,0,0,1,2.728,1.234,3.623,3.623,0,0,1,0,4.944c-.613.657-1.256,1.292-1.876,1.912-.274.274-.556.548-.83.83l-.765.772-.765-.772c-1.249-1.241-2.439-2.439-3.551-3.551l-.743-.743.714-.765c.267-.281.534-.577.816-.888a23.493,23.493,0,0,1,2.093-2.158,3.254,3.254,0,0,1,2.179-.816m-28.313-25.455a3.485,3.485,0,0,1,2.555,1.039c2.273,2.259,4.706,4.691,7.434,7.434a3.434,3.434,0,0,1,.938,3.1l-.144.924H-1415.8v-12.363l.96-.108a4.147,4.147,0,0,1,.512-.029m8.343,84.1h-53.776a1.574,1.574,0,0,0-.3-.123,7.639,7.639,0,0,1-6.041-5.456c-.137-.411-.224-.83-.339-1.248v-74.388c.05-.173.108-.346.144-.527a7.649,7.649,0,0,1,5.427-6.077c.455-.144.931-.238,1.393-.361h45.974a1.688,1.688,0,0,0,.318.115,8.156,8.156,0,0,1,4.7,2.5c2.266,2.3,4.561,4.568,6.835,6.856a7.741,7.741,0,0,1,2.375,5.738c-.022,6.5-.007,13-.007,19.5v.7l.238.108a4.046,4.046,0,0,1,.411-.563c2.389-2.4,4.771-4.814,7.181-7.2a7.792,7.792,0,0,1,5.485-2.259,7.518,7.518,0,0,1,6.207,3.219,18.134,18.134,0,0,1,1.5,3.457v2.223a.582.582,0,0,0-.115.166,8.024,8.024,0,0,1-2.411,4.431q-8.975,8.942-17.92,17.9a1.784,1.784,0,0,0-.592,1.393q.033,11.1.014,22.2a7.627,7.627,0,0,1-5.3,7.3C-1405.043,2019.942-1405.519,2020.05-1405.981,2020.18Zm-35.133-83.02h-17.228a2.675,2.675,0,0,0-2.937,2.937v72.014a2.645,2.645,0,0,0,2.93,2.93h50.982a2.616,2.616,0,0,0,2.952-2.952v-17.256a11.6,11.6,0,0,1-1.559.808c-3.464,1.176-6.936,2.324-10.4,3.486a3.835,3.835,0,0,1-1.205.217,2.385,2.385,0,0,1-1.761-.751,2.687,2.687,0,0,1-.505-2.974c1.147-3.37,2.237-6.763,3.414-10.133a4.907,4.907,0,0,1,1.1-1.8c3.464-3.529,6.979-7.008,10.458-10.523a1.705,1.705,0,0,0,.44-1.075c.029-6.221.022-12.443.015-18.671,0-.238-.022-.484-.036-.78h-12.392c-2.136,0-3.06-.917-3.06-3.031v-12.421c-.274-.014-.476-.029-.678-.029Zm30.846,48.76a4.481,4.481,0,0,0-1.718,2.353,20.86,20.86,0,0,1-.664,2.035c-.252.758-.491,1.516-.779,2.411,1.451-.491,2.735-1,4.07-1.343a4.962,4.962,0,0,0,2.714-1.833Zm16.188-16.022c-4.121,4.121-8.249,8.242-12.3,12.291,1.14,1.147,2.331,2.338,3.464,3.464l12.3-12.3C-1391.756,1972.214-1392.94,1971.038-1394.08,1969.9Zm8.069-7.275a2.208,2.208,0,0,0-1.465.541,40.525,40.525,0,0,0-2.829,2.981c1.111,1.111,2.3,2.31,3.551,3.551.895-.9,1.812-1.79,2.685-2.721a2.544,2.544,0,0,0-.014-3.479A2.665,2.665,0,0,0-1386.011,1962.623Zm-28.313-25.455a3.559,3.559,0,0,0-.39.022V1947.5h10.248a2.391,2.391,0,0,0-.635-2.18q-3.7-3.724-7.427-7.434A2.478,2.478,0,0,0-1414.324,1937.168Z" transform="translate(1466.44 -1932)" fill="#fff"/>
      </g>
      <path id="Path_1684" data-name="Path 1684" d="M-1381.171,1977.355a4.379,4.379,0,0,1,.408-.564c2.39-2.4,4.776-4.81,7.186-7.192a7.668,7.668,0,0,1,6.068-2.243,7.667,7.667,0,0,1,5.624,3.2,18.257,18.257,0,0,1,1.5,3.458v2.229c-.038.053-.1.1-.113.161a8.027,8.027,0,0,1-2.416,4.432q-8.97,8.94-17.92,17.9c-.127.126-5.857,6.126-5.857,6.126l-1.407.611L-1387,1983S-1381.25,1977.319-1381.171,1977.355Zm-9.094,28.59s-4.767,1.85-8.234,3.014a2.653,2.653,0,0,1-2.959-.535,2.67,2.67,0,0,1-.505-2.969c1.143-3.376,2.237-6.768,3.411-10.134a4.974,4.974,0,0,1,1.1-1.8c3.464-3.527,6.981-7.005,10.456-10.523l-1.094,22.459Zm14.065-26.216-12.3,12.292,3.464,3.464,12.3-12.3Zm7.322-.2c.894-.9,1.814-1.789,2.686-2.72a2.543,2.543,0,0,0-.016-3.477,2.433,2.433,0,0,0-3.392-.332c-1.037.909-1.915,2-2.833,2.979Zm-19.889,19.847-3.621-3.624a4.474,4.474,0,0,0-1.718,2.351,21.368,21.368,0,0,1-.668,2.038c-.248.755-.491,1.511-.78,2.4,1.452-.486,2.743-.993,4.071-1.338a4.954,4.954,0,0,0,2.712-1.832Z" transform="translate(1448.565 -1941.63)" fill="#343f52"/>
      <path id="Path_1643" data-name="Path 1643" d="M-1371.267,2117.766h17.9a2.539,2.539,0,0,1,2.789,2.606,2.527,2.527,0,0,1-2.273,2.481,5.947,5.947,0,0,1-.626.022h-35.513c-1.63,0-2.65-.782-2.847-2.165a2.491,2.491,0,0,1,.564-2.079,2.493,2.493,0,0,1,1.975-.863c3.157-.022,6.314-.007,9.47-.007Z" transform="translate(1402.26 -2091.782)" fill="#343f52"/>
      <path id="Path_1644" data-name="Path 1644" d="M-1376.547,2191.918c4.314,0,8.628-.007,12.943,0a2.507,2.507,0,0,1,2.526,2.14,2.51,2.51,0,0,1-1.58,2.787,3.372,3.372,0,0,1-1.155.2q-12.733.016-25.467,0a2.569,2.569,0,0,1-1.943-.7,2.57,2.57,0,0,1-.8-1.9,2.563,2.563,0,0,1,.822-1.854,2.561,2.561,0,0,1,1.912-.676Q-1382.913,2191.91-1376.547,2191.918Z" transform="translate(1402.384 -2155.609)" fill="#343f52"/>
      <path id="Path_1645" data-name="Path 1645" d="M-1376.522,2345.266h-12.664a2.558,2.558,0,0,1-1.954-.648,2.558,2.558,0,0,1-.844-1.878,2.589,2.589,0,0,1,.827-1.927,2.589,2.589,0,0,1,1.983-.683q12.7-.008,25.4,0a2.6,2.6,0,0,1,2.756,2.309,2.572,2.572,0,0,1-1.94,2.76,3.757,3.757,0,0,1-.9.068Z" transform="translate(1402.357 -2283.166)" fill="#343f52"/>
      <path id="Path_1646" data-name="Path 1646" d="M-1376.5,2271.133h-12.873a2.537,2.537,0,0,1-2.474-1.679,2.443,2.443,0,0,1,.754-2.822,3.217,3.217,0,0,1,1.711-.618q12.873-.058,25.746-.021a2.564,2.564,0,0,1,1.852.748,2.563,2.563,0,0,1,.753,1.851,2.569,2.569,0,0,1-.8,1.832,2.568,2.568,0,0,1-1.869.707C-1367.967,2271.14-1372.239,2271.133-1376.5,2271.133Z" transform="translate(1402.382 -2219.355)" fill="#343f52"/>
      <path id="Path_1647" data-name="Path 1647" d="M-1233.222,2454h7.516a2.565,2.565,0,0,1,1.952.663,2.564,2.564,0,0,1,.833,1.886,2.573,2.573,0,0,1-.807,1.9,2.572,2.572,0,0,1-1.946.7q-7.551.016-15.1,0a2.554,2.554,0,0,1-1.979-.693,2.555,2.555,0,0,1-.794-1.941,2.547,2.547,0,0,1,2.81-2.513Q-1236.974,2453.989-1233.222,2454Z" transform="translate(1274.594 -2381.177)" fill="#343f52"/>
    </g>
  </g>
</svg>
