<svg xmlns="http://www.w3.org/2000/svg" width="67.085" height="88.004" viewBox="0 0 67.085 88.004">
  <g id="Group_16019" data-name="Group 16019" transform="translate(-657.607 -1800.14)">
    <g id="perfect_Match_ic" data-name="perfect Match ic" transform="translate(657.607 1800.14)">
      <g id="Path_1692" data-name="Path 1692">
        <path id="Path_1718" data-name="Path 1718" d="M12.263,0H54.822A12.263,12.263,0,0,1,67.085,12.263V75.741A12.263,12.263,0,0,1,54.822,88H12.263A12.263,12.263,0,0,1,0,75.741V12.263A12.263,12.263,0,0,1,12.263,0Z" fill="none"/>
        <path id="Path_1719" data-name="Path 1719" d="M12.263,2.525a9.738,9.738,0,0,0-9.738,9.738V75.741a9.738,9.738,0,0,0,9.738,9.738H54.822a9.738,9.738,0,0,0,9.738-9.738V12.263a9.738,9.738,0,0,0-9.738-9.738H12.263m0-2.525H54.822A12.263,12.263,0,0,1,67.085,12.263V75.741A12.263,12.263,0,0,1,54.822,88H12.263A12.263,12.263,0,0,1,0,75.741V12.263A12.263,12.263,0,0,1,12.263,0Z" fill="#3f78e0"/>
      </g>
      <g id="Group_15964" data-name="Group 15964" transform="translate(9.057 21.529)">
        <path id="Path_1685" data-name="Path 1685" d="M-3631.727,93.231a4.521,4.521,0,0,1,3.211,1.288q2.157,2.1,4.284,4.231a2.28,2.28,0,0,1,.7,1.976,2.282,2.282,0,0,1-1.207,1.714,17.568,17.568,0,0,1-1.836.866c-2.08.9-2.333,2.308-.682,3.851.076.072.155.139.236.2,1.37,1.094,2.556.836,3.325-.731.318-.649.577-1.329.926-1.959a2.4,2.4,0,0,1,1.836-1.351,2.4,2.4,0,0,1,2.137.794q2.02,1.984,4.028,3.975a4.35,4.35,0,0,1,1.444,3.212,4.351,4.351,0,0,1-1.407,3.228q-6.059,6.016-12.15,12-2.9,2.862-5.8,5.722a1.564,1.564,0,0,1-1.43.612,1.564,1.564,0,0,1-1.25-.925c-.35-.593-.638-1.221-.979-1.819a10.2,10.2,0,0,0-.866-1.347,2.445,2.445,0,0,0-3.385-.657,4.514,4.514,0,0,0-2.125,2.391,2.118,2.118,0,0,0,.571,2.5,12.128,12.128,0,0,0,1.844,1.244c.594.354,1.246.617,1.839.975a1.5,1.5,0,0,1,.783,1.132,1.5,1.5,0,0,1-.471,1.293c-.971.986-1.948,1.966-2.958,2.913a3.241,3.241,0,0,1-2.333.946,3.241,3.241,0,0,1-2.306-1.009q-7.694-7.574-15.371-15.169a3.185,3.185,0,0,1-1.121-2.444,3.186,3.186,0,0,1,1.149-2.431q1.31-1.3,2.623-2.59a1.575,1.575,0,0,1,1.458-.608,1.576,1.576,0,0,1,1.253.963c.263.444.488.911.733,1.366.2.361.379.735.594,1.088,1.265,2.074,3.046,2.308,4.833.64a4.577,4.577,0,0,0,.326-.335c1.542-1.715,1.314-3.39-.662-4.6a24.992,24.992,0,0,0-2.4-1.259,1.679,1.679,0,0,1-.433-2.923q8.951-8.741,17.823-17.563A4.638,4.638,0,0,1-3631.727,93.231ZM-3646.3,109.1c.535.5.968.9,1.386,1.316,1.443,1.42,2.877,2.849,4.324,4.266a1.191,1.191,0,0,0,1.11.465,1.191,1.191,0,0,0,.949-.74c.263-.462.433-.977.695-1.443a9.389,9.389,0,0,1,1.112-1.723,2.487,2.487,0,0,1,2.957-.623,5.615,5.615,0,0,1,1.686,1.088c2.148,2.048,1.691,4.427-1.037,5.616-.541.236-1.092.454-1.613.729a1.193,1.193,0,0,0-.8.954,1.193,1.193,0,0,0,.486,1.148c1.573,1.559,3.156,3.109,4.726,4.67.28.278.52.6.785.9.186-.157.269-.216.341-.289q6.374-6.289,12.745-12.582a2,2,0,0,0,.716-1.528,2,2,0,0,0-.706-1.533c-1.286-1.282-2.584-2.555-3.879-3.83-.1-.094-.2-.175-.349-.3a12.564,12.564,0,0,1-.714,1.631,10.1,10.1,0,0,1-1.526,2.118,3.611,3.611,0,0,1-3.842.757,5.936,5.936,0,0,1-3.586-3.258,3.782,3.782,0,0,1,1.119-4.778,13.905,13.905,0,0,1,2.118-1.194c.356-.19.729-.348,1.068-.5-1.485-1.5-2.9-2.971-4.376-4.375a2.245,2.245,0,0,0-1.29-.441,2.363,2.363,0,0,0-1.827.953q-5.608,5.554-11.229,11.088c-.472.472-.977.915-1.54,1.436Z" transform="translate(3662.24 -93.231)" fill="#343f52"/>
        <path id="Path_1686" data-name="Path 1686" d="M-3306.4,447.811a4.092,4.092,0,0,1,.857.494c.931.889,1.835,1.8,2.735,2.725a1.191,1.191,0,0,1,.4.86,1.191,1.191,0,0,1-.354.882,1.192,1.192,0,0,1-.864.336,1.193,1.193,0,0,1-.844-.384c-.932-.913-1.848-1.841-2.768-2.765a1.154,1.154,0,0,1-.278-1.37,1.363,1.363,0,0,1,1.11-.778Z" transform="translate(3344.861 -411.236)" fill="#a9b5c4"/>
        <path id="Path_1687" data-name="Path 1687" d="M-3598.93,155.824a2.237,2.237,0,0,1,.624.338q1.466,1.407,2.885,2.865a1.179,1.179,0,0,1,.343.836,1.179,1.179,0,0,1-.351.833,1.172,1.172,0,0,1-.835.346,1.172,1.172,0,0,1-.833-.351c-.972-.944-1.925-1.908-2.874-2.875a1.119,1.119,0,0,1-.2-1.334A1.217,1.217,0,0,1-3598.93,155.824Z" transform="translate(3606.693 -149.367)" fill="#a9b5c4"/>
        <path id="Path_1688" data-name="Path 1688" d="M-3340.171,471.958c0,.516.007,1.031,0,1.547a1.182,1.182,0,0,1-.3.931,1.182,1.182,0,0,1-.9.385,1.172,1.172,0,0,1-.875-.381,1.171,1.171,0,0,1-.3-.9q-.018-1.6,0-3.2a1.169,1.169,0,0,1,.313-.926,1.169,1.169,0,0,1,.907-.364,1.185,1.185,0,0,1,.865.4,1.186,1.186,0,0,1,.289.909C-3340.164,470.889-3340.171,471.424-3340.171,471.958Z" transform="translate(3376.004 -430.282)" fill="#a9b5c4"/>
        <path id="Path_1689" data-name="Path 1689" d="M-3535.473,132.88c0,.567.011,1.135,0,1.7a1.139,1.139,0,0,1-.321.843,1.141,1.141,0,0,1-.833.346,1.154,1.154,0,0,1-.864-.341,1.153,1.153,0,0,1-.333-.867q-.022-1.675,0-3.351a1.154,1.154,0,0,1,.328-.868,1.155,1.155,0,0,1,.862-.345,1.141,1.141,0,0,1,.856.357,1.14,1.14,0,0,1,.308.875C-3535.465,131.78-3535.473,132.33-3535.473,132.88Z" transform="translate(3550.857 -126.206)" fill="#a9b5c4"/>
        <path id="Path_1690" data-name="Path 1690" d="M-3284.208,413.769c.567,0,1.134-.014,1.7,0a1.143,1.143,0,0,1,.841.327,1.143,1.143,0,0,1,.342.835,1.154,1.154,0,0,1-.332.843,1.154,1.154,0,0,1-.838.344q-1.726.035-3.452,0a1.143,1.143,0,0,1-.836-.35,1.142,1.142,0,0,1-.318-.848,1.138,1.138,0,0,1,.345-.834,1.137,1.137,0,0,1,.844-.32c.566-.015,1.133,0,1.7,0Z" transform="translate(3326.455 -380.7)" fill="#a9b5c4"/>
        <path id="Path_1691" data-name="Path 1691" d="M-3623.2,220.574c-.549,0-1.1.012-1.649,0a1.137,1.137,0,0,1-.847-.311,1.135,1.135,0,0,1-.354-.83,1.152,1.152,0,0,1,.33-.868,1.154,1.154,0,0,1,.863-.344q1.7-.028,3.4,0a1.155,1.155,0,0,1,.84.337,1.153,1.153,0,0,1,.338.839,1.138,1.138,0,0,1-.331.84,1.139,1.139,0,0,1-.838.335C-3622.033,220.589-3622.617,220.574-3623.2,220.574Z" transform="translate(3629.787 -205.313)" fill="#a9b5c4"/>
      </g>
    </g>
  </g>
</svg>
